<?xml version="1.0" encoding="utf-8"?>
<!-- Generator: Adobe Illustrator 19.0.0, SVG Export Plug-In . SVG Version: 6.00 Build 0)  -->
<svg version="1.1" id="Layer_1" xmlns="http://www.w3.org/2000/svg" xmlns:xlink="http://www.w3.org/1999/xlink" x="0px" y="0px"
	 viewBox="-239 241 20 20" enable-background="new -239 241 20 20" xml:space="preserve">
<path fill="#555555" d="M-229.5,252c-3.033,0-5.5-2.467-5.5-5.5s2.467-5.5,5.5-5.5s5.5,2.467,5.5,5.5S-226.467,252-229.5,252z
	 M-229.5,242c-2.481,0-4.5,2.019-4.5,4.5s2.019,4.5,4.5,4.5s4.5-2.019,4.5-4.5S-227.019,242-229.5,242z"/>
<path fill="#555555" d="M-227.5,261h-10c-0.827,0-1.5-0.673-1.5-1.5c0-0.068,0.014-1.686,1.225-3.3
	c0.705-0.94,1.67-1.687,2.869-2.22c1.464-0.65,3.283-0.98,5.406-0.98c0.351,0,0.698,0.011,1.031,0.031
	c0.275,0.017,0.484,0.255,0.468,0.529c-0.017,0.275-0.255,0.486-0.53,0.469c-0.313-0.019-0.639-0.029-0.969-0.029
	c-3.487,0-6.06,0.953-7.441,2.756c-1.035,1.351-1.058,2.732-1.059,2.746c0,0.273,0.224,0.498,0.5,0.498h10
	c0.275,0,0.5,0.225,0.5,0.5S-227.225,261-227.5,261z"/>
<path fill="#555555" d="M-223.5,261c-2.481,0-4.5-2.02-4.5-4.5c0-2.481,2.019-4.5,4.5-4.5s4.5,2.019,4.5,4.5
	C-219,258.98-221.02,261-223.5,261z M-223.5,253c-1.93,0-3.5,1.57-3.5,3.5s1.57,3.5,3.5,3.5s3.5-1.57,3.5-3.5S-221.57,253-223.5,253
	z"/>
<path fill="#555555" d="M-221.5,256h-1.5v-1.5c0-0.275-0.225-0.5-0.5-0.5s-0.5,0.225-0.5,0.5v1.5h-1.5c-0.275,0-0.5,0.225-0.5,0.5
	s0.225,0.5,0.5,0.5h1.5v1.5c0,0.275,0.225,0.5,0.5,0.5s0.5-0.225,0.5-0.5V257h1.5c0.275,0,0.5-0.225,0.5-0.5S-221.225,256-221.5,256
	z"/>
</svg>
