<?xml version="1.0" encoding="utf-8"?>
<!-- Generator: Adobe Illustrator 19.0.0, SVG Export Plug-In . SVG Version: 6.00 Build 0)  -->
<svg version="1.1" id="Calque_1" xmlns="http://www.w3.org/2000/svg" xmlns:xlink="http://www.w3.org/1999/xlink" x="0px" y="0px"
	 viewBox="-184 235.5 225.8 370.4" style="enable-background:new -184 235.5 225.8 370.4;" xml:space="preserve">
<style type="text/css">
	.st0{fill:#BBBBBB;}
	.st1{fill:#3BB34A;}
	.st2{fill:#EF4137;}
	.st3{fill:#F69321;}
</style>
<path class="st0" d="M-70.2,605.9c-98,0-113.7-84.6-113.8-85.4c-0.2-9.3-0.2-198.6,64.1-263.1c14.4-14.6,31.1-21.9,49.7-21.9
	s35.3,7.4,49.7,21.9c63.7,64.4,62.3,253.1,62.3,261.1C41.6,520.4,28,605.9-70.2,605.9z M-70.2,250.6c-14.6,0-27.4,5.7-39,17.3
	c-59.9,60.2-59.8,249.3-59.8,251.2c0.4,1.8,13.7,71.7,98.8,71.7c85.3,0,96.5-70.6,96.9-73.5c-0.1-0.9,1.4-189.4-58-249.3
	C-42.8,256.3-55.6,250.6-70.2,250.6z"/>
<g id="XMLID_7271_">
	<path id="XMLID_7274_" class="st1" d="M-70.4,557.2c-11.6,0-22.8-4-31.6-11.3c-1.4-1.2-2.8-2.5-4-3.8c-1.7-1.8-1.6-4.7,0.3-6.3
		c1.9-1.7,4.9-1.5,6.6,0.3c1,1.1,2.1,2.1,3.3,3c7.1,5.9,16.1,9.1,25.4,9.1c11.3,0,21.9-4.7,29.3-12.8c1.7-1.9,4.7-2.1,6.6-0.5
		c2,1.6,2.2,4.4,0.5,6.3c0,0-0.2,0.2-0.2,0.2C-43.1,551.4-56.4,557.2-70.4,557.2z M-111.5,529c-1.9,0-3.7-1.2-4.4-3
		c-1.7-4.9-2.6-9.9-2.6-15.1c0-11.2,4.2-21.9,11.8-30.3c6.9-7.6,15.9-12.7,26-14.8c2.5-0.5,5,1,5.6,3.4s-1,4.8-3.6,5.4
		c-8.2,1.7-15.4,5.8-21,11.9c-6.1,6.8-9.5,15.5-9.5,24.4c0,4.2,0.7,8.3,2.1,12.2c0.8,2.4-0.4,4.9-2.9,5.7
		C-110.4,529-110.9,529-111.5,529z M-28.9,528.1c-0.5,0-0.9,0-1.4-0.2c-2.5-0.7-3.8-3.3-3-5.6c1.2-3.6,1.8-7.4,1.8-11.3
		c0-10.8-4.9-21-13.4-28.1c-5.2-4.3-11.4-7.3-18.1-8.5c-2.6-0.5-4.2-2.8-3.7-5.3c0.4-2.5,2.9-4,5.5-3.6c8.3,1.5,16.1,5.2,22.5,10.5
		c10.5,8.8,16.6,21.5,16.6,34.9c0,4.8-0.7,9.5-2.3,14C-25.1,526.8-26.9,528.1-28.9,528.1z"/>
	<path id="XMLID_7273_" class="st2" d="M-28.9,528.1c-0.5,0-0.9,0-1.4-0.2c-2.5-0.7-3.8-3.3-3-5.6c1.2-3.6,1.8-7.4,1.8-11.3
		c0-10.8-4.9-21-13.4-28.1c-5.2-4.3-11.4-7.3-18.1-8.5c-2.6-0.5-4.2-2.8-3.7-5.3c0.4-2.5,2.9-4,5.5-3.6c8.3,1.5,16.1,5.2,22.5,10.5
		c10.5,8.8,16.6,21.5,16.6,34.9c0,4.8-0.7,9.5-2.3,14C-25.1,526.8-26.9,528.1-28.9,528.1z"/>
	<path id="XMLID_7272_" class="st3" d="M-70.4,557.2c-11.6,0-22.8-4-31.6-11.3c-1.4-1.2-2.8-2.5-4-3.8c-1.7-1.8-1.6-4.7,0.3-6.3
		c1.9-1.7,4.9-1.5,6.6,0.3c1,1.1,2.1,2.1,3.3,3c7.1,5.9,16.1,9.1,25.4,9.1c11.3,0,21.9-4.7,29.3-12.8c1.7-1.9,4.7-2.1,6.6-0.5
		c2,1.6,2.2,4.4,0.5,6.3c0,0-0.2,0.2-0.2,0.2C-43.1,551.4-56.4,557.2-70.4,557.2z"/>
</g>
</svg>
