<?xml version="1.0" encoding="utf-8"?>
<!-- Generator: Adobe Illustrator 19.0.0, SVG Export Plug-In . SVG Version: 6.00 Build 0)  -->
<svg version="1.1" xmlns="http://www.w3.org/2000/svg" xmlns:xlink="http://www.w3.org/1999/xlink" x="0px" y="0px"
	 viewBox="0 0 50 50" style="enable-background:new 0 0 50 50;" xml:space="preserve">
<path fill="#C8C8C8" d="M1.2,24.7c0-6.6,2.5-12.8,7.1-17.4C12.9,2.6,19,0,25.5,0s12.7,2.6,17.3,7.2
	c4.6,4.7,7.1,10.8,7.1,17.4S47.4,37.4,42.8,42c-4.6,4.7-10.7,7.2-17.2,7.2S13,46.6,8.4,42C3.7,37.4,1.2,31.2,1.2,24.7z M47.5,24.7
	c0-12.2-9.8-22.2-21.9-22.2s-22,9.9-22,22.2s9.8,22.2,21.9,22.2S47.5,36.9,47.5,24.7z"/>
<path fill="#C8C8C8" d="M10.9,24.7c0-8.2,6.6-14.8,14.6-14.8c8.1,0,14.6,6.6,14.6,14.8s-6.6,14.8-14.6,14.8
	C17.5,39.4,10.9,32.8,10.9,24.7z M37.7,24.7c0-6.8-5.5-12.3-12.2-12.3s-12.2,5.5-12.2,12.3S18.8,37,25.5,37S37.7,31.5,37.7,24.7z"/>
<path fill="#C8C8C8" d="M6.3,24.3C6.3,13.5,15,4.7,25.7,4.7"/>
</svg>
