<?xml version="1.0" encoding="utf-8"?>
<!-- Generator: Adobe Illustrator 19.0.0, SVG Export Plug-In . SVG Version: 6.00 Build 0)  -->
<svg version="1.1" xmlns="http://www.w3.org/2000/svg" xmlns:xlink="http://www.w3.org/1999/xlink" x="0px" y="0px"
	 viewBox="-205 297 200 200" style="enable-background:new -205 297 200 200;" xml:space="preserve">
<path fill="none" stroke-width="6" stroke="#555555" d="M-26.1,452.8c-12.2-9.1-19.3-23.3-19.3-38.5v-32c0-26.9-18-49.5-42.9-56.6v-7.6
	c0-8.9-7.1-16-16-16s-16,7.1-16,16v7.6c-24.6,7.1-42.9,29.7-42.9,56.6v32c0,15.2-7.1,29.2-19.3,38.5c-1.8,1.3-2.5,3.8-1.8,5.8
	c0.8,2.3,2.8,3.6,5.1,3.6h48.7c-0.3,1.8-0.5,3.6-0.5,5.3c0,14.7,11.9,26.6,26.6,26.6s26.6-11.9,26.6-26.6c0-1.8-0.3-3.6-0.5-5.3
	h48.9c2.3,0,4.3-1.5,5.1-3.6C-23.6,456.6-24.3,454.3-26.1,452.8L-26.1,452.8z M-109.6,318.3c0-3,2.3-5.3,5.3-5.3s5.3,2.3,5.3,5.3
	v5.6c-1.8-0.3-3.6-0.3-5.3-0.3c-1.7,0-3.6,0-5.3,0.3V318.3z M-88.3,467.7c0,8.9-7.1,16-16,16s-16-7.1-16-16c0-1.8,0.3-3.6,1-5.3
	h30.2C-88.5,464.2-88.3,465.9-88.3,467.7z"/>
</svg>
