<?xml version="1.0" encoding="utf-8"?>
<svg version="1.1" xmlns="http://www.w3.org/2000/svg" xmlns:xlink="http://www.w3.org/1999/xlink" width="80" height="80" viewBox="0 0 80 80">
<path fill="#666666" d="M69.479 63.501c-4.454-3.47-11.099-5.392-17.011-6.815-1.028-0.247-2.413-1.837-2.95-4.069-0.283-1.175-0.675-4.135 1.784-6.242 1.755-1.505 3.001-3.353 3.858-5.357 3.156-3.902 5.149-8.015 5.923-12.23 0.668-3.635 0.443-7.45-0.668-11.338-1.268-4.439-4.396-8.113-9.045-10.625-3.93-2.124-8.748-3.239-13.216-3.057-2.964 0.12-5.615 0.804-7.666 1.977-1.903 1.089-3.261 2.574-3.993 4.35-3.277 0.433-5.777 2.31-7.128 5.395-1.487 3.397-1.56 8.157-0.205 13.403 1.221 4.726 3.421 9.114 6.068 12.124 0.641 1.987 1.702 3.844 3.467 5.356 2.436 2.088 1.88 5.348 1.651 6.297-0.534 2.216-1.851 3.781-2.817 4.014-5.913 1.423-12.557 3.345-17.011 6.815-4.388 3.418-6.521 8.16-6.521 14.499 0 1.105 0.895 2 2 2h68c1.105 0 2-0.895 2-2 0-6.338-2.133-11.081-6.521-14.499zM23.031 17.096c0.925-2.113 2.504-3.096 4.969-3.096 0.953 0 1.774-0.673 1.961-1.608 0.638-3.188 4.734-4.48 8.355-4.626 7.271-0.295 16.14 3.385 18.253 10.784 1.136 3.974 1.179 7.759 0.122 11.415-0.209-2.63-0.742-4.951-1.322-6.518-0.547-1.48-1.492-3.447-3.369-3.447-10.271 0-18.544-1.372-20.586-3.414-0.572-0.572-1.432-0.743-2.18-0.434s-1.235 1.039-1.235 1.848c0 5.452-1.813 9.455-3.037 10.444-0.483 0.39-0.757 0.981-0.744 1.601 0.011 0.501 0.015 1.012 0.018 1.544-2.052-5.162-2.718-11.039-1.206-14.492zM8.085 76c0.364-4.091 1.915-7.023 4.894-9.343 3.065-2.387 7.697-4.206 15.489-6.081 2.639-0.635 4.904-3.37 5.77-6.966 0.969-4.024-0.129-7.864-2.937-10.27-3.016-2.585-3.039-7.077-3.062-11.422-0.002-0.361-0.004-0.729-0.008-1.096 1.55-1.763 3.037-5.071 3.566-9.416 2.328 0.955 5.556 1.643 9.744 2.084 2.964 0.312 6.311 0.487 9.725 0.509 0.692 1.319 1.776 5.384 1.465 9.866-0.203 2.919-1.066 6.932-4.032 9.474-2.87 2.46-4.017 6.279-3.069 10.216 0.856 3.556 3.228 6.378 5.903 7.021 7.792 1.875 12.424 3.694 15.489 6.081 2.979 2.32 4.53 5.252 4.894 9.343h-63.831z"></path>
</svg>
