<?xml version="1.0" encoding="utf-8"?>
<svg version="1.1" xmlns="http://www.w3.org/2000/svg" xmlns:xlink="http://www.w3.org/1999/xlink" width="640" height="640" viewBox="0 0 640 640">
<path fill="#333333" d="M16 608c-7.192 0-13.5-4.798-15.419-11.729s1.021-14.29 7.188-17.99c54.104-32.463 76.552-79.633 84.51-101.722-58.804-45.030-92.279-107.341-92.279-172.559 0-32.94 8.269-64.847 24.577-94.835 15.564-28.621 37.754-54.254 65.954-76.187 57.19-44.481 133.001-68.978 213.469-68.978s156.279 24.497 213.47 68.979c28.199 21.933 50.39 47.565 65.954 76.187 16.307 29.987 24.576 61.894 24.576 94.834 0 32.939-8.269 64.847-24.576 94.835-15.564 28.621-37.755 54.254-65.954 76.187-57.191 44.481-133.002 68.978-213.47 68.978-33.067 0-65.5-4.142-96.523-12.317-13.734 9.148-39.4 25.378-70.054 40.628-47.602 23.681-88.455 35.689-121.423 35.689zM304 96c-149.981 0-272 93.309-272 208 0 58.091 32.145 113.987 88.192 153.355 5.498 3.861 7.997 10.746 6.257 17.235-3.74 13.953-16.478 52.249-50.55 89.21 41.665-14.587 86.514-39.894 119.647-62.68 3.936-2.705 8.875-3.512 13.465-2.2 30.349 8.68 62.308 13.080 94.989 13.080 149.981 0 272-93.309 272-208s-122.019-208-272-208z"></path>
<path fill="#333333" d="M432 224h-256c-8.836 0-16-7.164-16-16s7.164-16 16-16h256c8.837 0 16 7.164 16 16s-7.163 16-16 16z"></path>
<path fill="#333333" d="M432 288h-256c-8.836 0-16-7.164-16-16s7.164-16 16-16h256c8.837 0 16 7.164 16 16s-7.163 16-16 16z"></path>
<path fill="#333333" d="M432 352h-256c-8.836 0-16-7.163-16-16s7.164-16 16-16h256c8.837 0 16 7.163 16 16s-7.163 16-16 16z"></path>
<path fill="#333333" d="M368 416h-192c-8.836 0-16-7.163-16-16s7.164-16 16-16h192c8.837 0 16 7.163 16 16s-7.163 16-16 16z"></path>
</svg>
