<?xml version="1.0" encoding="utf-8"?>
<!-- Generator: Adobe Illustrator 19.0.0, SVG Export Plug-In . SVG Version: 6.00 Build 0)  -->
<svg version="1.1" xmlns="http://www.w3.org/2000/svg" xmlns:xlink="http://www.w3.org/1999/xlink" x="0px" y="0px"
	 viewBox="0 0 200 200" enable-background="new 0 0 200 200" xml:space="preserve">
	<path fill="#CCCCCC" d="M10.06,180.237c-2.271,0-4.257-1.518-4.863-3.705c-0.606-2.188,0.32-4.513,2.271-5.676
		c17.062-10.228,24.137-25.108,26.645-32.064C15.569,124.582,5.015,104.943,5.015,84.378c0-10.381,2.601-20.442,7.75-29.907
		c4.902-9.021,11.903-17.106,20.797-24.028C51.595,16.42,75.496,8.69,100.874,8.69c25.383,0,49.28,7.73,67.312,21.753
		c8.898,6.912,15.894,14.997,20.801,24.028c5.144,9.455,7.745,19.516,7.745,29.907c0,10.386-2.601,20.437-7.745,29.907
		c-4.907,9.016-11.904,17.106-20.801,24.033c-18.033,14.013-41.929,21.748-67.312,21.748c-10.425,0-20.654-1.301-30.434-3.882
		c-4.326,2.887-12.421,8.001-22.088,12.81c-15.012,7.469-27.892,11.253-38.282,11.253L10.06,180.237z M100.874,18.79
		c-47.294,0-85.768,29.424-85.768,65.588c0,18.309,10.14,35.947,27.808,48.353c1.739,1.222,2.523,3.389,1.981,5.44
		c-1.182,4.404-5.198,16.476-15.944,28.132c13.135-4.602,27.286-12.583,37.725-19.767c1.242-0.858,2.799-1.114,4.252-0.7
		c9.564,2.729,19.644,4.129,29.946,4.129c47.299,0,85.768-29.424,85.768-65.588S148.173,18.79,100.874,18.79z"/>
	<path fill="#CCCCCC" d="M100.874,99.514c-2.784,0-5.045-2.266-5.045-5.045V44.016c0-2.784,2.261-5.045,5.045-5.045
		s5.045,2.261,5.045,5.045v50.452C105.919,97.247,103.658,99.514,100.874,99.514z"/>
	<path fill="#CCCCCC" d="M100.874,129.785c-2.784,0-5.045-2.266-5.045-5.045v-10.09
		c0-2.779,2.261-5.045,5.045-5.045s5.045,2.266,5.045,5.045v10.09C105.919,127.519,103.658,129.785,100.874,129.785z"/>
</svg>
