<?xml version="1.0" encoding="utf-8"?>
<!-- Generator: Adobe Illustrator 19.0.0, SVG Export Plug-In . SVG Version: 6.00 Build 0)  -->
<svg version="1.1" id="Calque_1" xmlns="http://www.w3.org/2000/svg" xmlns:xlink="http://www.w3.org/1999/xlink" x="0px" y="0px"
	 viewBox="0 0 150 150" style="enable-background:new 0 0 150 150;" xml:space="preserve">
<style type="text/css">
	.st0{fill:#36DA3E;}
	.st1{fill:#FFFFFF;}
</style>
<circle id="XMLID_469_" class="st0" cx="75.1" cy="74.9" r="74.9"/>
<circle id="XMLID_305_" class="st0" cx="-153.7" cy="81" r="70"/>
<path id="XMLID_320_" class="st1" d="M91.5,70.1H78.9V56.6c0-2.9-1.9-4.8-3.9-4.8s-3.9,1.9-3.9,4.8v13.5H58.7
	c-1.9,0-3.9,1.9-3.9,4.8c0,2.9,1.9,4.8,3.9,4.8h12.5v13.5c0,2.9,1.9,4.8,3.9,4.8s3.9-1.9,3.9-4.8V79.8h12.5c1.9,0,3.9-1.9,3.9-4.8
	C95.3,72,93.4,70.1,91.5,70.1z"/>
</svg>
