<?xml version="1.0" encoding="utf-8"?>
<!-- Generator: Adobe Illustrator 19.0.0, SVG Export Plug-In . SVG Version: 6.00 Build 0)  -->
<svg version="1.1" id="Calque_1" xmlns="http://www.w3.org/2000/svg" xmlns:xlink="http://www.w3.org/1999/xlink" x="0px" y="0px"
	 viewBox="0 0 150 150" style="enable-background:new 0 0 150 150;" xml:space="preserve">
<style type="text/css">
	.st0{fill:#36DA3E;}
	.st1{fill:none;stroke:#FFFFFF;stroke-width:5;stroke-linecap:round;stroke-linejoin:round;stroke-dasharray:37.261,37.261;}
	.st2{fill:#FFFFFF;}
</style>
<circle id="XMLID_469_" class="st0" cx="75.1" cy="74.9" r="74.9"/>
<g id="XMLID_344_">
	<ellipse id="XMLID_9_" class="st0" cx="74.9" cy="74.6" rx="60" ry="58.6"/>
	<ellipse id="XMLID_8_" class="st1" cx="74.9" cy="74.6" rx="60" ry="58.6"/>
</g>
<path id="XMLID_471_" class="st2" d="M92.5,72H79.7V58.5c0-2.9-2-4.8-4-4.8s-4,1.9-4,4.8V72H58.9c-2,0-4,1.9-4,4.8
	c0,2.9,2,4.8,4,4.8h12.8v13.5c0,2.9,2,4.8,4,4.8s4-1.9,4-4.8V81.6h12.8c2,0,4-1.9,4-4.8C96.5,73.9,94.5,72,92.5,72z"/>
</svg>
