<?xml version="1.0" encoding="utf-8"?>
<!-- Generator: Adobe Illustrator 19.0.0, SVG Export Plug-In . SVG Version: 6.00 Build 0)  -->
<svg version="1.1" id="Calque_1" xmlns="http://www.w3.org/2000/svg" xmlns:xlink="http://www.w3.org/1999/xlink" x="0px" y="0px"
	 viewBox="0 0 150 150" style="enable-background:new 0 0 150 150;" xml:space="preserve">
<style type="text/css">
	.st0{fill:#36DA3E;}
	.st1{fill:#FFFFFF;}
</style>
<circle id="XMLID_469_" class="st0" cx="75.1" cy="74.9" r="74.9"/>
<path id="XMLID_399_" class="st1" d="M75.1,36.3c-14.4,0-26,10.9-26,24.2c0,24.2,26,53,26,53s26-29,26-53
	C101.2,47.2,89.6,36.3,75.1,36.3z M75.1,82.6c-11.2,0-20.2-9-20.2-20.2s9-20.2,20.2-20.2s20.2,9,20.2,20.2S86.2,82.6,75.1,82.6z"/>
<path id="XMLID_402_" class="st1" d="M149.8,73.5c-1,1.3-25.9,33.5-74,40c-0.1,0-0.2,0-0.3,0c-1.1,0-0.5-0.8-0.6-1.9
	c-0.2-1.2-0.8-2.2,0.3-2.4c46.3-6.2,73.9-41.8,74.1-42.1l0.4,3.4L149.8,73.5z"/>
</svg>
