<?xml version="1.0" encoding="utf-8"?>
<!-- Generator: Adobe Illustrator 19.0.0, SVG Export Plug-In . SVG Version: 6.00 Build 0)  -->
<svg version="1.1" xmlns="http://www.w3.org/2000/svg" xmlns:xlink="http://www.w3.org/1999/xlink" x="0px" y="0px"
	 viewBox="0 0 20 20" enable-background="new 0 0 20 20" xml:space="preserve">
<path fill="#CCCCCC" d="M9.5,15C7.019,15,5,12.981,5,10.5C5,8.019,7.019,6,9.5,6c2.481,0,4.5,2.019,4.5,4.5C14,12.981,11.981,15,9.5,15z M9.5,7
	C7.57,7,6,8.57,6,10.5C6,12.43,7.57,14,9.5,14c1.93,0,3.5-1.57,3.5-3.5C13,8.57,11.43,7,9.5,7z"/>
<path fill="#CCCCCC" d="M17.5,18h-16C0.673,18,0,17.327,0,16.5v-10C0,5.673,0.673,5,1.5,5H3c0.415,0,1.06-0.267,1.354-0.561L4.94,3.853
	c0.487-0.487,1.373-0.854,2.061-0.854h5c0.688,0,1.574,0.367,2.061,0.854l0.586,0.586C14.941,4.732,15.587,5,16.002,5h1.5
	c0.827,0,1.5,0.673,1.5,1.5v10c0,0.827-0.673,1.5-1.5,1.5H17.5z M1.5,6C1.224,6,1,6.224,1,6.5v10C1,16.775,1.224,17,1.5,17h16
	c0.275,0,0.5-0.225,0.5-0.5v-10C18,6.224,17.775,6,17.5,6H16c-0.688,0-1.574-0.367-2.061-0.854L13.354,4.56
	c-0.293-0.293-0.939-0.561-1.355-0.561h-5c-0.415,0-1.06,0.267-1.354,0.561L5.059,5.146C4.572,5.633,3.687,6,2.998,6h-1.5H1.5z"/>
</svg>
