<?xml version="1.0" encoding="utf-8"?>
<!-- Generator: Adobe Illustrator 19.0.0, SVG Export Plug-In . SVG Version: 6.00 Build 0)  -->
<svg version="1.1" id="Calque_1" xmlns="http://www.w3.org/2000/svg" xmlns:xlink="http://www.w3.org/1999/xlink" x="0px" y="0px"
	 viewBox="-977 2507.8 200 200" style="enable-background:new -977 2507.8 200 200;" xml:space="preserve">
<path fill="#646464" d="M-823.1,2562.9c-13.4-13.4-30.9-21.2-49.6-22.3v-9.1h4.5c2.5,0,4.5-2,4.5-4.5s-2-4.5-4.5-4.5h-18
	c-2.5,0-4.5,2-4.5,4.5s2,4.5,4.5,4.5h4.5v9.1c-18.7,1.1-36.2,8.9-49.6,22.3c-14.4,14.4-22.4,33.7-22.4,54.1
	c0,20.4,8,39.6,22.4,54.1c14.4,14.4,33.7,22.4,54.1,22.4c20.4,0,39.6-8,54.1-22.4c14.4-14.4,22.4-33.7,22.4-54.1
	C-800.7,2596.4-808.6,2577.3-823.1,2562.9z M-881.7,2549.6v4.3c0,2.5,2,4.5,4.5,4.5s4.5-2,4.5-4.5v-4.3 M-872.7,2684.3v-4.3
	c0-2.5-2-4.5-4.5-4.5s-4.5,2-4.5,4.5v4.3"/>
<path fill="#88FFFFFF" d="M-880.7,2546.4c-17.3,1-33.5,8.2-45.9,20.6c-13.4,13.4-20.7,31.1-20.7,50c0,18.9,7.4,36.7,20.7,50
	c13.4,13.4,31.1,20.7,50,20.7c18.9,0,36.7-7.4,50-20.7c13.4-13.4,20.7-31.1,20.7-50c0-18.9-7.4-36.7-20.7-50
	c-12.4-12.4-28.5-19.6-45.9-20.6 M-880.7,2554.8v4c0,2.3,1.9,4.2,4.2,4.2s4.2-1.9,4.2-4.2v-4 M-872.4,2679.3v-4
	c0-2.3-1.9-4.2-4.2-4.2c-2.3,0-4.2,1.9-4.2,4.2v4"/>
</svg>
