<?xml version="1.0" encoding="utf-8"?>
<!-- Generator: Adobe Illustrator 19.0.0, SVG Export Plug-In . SVG Version: 6.00 Build 0)  -->
<svg version="1.1" xmlns="http://www.w3.org/2000/svg" xmlns:xlink="http://www.w3.org/1999/xlink" x="0px" y="0px"
	 viewBox="-55 147 500 500" style="enable-background:new -55 147 500 500;" xml:space="preserve">
<style type="text/css">
	.st0{fill:#BBBBBB;}
	.st1{fill:#62DA73;}
	
	#cloud {
		animation: cloud 2s linear infinite;
	}
	
	@keyframes cloud {
		0% {opacity:0;}
		50% {opacity:1;}
		100% {opacity:0;}
	}
	
	#loader {
		animation: loader 1s linear infinite;
		transform-origin: 50% 50%;
	}
	
	@keyframes loader {
		100% {
		transform: rotate(360deg);};
	}
	
	
</style>
<g id="cloud">
	<path class="st0" d="M59.9,500.1c-2.2,0-4.4-0.2-6.7-0.9C-10.3,481-54.7,421.9-54.7,355.6c0-82.4,67.1-149.5,149.3-149.5
		c40.7,0,79.3,16.7,107.3,45.6c11.3-26.9,37.8-45.6,68.4-45.6c40.9,0,74,33.3,74,74c0,9.1-1.8,18.2-4.9,26.4c2-0.2,4-0.2,6.2-0.2
		c54.7,0,99.1,44.4,99.1,99.1c0,38-22.2,73.3-56.7,89.5c-3.1,1.6-6.7,2.2-10,2.2L59.9,500.1C60.1,500.1,60.1,500.1,59.9,500.1z
		 M94.6,253.9c-56,0-101.5,45.6-101.5,101.5c0,44,28.9,83.3,70.4,96.7l308.4-2.2c15.3-9.1,25.1-26,25.1-44.2
		c0-28.4-23.1-51.3-51.3-51.3c-6,0-11.6,0.9-17.1,2.9c-15.8,5.6-33.3-0.2-42.7-14.2c-9.3-14-7.8-32.4,3.8-44.7
		c4.4-4.9,7.1-11.3,7.1-17.8c0-14.4-11.8-26.2-26.2-26.2c-13.8,0-25.3,10.9-26.2,24.7c-0.9,15.3-11.6,28.7-26.4,32.9
		c-14.9,4.2-30.9-1.6-39.8-14.2C158.8,270.1,127.7,253.9,94.6,253.9z"/>
	<path class="st0" d="M377.9,473.2c25.1-5.6,43.1-39.1,43.1-68c0-41.6-33.8-75.3-75.3-75.3c-8.7,0-17.1,1.3-25.1,4.2
		c-5.3,2-11.6-0.2-14.7-4.9c-3.1-4.9-2.7-11.1,1.3-15.3c8.7-9.3,13.3-21.3,13.3-34c0-27.8-22.4-50.2-50.2-50.2
		c-26.4,0-48.4,20.7-50,47.1c-0.2,5.3-4,9.8-9.1,11.3s-10.7-0.4-13.8-4.9c-23.6-33.6-62-53.6-102.9-53.6
		C25.5,229.7-31,285.9-31,355.2c0,55.8,50.7,115.3,87.3,120C92.9,479.9,352.8,479,377.9,473.2z"/>
	<circle class="st0" cx="154.4" cy="268.5" r="75.3"/>
	<circle class="st0" cx="319" cy="332.8" r="37.6"/>
</g>
<g id="loader">
	<path class="st1" d="M341.9,484.7c-4.9-4.9-12.9-4.9-17.8,0l-3.8,3.8v-7.3c0-55.3-45.1-100.4-100.4-100.4
		c-15.1,0-29.6,3.3-43.1,9.8c-6.2,2.9-8.9,10.4-6,16.7c2.9,6.3,10.4,8.9,16.7,6c10.2-4.9,20.9-7.3,32.2-7.3
		c41.6,0,75.3,33.8,75.3,75.3v7.3l-3.8-3.8c-4.9-4.9-12.9-4.9-17.8,0s-4.9,12.9,0,17.8l25.1,25.1c2.4,2.4,5.6,3.8,8.9,3.8
		s6.4-1.3,8.9-3.8l25.1-25.1C346.8,497.6,346.8,489.6,341.9,484.7L341.9,484.7z"/>
	<path class="st1" d="M269,555c-2.9-6.2-10.4-8.9-16.7-6c-10.2,4.9-20.9,7.3-32.2,7.3c-41.6,0-75.3-33.8-75.3-75.3v-7.4l3.8,3.8
		c2.4,2.4,5.6,3.8,8.9,3.8c3.1,0,6.4-1.3,8.9-3.8c4.9-4.9,4.9-12.9,0-17.8l-25.1-25.1c-4.9-4.9-12.9-4.9-17.8,0l-25.1,25.1
		c-4.9,4.9-4.9,12.9,0,17.8c4.9,4.9,12.9,4.9,17.8,0l3.8-3.8v7.3c0,55.3,45.1,100.4,100.4,100.4c15.1,0,29.6-3.3,43.1-9.8
		C269.5,568.7,272.1,561.2,269,555z"/>
</g>
</svg>
