<?xml version="1.0" encoding="utf-8"?>
<!-- Generator: Adobe Illustrator 19.0.0, SVG Export Plug-In . SVG Version: 6.00 Build 0)  -->
<svg version="1.1" id="Calque_1" xmlns="http://www.w3.org/2000/svg" xmlns:xlink="http://www.w3.org/1999/xlink" x="0px" y="0px"
	 viewBox="-524 886 150 150" style="enable-background:new -524 886 150 150;" xml:space="preserve">
<style type="text/css">
	.st0{fill:#A7A9AC;}
</style>
<path id="XMLID_1491_" class="st0" d="M-462.9,986.8c1.5-1.5,3.8-1.5,5.3,0l8.6,8.6v-32.2c0-2.1,1.7-3.8,3.8-3.8
	c2.1,0,3.8,1.7,3.8,3.8v32.2l8.6-8.6c1.5-1.5,3.8-1.5,5.3,0c1.5,1.5,1.5,3.8,0,5.3l-15,15c-0.7,0.7-1.7,1.1-2.7,1.1
	c-1,0-1.9-0.4-2.6-1.1l-15-15C-464.4,990.7-464.4,988.3-462.9,986.8L-462.9,986.8z"/>
<path id="XMLID_1489_" class="st0" d="M-404,1004.5h-18.8c-2.1,0-3.8-1.7-3.8-3.8s1.7-3.8,3.8-3.8h18.8c12.4,0,22.5-10.1,22.5-22.5
	c0-12.4-10.1-22.5-22.5-22.5c-2.7,0-5.2,0.5-7.7,1.3c-1.6,0.6-3.5,0-4.4-1.5c-1-1.5-0.8-3.4,0.4-4.6c2.7-2.8,4.2-6.5,4.2-10.3
	c0-8.3-6.7-15-15-15c-4.8,0-9.2,2.2-12.1,6.1c-1.7,2.3-2.7,5.1-2.9,7.9c-0.1,1.6-1.2,2.9-2.7,3.4c-1.5,0.4-3.2-0.2-4.1-1.4
	c-0.8-1.2-1.7-2.3-2.7-3.4c-7.1-8-17.3-12.6-28-12.6c-20.7,0-37.5,16.8-37.5,37.5c0,20.7,16.8,37.5,37.5,37.5h11.3
	c2.1,0,3.8,1.7,3.8,3.8c0,2.1-1.7,3.8-3.8,3.8H-479c-24.8,0-45-20.2-45-45c0-24.8,20.2-45,45-45c12,0,23.5,4.8,32,13.3
	c0.7-1.5,1.5-2.8,2.4-4.2c4.2-5.7,11-9.1,18.1-9.1c12.4,0,22.5,10.1,22.5,22.5c0,2.6-0.5,5.2-1.3,7.6c0.5,0,0.9,0,1.4,0
	c16.5,0,30,13.4,30,30C-374,991.1-387.4,1004.5-404,1004.5z"/>
</svg>
