<?xml version="1.0" encoding="utf-8"?>
<!-- Generator: Adobe Illustrator 19.0.0, SVG Export Plug-In . SVG Version: 6.00 Build 0)  -->
<svg version="1.1" id="Calque_1" xmlns="http://www.w3.org/2000/svg" xmlns:xlink="http://www.w3.org/1999/xlink" x="0px" y="0px"
	 viewBox="-35 41.7 28.4 24.3" style="enable-background:new -35 41.7 28.4 24.3;" xml:space="preserve">
<style type="text/css">
	.st0{fill:none;}
	.st1{fill:none;stroke:#CDCCCC;stroke-linecap:round;stroke-miterlimit:10;}
	.st2{fill:#CDCCCC;}
</style>
<line class="st0" x1="-20.6" y1="58.7" x2="-20.6" y2="63.4"/>
<path class="st1" d="M-30.8,65.1c-2.2-2.4-3.6-5.7-3.6-9.2c0-7.5,6.1-13.6,13.6-13.6s13.6,6.1,13.6,13.6c0,3.5-1.3,6.7-3.5,9.1"/>
<g>
	<g>
		<g>
			<path class="st2" d="M-14.4,59.2c-1.4,0-2.5-1.1-2.5-2.5c0-1.4,1.1-2.5,2.5-2.5s2.5,1.1,2.5,2.5C-11.9,58.1-13.1,59.2-14.4,59.2z
				 M-14.4,54.7c-1.1,0-2,0.9-2,2c0,1.1,0.9,2,2,2c1.1,0,2-0.9,2-2C-12.4,55.6-13.3,54.7-14.4,54.7z"/>
			<path class="st2" d="M-10.8,63.2H-18c-0.4,0-0.7-0.3-0.7-0.7c0,0,0-0.8,0.6-1.5c0.3-0.4,0.8-0.8,1.3-1c0.7-0.3,1.5-0.4,2.4-0.4
				s1.8,0.1,2.4,0.4c0.5,0.2,1,0.6,1.3,1c0.5,0.7,0.6,1.5,0.6,1.5C-10.1,62.9-10.4,63.2-10.8,63.2z M-14.4,60.1
				c-1.6,0-2.7,0.4-3.4,1.2c-0.5,0.6-0.5,1.2-0.5,1.2c0,0.1,0.1,0.2,0.2,0.2h7.2c0.1,0,0.2-0.1,0.2-0.2c0,0,0-0.6-0.5-1.2
				C-11.7,60.5-12.9,60.1-14.4,60.1z"/>
		</g>
		<g>
			<path class="st2" d="M-26.8,59.2c-1.4,0-2.5-1.1-2.5-2.5c0-1.4,1.1-2.5,2.5-2.5c1.4,0,2.5,1.1,2.5,2.5
				C-24.3,58.1-25.4,59.2-26.8,59.2z M-26.8,54.7c-1.1,0-2,0.9-2,2c0,1.1,0.9,2,2,2c1.1,0,2-0.9,2-2C-24.8,55.6-25.7,54.7-26.8,54.7
				z"/>
			<path class="st2" d="M-23.2,63.2h-7.2c-0.4,0-0.7-0.3-0.7-0.7c0,0,0-0.8,0.6-1.5c0.3-0.4,0.8-0.8,1.3-1c0.7-0.3,1.5-0.4,2.4-0.4
				c1,0,1.8,0.1,2.4,0.4c0.5,0.2,1,0.6,1.3,1c0.5,0.7,0.6,1.5,0.6,1.5C-22.5,62.9-22.8,63.2-23.2,63.2z M-26.8,60.1
				c-1.6,0-2.7,0.4-3.4,1.2c-0.5,0.6-0.5,1.2-0.5,1.2c0,0.1,0.1,0.2,0.2,0.2h7.2c0.1,0,0.2-0.1,0.2-0.2c0,0,0-0.6-0.5-1.2
				C-24.1,60.5-25.2,60.1-26.8,60.1z"/>
		</g>
	</g>
	<g>
		<path class="st2" d="M-20.6,48.7c-1.4,0-2.5-1.1-2.5-2.5c0-1.4,1.1-2.5,2.5-2.5c1.4,0,2.5,1.1,2.5,2.5
			C-18.1,47.6-19.2,48.7-20.6,48.7z M-20.6,44.2c-1.1,0-2,0.9-2,2c0,1.1,0.9,2,2,2c1.1,0,2-0.9,2-2C-18.6,45.1-19.5,44.2-20.6,44.2z
			"/>
		<path class="st2" d="M-17,52.7h-7.2c-0.4,0-0.7-0.3-0.7-0.7c0,0,0-0.8,0.6-1.5c0.3-0.4,0.8-0.8,1.3-1c0.7-0.3,1.5-0.4,2.4-0.4
			c1,0,1.8,0.1,2.4,0.4c0.5,0.2,1,0.6,1.3,1c0.5,0.7,0.6,1.5,0.6,1.5C-16.3,52.4-16.6,52.7-17,52.7z M-20.6,49.6
			c-1.6,0-2.7,0.4-3.4,1.2c-0.5,0.6-0.5,1.2-0.5,1.2c0,0.1,0.1,0.2,0.2,0.2h7.2c0.1,0,0.2-0.1,0.2-0.2c0,0,0-0.6-0.5-1.2
			C-17.9,50-19,49.6-20.6,49.6z"/>
	</g>
</g>
<rect x="-21" y="52.6" class="st2" width="0.7" height="5.1"/>
<g>
	
		<rect x="-19.4" y="56.3" transform="matrix(0.7071 -0.7071 0.7071 0.7071 -47.2267 3.7575)" class="st2" width="0.7" height="5.1"/>
	
		<rect x="-22.6" y="56.3" transform="matrix(0.7071 0.7071 -0.7071 0.7071 35.1307 32.9598)" class="st2" width="0.7" height="5.1"/>
</g>
</svg>
