<?xml version="1.0" encoding="utf-8"?>
<!-- Generator: Adobe Illustrator 19.0.0, SVG Export Plug-In . SVG Version: 6.00 Build 0)  -->
<svg version="1.1" xmlns="http://www.w3.org/2000/svg" xmlns:xlink="http://www.w3.org/1999/xlink" x="0px" y="0px"
	 viewBox="-205 297 200 200" style="enable-background:new -205 297 200 200;" xml:space="preserve">
		<path fill="none" stroke="#555555" stroke-width="6" d="M-30.6,395.4l-19.9-3.2c-6.9-1.1-13.3,2.4-16.5,7.9c-3.4-1.5-7.3-3-11.1-4.1l-0.6-11.8
			c-0.4-9-7.9-15.9-16.9-15.4l-20.1,0.9c-9,0.4-15.9,7.9-15.4,16.9l0.6,11.8c-3.9,1.3-7.3,3-10.7,4.9c-3.6-5.4-10.5-8.1-17.1-6.4
			l-19.5,4.9c-8.6,2.1-13.9,11.1-11.6,19.7l6,23.6c2.1,8.6,11.1,13.9,19.7,11.6l6.2-1.5c3.4,4.5,7.9,8.6,13.5,12
			c12,7.1,27.4,10.5,43.5,9.9c24.9-1.1,45.6-12,54.8-26.8l6.4,1.1c8.8,1.5,17.1-4.5,18.6-13.3l3.9-24
			C-15.9,405.3-21.9,396.9-30.6,395.4L-30.6,395.4z M-101.3,469.1c-14.6,0.6-28.5-2.4-39-8.6c-3.6-2.1-6.6-4.5-9-7.1l4.7-1.3
			c8.6-2.1,13.9-11.1,11.6-19.7l-5.4-21c2.6-1.5,5.1-2.8,8.1-4.1l0.2,3.9c0.4,8.8,7.9,15.9,16.9,15.4l20.1-0.9
			c8.8-0.4,15.9-7.9,15.4-16.9l-0.1-4c3,0.9,5.8,1.9,8.4,3.2l-3.6,21.9c-1.3,8.8,4.7,17.1,13.5,18.6l4.9,0.9
			C-63.4,459.9-80.8,468-101.3,469.1L-101.3,469.1z"/>
		<circle fill="none" stroke="#555555" stroke-width="6" cx="-108" cy="339.3" r="16.5"/>
		<circle fill="none" stroke="#555555" stroke-width="6" cx="-178" cy="377.8" r="16.5"/>
		<circle fill="none" stroke="#555555" stroke-width="6" cx="-35.3" cy="370.8" r="16.5"/>
</svg>
