<?xml version="1.0" encoding="utf-8"?>
<!-- Generator: Adobe Illustrator 19.0.0, SVG Export Plug-In . SVG Version: 6.00 Build 0)  -->
<svg version="1.1" id="Layer_1" xmlns="http://www.w3.org/2000/svg" xmlns:xlink="http://www.w3.org/1999/xlink" x="0px" y="0px"
	 viewBox="-67 190.9 460 460" style="enable-background:new -67 190.9 460 460;" xml:space="preserve">
<style type="text/css">
	.st0{fill:#D8D9DD;}
	.st1{opacity:0.3;fill:#5B5B5F;enable-background:new    ;}
	.st2{fill:#1081E0;}
	.st3{fill:#808083;}
	.st4{opacity:0.4;fill:#5B5B5F;enable-background:new    ;}
	.st5{fill:#2078C2;}
</style>
<path class="st0" d="M273.7,342.3l-182,60.8l18,54.9l140.1-46.8c12.2-4.1,153.3-49.1,134.7-105.9L273.7,342.3z"/>
<path class="st1" d="M-54.8,482.1c5.9,17.9,18.3,32.3,35.1,40.7c16.8,8.5,36,9.8,53.9,3.8c27-9,45-32.9,47.9-59.5l27.7-9.3l0,0
	l140-46.8c12.2-4.1,153.3-49.1,134.7-105.9l-110.8,37l-182,60.8l0,0l-27.4,9.2c-1.6-1.8-3.3-3.5-5.2-5.1c-4.5-4-9.7-7.5-15.2-10.3
	C27.1,388.4,8,387-10,393C-46.8,405.3-66.9,445.3-54.8,482.1z M2,428.8c8.3-2.8,17.2-2.2,25,1.8c7.7,3.9,13.5,10.6,16.2,18.8
	c5.6,17.2-3.8,35.8-21,41.6c-8.3,2.8-17.2,2.2-25-1.8c-2.6-1.3-4.9-2.9-7-4.8c-4.2-3.7-7.4-8.6-9.2-14.1
	C-24.6,453.2-15.2,434.5,2,428.8z"/>
<path class="st2" d="M138.4,483.4l-6,28.6c-26.1,6-47.7,26.7-53.5,54.5C75,585,78.6,603.8,89,619.6c10.3,15.7,26.1,26.4,44.6,30.1
	c38,7.7,75.3-16.9,83.3-54.9c3.9-18.5,0.3-37.3-10.1-53.1c-3.4-5.2-7.5-9.9-12-13.9c-1.8-1.6-3.7-3.1-5.7-4.5l5.9-28.4L138.4,483.4z
	 M175.2,562.5c4.8,7.3,6.4,16,4.7,24.6c-3.7,17.8-21.1,29.3-38.8,25.7c-5.7-1.2-10.8-3.7-15-7.5c-2.1-1.9-4-4-5.5-6.4
	c-4.8-7.3-6.4-16-4.7-24.6c3.7-17.8,21.1-29.3,38.8-25.7C163.2,550.3,170.5,555.2,175.2,562.5z"/>
<path class="st0" d="M234.2,307.1L195,495l-56.6-11.5l30.2-144.6c2.6-12.6,31-158,89.6-146.1L234.2,307.1z"/>
<ellipse transform="matrix(-0.6647 0.7471 -0.7471 -0.6647 604.9644 535.0427)" class="st3" cx="182.4" cy="403.3" rx="17.9" ry="17.8"/>
<polygon class="st4" points="171.7,401.6 172,406.3 180.2,405.8 180.7,414 185.4,413.7 184.9,405.5 193.2,405 192.9,400.3 
	184.7,400.8 184.2,392.5 179.5,392.8 179.9,401.1 "/>
<path class="st5" d="M-54.8,482.1c5.9,17.9,18.3,32.3,35.1,40.7c16.8,8.5,36,9.8,53.9,3.8c27-9,45-32.9,47.9-59.5l27.7-9.3l-18-54.9
	l-27.5,9.2c-1.6-1.8-3.3-3.5-5.2-5.1c-4.5-4-9.7-7.5-15.2-10.3C27.1,388.4,8,387-10,393C-46.8,405.3-66.9,445.3-54.8,482.1z
	 M2,428.8c8.3-2.8,17.2-2.2,25,1.8c7.7,3.9,13.5,10.6,16.2,18.8c5.6,17.2-3.8,35.8-21,41.6c-8.3,2.8-17.2,2.2-25-1.8
	c-2.6-1.3-4.9-2.9-7-4.8c-4.2-3.7-7.4-8.6-9.2-14.1C-24.6,453.2-15.2,434.5,2,428.8z"/>
</svg>
