<?xml version="1.0" encoding="utf-8"?>
<!-- Generator: Adobe Illustrator 19.0.0, SVG Export Plug-In . SVG Version: 6.00 Build 0)  -->
<svg version="1.1" id="Calque_1" xmlns="http://www.w3.org/2000/svg" xmlns:xlink="http://www.w3.org/1999/xlink" x="0px" y="0px"
	 viewBox="0 0 283.5 283.5" style="enable-background:new 0 0 283.5 283.5;" xml:space="preserve">
<style type="text/css">
	.st0{fill:#74C26F;}
	.st1{fill:#FFFFFF;}
</style>
<circle id="XMLID_27_" class="st0" cx="141.7" cy="141.7" r="141.7"/>
<g id="XMLID_29_">
	<path id="XMLID_30_" class="st1" d="M185.1,210.3H97.2v-10.8c0-4.4,0.6-8.6,1.9-12.5c1.2-3.9,2.9-7.5,5-10.9
		c2.1-3.4,4.5-6.6,7.3-9.7c2.8-3,5.8-6,9-8.8c3.2-2.8,6.4-5.6,9.8-8.2s6.6-5.3,9.8-8c3-2.5,5.7-5,8.2-7.5c2.5-2.4,4.6-5,6.3-7.6
		c1.8-2.6,3.1-5.4,4.1-8.3c1-2.9,1.5-6,1.5-9.4c0-3.7-0.6-6.9-1.7-9.7c-1.1-2.8-2.7-5.1-4.8-6.9s-4.5-3.3-7.3-4.2
		c-2.8-0.9-5.9-1.4-9.2-1.4c-5.7,0-11.6,1.3-17.5,4c-5.9,2.7-11.6,6.7-17.1,12V80.7c2.9-2.1,5.8-4,8.7-5.6c2.9-1.6,6-2.9,9.1-4
		s6.4-1.9,9.9-2.4c3.5-0.5,7.1-0.8,11-0.8c6.3,0,12,0.8,17.2,2.5c5.1,1.7,9.5,4.1,13.2,7.3c3.6,3.2,6.5,7.2,8.4,12.1
		c2,4.8,3,10.4,3,16.6c0,5.7-0.7,10.8-2.1,15.3c-1.4,4.5-3.4,8.7-6,12.6c-2.6,3.9-5.7,7.6-9.3,11.1c-3.6,3.5-7.7,7.1-12.2,10.8
		c-3.8,3.1-7.5,6-11.3,8.9c-3.7,2.9-7.1,5.7-10.1,8.5c-3,2.8-5.4,5.5-7.3,8.3c-1.9,2.8-2.8,5.6-2.8,8.3v0.5h63.2V210.3z"/>
</g>
</svg>
