<?xml version="1.0" encoding="utf-8"?>
<!-- Generator: Adobe Illustrator 19.0.0, SVG Export Plug-In . SVG Version: 6.00 Build 0)  -->
<svg version="1.1" id="Calque_1" xmlns="http://www.w3.org/2000/svg" xmlns:xlink="http://www.w3.org/1999/xlink" x="0px" y="0px"
	 viewBox="0 0 283.5 283.5" style="enable-background:new 0 0 283.5 283.5;" xml:space="preserve">
<style type="text/css">
	.st0{fill:#74C26F;}
	.st1{fill:#FFFFFF;}
</style>
<circle id="XMLID_27_" class="st0" cx="141.7" cy="141.7" r="141.7"/>
<g id="XMLID_29_">
	<path id="XMLID_30_" class="st1" d="M140.2,214.2c-14.6,0-26-6-34.1-17.9c-8.2-11.9-12.3-29.1-12.3-51.7c0-24.7,4.3-43.5,12.8-56.2
		c8.5-12.7,20.8-19,36.9-19c30.8,0,46.2,23.9,46.2,71.8c0,23.7-4.3,41.8-13,54.2C168,207.9,155.8,214.2,140.2,214.2z M142.4,87.5
		c-17,0-25.5,18.7-25.5,56.2c0,35,8.3,52.5,25,52.5c16.4,0,24.6-17.8,24.6-53.4C166.5,105.9,158.5,87.5,142.4,87.5z"/>
</g>
</svg>
