<?xml version="1.0" encoding="iso-8859-1"?>
<!-- Generator: Adobe Illustrator 19.0.0, SVG Export Plug-In . SVG Version: 6.00 Build 0)  -->
<svg version="1.1" id="Layer_1" xmlns="http://www.w3.org/2000/svg" xmlns:xlink="http://www.w3.org/1999/xlink" x="0px" y="0px"
	 viewBox="0 0 512 512" style="enable-background:new 0 0 512 512;" xml:space="preserve">
<circle style="fill:#da2e2e;" cx="256" cy="256" r="256"/>
<path style="fill:#b82525;" d="M510.39,284.694L309.405,84.256l-81.563,232.655l-52.607,104.8l90.307,90.095
	C392.888,507.135,496.471,409.466,510.39,284.694z"/>
<path style="fill:#324A5E;" d="M301.397,137.912h-90.793c-6.347,0-11.492-5.146-11.492-11.492V92.517
	c0-6.347,5.146-11.493,11.492-11.493h90.793c6.347,0,11.493,5.146,11.493,11.493v33.904
	C312.889,132.767,307.743,137.912,301.397,137.912z"/>
<path style="fill:#2B3B4E;" d="M301.397,81.024h-44.822v56.889h44.822c6.347,0,11.493-5.146,11.493-11.493V92.517
	C312.889,86.169,307.743,81.024,301.397,81.024z"/>
<path style="fill:#E6F3FF;" d="M325.101,426.667h-138.2c-8.966,0-16.232-7.268-16.232-16.234V130.012
	c0-8.966,7.268-16.232,16.232-16.232h138.2c8.966,0,16.234,7.268,16.234,16.232v280.423
	C341.333,419.399,334.065,426.667,325.101,426.667z"/>
<path style="fill:#CFDBE6;" d="M325.101,113.778h-68.525v312.889h68.525c8.966,0,16.234-7.268,16.234-16.234V130.012
	C341.333,121.046,334.065,113.778,325.101,113.778z"/>
<path style="fill:#FC6F58;" d="M317.99,410.29H194.012c-5.037,0-9.121-4.084-9.121-9.123v-38.645c0-5.037,4.084-9.123,9.121-9.123
	H317.99c5.037,0,9.123,4.084,9.123,9.123v38.645C327.111,406.206,323.027,410.29,317.99,410.29z"/>
<path style="fill:#F1543F;" d="M317.99,353.401h-61.414v56.889h61.414c5.037,0,9.123-4.084,9.123-9.123v-38.645
	C327.111,357.485,323.027,353.401,317.99,353.401z"/>
<path style="fill:#F9B54C;" d="M248.806,317.202c-1.96,0-3.949-0.448-5.818-1.393c-6.373-3.219-8.932-10.995-5.711-17.368
	l19.258-38.131h-22.083c-4.489,0-8.657-2.331-11.012-6.154c-2.353-3.824-2.553-8.595-0.529-12.603l28.732-56.889
	c3.217-6.373,10.997-8.933,17.368-5.711c6.373,3.219,8.932,10.995,5.711,17.368l-19.256,38.131h22.083
	c4.489,0,8.657,2.331,11.012,6.154c2.353,3.824,2.553,8.595,0.529,12.603l-28.732,56.889
	C258.082,314.602,253.53,317.2,248.806,317.202z"/>
<g>
	<path style="fill:#F4A200;" d="M274.723,196.32c3.219-6.373,0.662-14.15-5.711-17.368c-4.094-2.069-8.764-1.741-12.438,0.44v52.865
		L274.723,196.32z"/>
	<path style="fill:#F4A200;" d="M288.561,240.606c-2.353-3.825-6.522-6.154-11.012-6.154h-20.975v80.136
		c1.539-1.155,2.857-2.655,3.782-4.489l28.732-56.889C291.114,249.203,290.914,244.429,288.561,240.606z"/>
</g>
<g>
</g>
<g>
</g>
<g>
</g>
<g>
</g>
<g>
</g>
<g>
</g>
<g>
</g>
<g>
</g>
<g>
</g>
<g>
</g>
<g>
</g>
<g>
</g>
<g>
</g>
<g>
</g>
<g>
</g>
</svg>
