<?xml version="1.0" encoding="utf-8"?>
<!-- Generator: Adobe Illustrator 19.0.0, SVG Export Plug-In . SVG Version: 6.00 Build 0)  -->
<svg version="1.1" xmlns="http://www.w3.org/2000/svg" xmlns:xlink="http://www.w3.org/1999/xlink" x="0px" y="0px"
	 viewBox="0 0 200 200" enable-background="new 0 0 200 200" xml:space="preserve">
<path fill="#F15A24" d="M188.315,172.248l-76.849-68.297l76.849-68.297c3.882-3.449,4.23-9.399,0.791-13.298
	c-3.439-3.901-9.399-4.24-13.298-0.791L97.302,91.352L18.796,21.565c-3.88-3.449-9.83-3.11-13.298,0.791
	c-3.468,3.899-3.109,9.83,0.791,13.298l76.849,68.297L6.289,172.248c-3.882,3.439-4.24,9.399-0.791,13.298
	c1.867,2.098,4.441,3.164,7.044,3.164c2.226,0,4.46-0.791,6.253-2.373l78.506-69.787l78.506,69.787
	c1.803,1.601,4.027,2.373,6.253,2.373c2.612,0,5.187-1.066,7.044-3.164C192.545,181.666,192.215,175.723,188.315,172.248z"/>
</svg>
