<!DOCTYPE svg PUBLIC "-//W3C//DTD SVG 1.1//EN" "http://www.w3.org/Graphics/SVG/1.1/DTD/svg11.dtd" [
	<!ENTITY ns_flows "http://ns.adobe.com/Flows/1.0/">
]><svg xmlns="http://www.w3.org/2000/svg" width="149" height="166" viewBox="-0.122 0 149 166" overflow="visible"><path fill-rule="evenodd" clip-rule="evenodd" fill="#FFF" d="M82.985 9.494l25.256 14.582 24.373 14.07c6.954 4.164 9.404 7.562 9.43 15.313v57.304c-.127 8.104-1.847 11.925-8.546 15.822l-25.256 14.582-24.37 14.072c-7.083 3.94-11.25 4.362-17.977.51l-25.255-14.582-24.372-14.07c-6.955-4.163-9.404-7.563-9.43-15.313V54.48c.126-8.104 1.846-11.925 8.546-15.824l25.256-14.58L65.01 10.003c7.08-3.942 11.25-4.362 17.975-.51z"/><path fill="#EBECEC" d="M86.403 3.592l25.257 14.582 24.37 14.07.08.054c4.402 2.635 7.46 5.155 9.583 8.5 2.217 3.494 3.14 7.405 3.16 12.66h.025v57.307l-.026.107c-.08 5.103-.737 9.003-2.582 12.533-1.937 3.704-4.853 6.466-9.356 9.084h-.026l-25.255 14.582L87.26 161.14l-.08.053c-4.46 2.483-8.174 3.865-12.167 4.032-4.165.176-8.003-.967-12.51-3.548l-.028-.028L37.22 147.07 12.848 133l-.08-.054c-4.402-2.635-7.46-5.156-9.583-8.5-2.218-3.493-3.14-7.405-3.158-12.66H0V54.48l.026-.106c.08-5.103.737-9.002 2.583-12.533 1.934-3.704 4.85-6.464 9.353-9.085h.026l25.255-14.58L61.618 4.102l.08-.053C66.158 1.567 69.87.185 73.864.018c4.165-.176 8.005.967 12.513 3.548l.026.026zm18.42 26.385L79.598 15.414l-.005.008c-2.217-1.27-3.826-1.844-5.195-1.786-1.544.065-3.457.865-6.077 2.323l-.003-.007-24.29 14.024-25.234 14.57.006.01c-2.198 1.28-3.492 2.378-4.122 3.585-.712 1.363-.98 3.394-1.033 6.337h.025v57.303h-.026c.008 2.495.322 4.16 1.075 5.344.835 1.32 2.455 2.567 4.96 4.07l.002-.002 24.372 14.07L69.28 149.83l.004-.008c2.217 1.27 3.827 1.844 5.196 1.785 1.544-.064 3.457-.863 6.08-2.322v.005l24.29-14.023 25.235-14.568-.007-.013c2.196-1.278 3.49-2.378 4.12-3.585.714-1.363.98-3.394 1.033-6.338h-.023V53.46h.025c-.008-2.496-.322-4.16-1.074-5.344-.837-1.32-2.457-2.566-4.96-4.072l-.003.004-24.372-14.07z"/><path fill-rule="evenodd" clip-rule="evenodd" fill="#FFF" d="M82.985 9.494l25.256 14.582 24.373 14.07c6.954 4.164 9.404 7.562 9.43 15.313v57.304c-.127 8.104-1.847 11.925-8.546 15.822l-25.256 14.582-24.37 14.072c-7.083 3.94-11.25 4.362-17.977.51l-25.255-14.582-24.372-14.07c-6.955-4.163-9.404-7.563-9.43-15.313V54.48c.126-8.104 1.846-11.925 8.546-15.824l25.256-14.58L65.01 10.003c7.08-3.942 11.25-4.362 17.975-.51z"/><path fill="#A2A3A3" d="M83.554 8.51l25.257 14.582 24.373 14.07.013.01c3.63 2.173 6.1 4.17 7.69 6.674 1.607 2.53 2.277 5.508 2.29 9.612h.006v57.305l-.005.018c-.065 4.23-.56 7.364-1.937 9.997-1.393 2.664-3.632 4.732-7.174 6.792h-.006l-25.255 14.582-24.372 14.07-.013.01c-3.695 2.057-6.657 3.195-9.63 3.32-3 .126-5.91-.78-9.463-2.815l-.005-.003-25.256-14.582-24.37-14.072-.014-.008c-3.632-2.174-6.1-4.17-7.69-6.676-1.608-2.532-2.277-5.506-2.292-9.612h-.004V54.48l.004-.018c.066-4.227.56-7.362 1.938-9.996 1.39-2.664 3.63-4.732 7.172-6.794h.005l25.256-14.58L64.445 9.02l.013-.01c3.694-2.057 6.657-3.195 9.63-3.32 3-.127 5.91.78 9.463 2.813l.004.005zm24.116 16.55L82.42 10.48c-3.172-1.816-5.71-2.626-8.245-2.52-2.564.107-5.227 1.15-8.614 3.035L41.202 25.06 15.95 39.64c-3.158 1.838-5.126 3.63-6.3 5.877-1.188 2.27-1.618 5.095-1.68 8.963h.004v57.304H7.97c.013 3.646.58 6.246 1.944 8.393 1.376 2.17 3.606 3.952 6.92 5.937l24.373 14.07 25.25 14.58c3.173 1.816 5.71 2.626 8.245 2.52 2.565-.11 5.227-1.15 8.614-3.036h.002l24.358-14.062 25.25-14.58v-.002c3.158-1.837 5.128-3.628 6.302-5.875 1.188-2.273 1.617-5.097 1.68-8.965h-.004V53.46h.004c-.013-3.646-.58-6.247-1.943-8.394-1.377-2.167-3.604-3.95-6.92-5.937L107.67 25.06z"/><path fill-rule="evenodd" clip-rule="evenodd" fill="#FFF" d="M74.438 2.783c13.884 0 25.246 11.36 25.246 25.246v44.696l8.98 5.185L133.34 92.16c6.02 3.603 8.703 5.84 8.703 12.77v5.837c-.127 8.104-1.847 11.925-8.546 15.822L108.24 141.17l-24.37 14.07c-1.55.86-2.96 1.555-4.287 2.072-.075.03-.15.058-.223.085-3.414 1.277-6.308 1.378-9.66.17-1.194-.435-2.45-1.04-3.808-1.817l-25.255-14.582-24.372-14.07c-6.955-4.163-9.404-7.563-9.43-15.313v-6.205c0-6.74 1.61-9.3 7.808-12.904l25.57-14.764 8.98-5.184v-44.7c.002-13.883 11.362-25.245 25.245-25.245z"/><path fill="#A2A3A3" d="M74.438 1.645c7.257 0 13.853 2.968 18.635 7.75 4.78 4.78 7.75 11.377 7.75 18.634V72.07l8.41 4.855c.02.012.04.024.058.037l24.613 14.21.018.01h.002c3.12 1.868 5.39 3.396 6.93 5.426 1.584 2.087 2.33 4.588 2.33 8.318v5.836c0 .04-.003.082-.006.122-.073 4.174-.57 7.28-1.936 9.892-1.393 2.664-3.632 4.732-7.174 6.792-.02.013-.044.024-.064.036l-25.196 14.547-24.372 14.07-.014.01c-.802.446-1.56.846-2.284 1.197-.73.354-1.44.668-2.145.94l-.004.004v.002l-.013.006c-.022.01-.045.016-.067.023l-.15.057c-1.824.682-3.523 1.05-5.228 1.087-1.71.036-3.4-.263-5.21-.914h-.003c-.624-.228-1.27-.502-1.945-.825-.687-.327-1.365-.686-2.04-1.072-.02-.01-.037-.02-.055-.032l-25.207-14.553-24.372-14.073c-.02-.01-.037-.02-.056-.033-3.608-2.163-6.065-4.154-7.65-6.65-1.606-2.532-2.275-5.506-2.29-9.612h-.004v-6.205c0-3.58.446-6.08 1.75-8.22 1.29-2.118 3.363-3.77 6.627-5.67.022-.01.043-.022.065-.033l25.512-14.73 8.406-4.852V28.03c0-7.258 2.968-13.854 7.75-18.636 4.78-4.782 11.377-7.75 18.632-7.75zm17.024 9.36c-4.37-4.37-10.396-7.083-17.024-7.083-6.627 0-12.654 2.713-17.023 7.083-4.37 4.37-7.08 10.396-7.08 17.024v44.697h-.005c0 .392-.206.773-.57.983l-8.98 5.184L15.274 93.62c-.02.014-.04.025-.06.038-2.932 1.704-4.763 3.14-5.828 4.885-1.05 1.727-1.41 3.876-1.41 7.036v6.204H7.97c.013 3.646.58 6.246 1.944 8.393 1.373 2.162 3.594 3.942 6.896 5.922l.025.014 24.372 14.07 25.204 14.553c.017.008.033.017.048.026.683.39 1.312.725 1.89 1 .59.284 1.168.528 1.74.736 1.54.556 2.97.81 4.396.78 1.434-.03 2.89-.352 4.48-.945l.126-.05.074-.03.014-.006v.002c.624-.243 1.278-.534 1.97-.87.702-.34 1.422-.72 2.168-1.135h.002l24.358-14.062 25.192-14.544.058-.037c3.158-1.837 5.128-3.628 6.302-5.875 1.18-2.256 1.612-5.057 1.678-8.884l-.002-.08v-5.836c0-3.198-.597-5.283-1.86-6.947-1.304-1.72-3.39-3.113-6.288-4.848h.002l-24.6-14.203c-.02-.01-.042-.023-.064-.036l-8.907-5.142c-.38-.185-.64-.575-.64-1.026V28.03c-.002-6.63-2.714-12.656-7.085-17.025z"/><path fill-rule="evenodd" clip-rule="evenodd" fill="#FFF" d="M83.688 155.34c-1.478.816-2.83 1.477-4.105 1.973-.075.03-.15.058-.223.085-3.414 1.277-6.308 1.378-9.66.17-1.194-.435-2.45-1.04-3.808-1.817l-.703-.406v-6.287c0-8.074-3.813-11.858-9.673-16.934l37.802.042c-5.805 5.802-9.633 8.433-9.633 17.062v6.113z"/><path fill="#A2A3A3" d="M84.176 156.37c-.727.398-1.432.766-2.122 1.1-.702.338-1.387.64-2.062.9l-.005.004v.002l-.222.086c-.03.012-.06.02-.09.03-1.794.662-3.467 1.02-5.147 1.057-1.708.036-3.4-.263-5.21-.914h-.003c-.624-.228-1.27-.502-1.945-.825-.687-.327-1.365-.686-2.04-1.072-.02-.01-.037-.02-.054-.032l-.655-.38c-.363-.21-.565-.59-.566-.982h-.004v-6.287c0-3.795-.886-6.566-2.45-8.973-1.607-2.467-3.965-4.623-6.825-7.103-.475-.41-.527-1.127-.116-1.6.234-.274.57-.406.905-.393l37.755.042c.626 0 1.135.508 1.135 1.134 0 .315-.128.6-.335.805h.002c-.674.673-1.304 1.287-1.904 1.873-4.515 4.404-7.39 7.208-7.39 14.383v6.114c0 .453-.267.847-.652 1.03zm-3.11-.947c.474-.23.968-.482 1.483-.758v-5.44c0-8.08 3.108-11.158 7.998-15.93l-32.03-.035c1.996 1.827 3.685 3.587 4.985 5.586 1.805 2.773 2.826 5.93 2.826 10.21v5.634l.08.048.048.025c.683.39 1.312.725 1.89 1 .59.284 1.17.528 1.74.736 1.54.556 2.97.81 4.396.78 1.41-.03 2.843-.342 4.4-.917.023-.01.047-.02.07-.028l.224-.086v.002c.598-.232 1.226-.51 1.887-.83z"/><path fill="#A2A3A3" d="M77.667 27.08l7.872 4.546h.004l7.596 4.386v.002c1.254.724 2.11 1.424 2.682 2.33.588.935.826 2 .826 3.424v21.96c0 3.21-.106 5.32-1.002 7.163-.904 1.862-2.525 3.27-5.528 5l-4.578 2.645-4.292 2.478c-2.59 1.495-4.635 2.26-6.672 2.313-2.06.053-4.008-.618-6.39-1.993l-4.847-2.798h-.006l-4.573-2.64.002-.002c-2.443-1.41-4.06-2.685-5.096-4.44-1.04-1.76-1.437-3.894-1.437-7.013V42.086c0-1.444.177-2.537.68-3.49.51-.97 1.314-1.708 2.556-2.425l7.873-4.544 7.59-4.384v-.002c1.254-.723 2.29-1.116 3.368-1.157 1.093-.04 2.132.283 3.37.998zm6.74 6.51l-7.868-4.542c-.855-.493-1.526-.72-2.162-.695-.654.024-1.374.316-2.308.854h-.005l-7.596 4.386-7.873 4.545c-.85.49-1.38.955-1.675 1.517-.307.58-.414 1.35-.414 2.43V64.44c0 2.7.31 4.49 1.116 5.855.807 1.368 2.172 2.42 4.27 3.633h.006l4.573 2.64v.002l4.843 2.796c2.014 1.162 3.61 1.73 5.206 1.69 1.616-.043 3.337-.708 5.594-2.01l4.293-2.48 4.576-2.643c2.576-1.485 3.933-2.62 4.612-4.02.688-1.417.77-3.286.77-6.175V41.768c0-.99-.136-1.68-.47-2.213-.352-.56-.964-1.038-1.895-1.575H92L84.4 33.594l.004-.003z"/><path fill="#A2A3A3" d="M119.14 111.79c0 .627-.508 1.135-1.135 1.135-.626 0-1.135-.508-1.135-1.136l-.047-18.772c-.007-2.944-.56-5.525-1.734-7.732-1.17-2.19-2.97-4.04-5.494-5.54-.54-.32-.72-1.018-.4-1.558.32-.54 1.018-.72 1.558-.4 2.892 1.72 4.973 3.866 6.34 6.43 1.356 2.547 1.99 5.483 2 8.8l.046 18.77z"/><path fill-rule="evenodd" clip-rule="evenodd" fill="#FFF" d="M75.608 102.666l3.456 1.994 3.334 1.925c.952.57 1.287 1.035 1.29 2.096v7.84c-.018 1.11-.252 1.632-1.168 2.165l-3.456 1.995-3.334 1.926c-.97.54-1.54.597-2.46.068l-3.456-1.994-3.334-1.925c-.95-.57-1.286-1.034-1.29-2.096v-7.84c.017-1.11.252-1.632 1.168-2.165l3.456-1.995 3.334-1.926c.97-.54 1.54-.596 2.46-.068z"/><path fill="#00B5E1" d="M76.178 101.682l3.455 1.995 3.335 1.925.013.01c.632.377 1.07.74 1.38 1.228.325.512.46 1.082.463 1.842h.004v7.84l-.004.02c-.01.728-.107 1.29-.376 1.804-.285.543-.708.946-1.358 1.324l-3.456 1.995h-.004l-3.335 1.927-.014.008c-.636.355-1.17.553-1.753.578-.612.025-1.17-.14-1.822-.513v-.005l-3.455-1.995h-.005l-3.333-1.924-.013-.01c-.63-.376-1.07-.74-1.38-1.228-.325-.512-.46-1.082-.464-1.842h-.006v-7.84l.004-.02c.01-.728.108-1.29.376-1.803.285-.544.708-.946 1.358-1.325h.004l3.452-1.994 3.335-1.928.016-.008c.638-.355 1.173-.554 1.757-.577.61-.025 1.17.14 1.82.512l.005.005zm2.317 3.962l-3.45-1.992v.002c-.27-.154-.458-.225-.603-.218-.172.006-.403.104-.723.282l-3.336 1.926h-.005l-3.452 1.993v.002c-.264.154-.418.28-.485.407-.08.153-.11.402-.117.772h.004v7.84h-.005c0 .3.035.493.116.62.096.15.295.304.61.492l3.334 1.924v.002l3.45 1.99h.002c.27.152.456.223.602.218.175-.008.41-.11.742-.293l3.317-1.915v-.002l3.454-1.995c.267-.153.42-.28.486-.407.08-.153.112-.402.118-.772h-.004v-7.84h.004c0-.3-.034-.495-.116-.62-.095-.15-.294-.303-.607-.492l-3.335-1.924z"/><path fill-rule="evenodd" clip-rule="evenodd" fill="#FFF" d="M74.438 109.132c1.955 0 3.54 1.584 3.54 3.538s-1.585 3.538-3.54 3.538c-1.953 0-3.538-1.584-3.538-3.538s1.586-3.538 3.538-3.538z"/><path fill="#00B5E1" d="M74.438 107.992c1.292 0 2.46.524 3.307 1.37l-.002.004c.848.848 1.373 2.017 1.373 3.304 0 1.29-.524 2.462-1.37 3.308-.847.847-2.016 1.37-3.308 1.37-1.29 0-2.46-.523-3.307-1.37-.845-.846-1.37-2.017-1.37-3.308 0-1.287.526-2.456 1.374-3.304l-.002-.003c.847-.846 2.016-1.37 3.306-1.37zm1.697 2.983c-.434-.435-1.034-.704-1.697-.704-.662 0-1.26.27-1.695.705h-.004c-.432.43-.7 1.03-.7 1.695 0 .662.27 1.262.703 1.695.434.435 1.034.704 1.695.704.663 0 1.263-.27 1.697-.705.434-.434.702-1.033.702-1.695 0-.665-.268-1.266-.698-1.695h-.005z"/><path fill-rule="evenodd" clip-rule="evenodd" fill="#FFF" d="M87.37 91.766c7.8 4.483 13.055 12.9 13.055 22.546 0 14.35-11.634 25.984-25.986 25.984s-25.986-11.635-25.986-25.984c0-9.646 5.254-18.062 13.056-22.546v26.482c.005 1.482.474 2.132 1.804 2.928l4.66 2.69 4.83 2.79c1.287.736 2.085.656 3.44-.098l4.66-2.69 4.83-2.79c1.28-.746 1.61-1.476 1.635-3.025V91.766z"/><path fill="#A2A3A3" d="M88.03 90.837c4.103 2.38 7.52 5.802 9.895 9.9 2.314 3.996 3.64 8.633 3.64 13.574 0 7.49-3.037 14.272-7.946 19.18-4.91 4.91-11.69 7.945-19.18 7.945s-14.272-3.036-19.18-7.945c-4.91-4.908-7.945-11.69-7.945-19.18 0-4.94 1.324-9.577 3.638-13.572 2.392-4.133 5.847-7.574 9.992-9.956.542-.312 1.236-.125 1.548.417.103.18.152.373.152.565h.003v26.481h-.003c0 .512.07.856.23 1.11.176.277.505.532 1.007.835l4.662 2.69.06.036 4.763 2.75h.002c.45.257.788.374 1.083.36.323-.012.706-.17 1.22-.455l4.66-2.69 4.83-2.79c.45-.26.717-.49.854-.752.15-.287.206-.7.217-1.29h-.005V91.767c0-.63.51-1.14 1.14-1.14.245 0 .474.078.66.21zm7.928 11.04c-1.856-3.208-4.41-5.962-7.45-8.054v24.23h-.005v.02c-.014.947-.135 1.672-.475 2.32-.354.677-.892 1.185-1.724 1.67l-4.83 2.788-4.662 2.692-.018.01c-.83.46-1.52.72-2.25.75-.763.032-1.47-.18-2.304-.658l.002-.003h-.002l-4.77-2.754c-.022-.012-.044-.022-.065-.035l-4.662-2.69-.014-.01c-.82-.488-1.387-.956-1.778-1.57-.405-.64-.575-1.36-.578-2.33h-.004V93.822c-3.04 2.092-5.593 4.846-7.45 8.055-2.117 3.652-3.327 7.9-3.327 12.434 0 6.86 2.78 13.07 7.276 17.567 4.495 4.495 10.707 7.277 17.568 7.277 6.862 0 13.074-2.782 17.57-7.278s7.276-10.708 7.276-17.568c0-4.535-1.21-8.782-3.326-12.434z"/><path fill="#A2A3A3" d="M70.81 64.622c-.54-.314-.727-1.01-.413-1.553.314-.544 1.01-.73 1.554-.415.928.536 1.643.824 2.292.85.632.023 1.295-.2 2.143-.69.544-.313 1.238-.126 1.55.417.312.543.124 1.236-.418 1.55-1.23.71-2.267 1.033-3.354.99-1.074-.04-2.104-.43-3.352-1.15z"/><path fill="#A2A3A3" d="M77.34 65.906l3.142 1.813c.02.01.04.023.06.037 1.49.862 2.413 1.464 3.028 2.36.653.95.853 2.034.853 3.81v4.295c0 .46-.273.857-.668 1.037l-2.917 1.683c-2.536 1.465-4.54 2.213-6.538 2.266-2.022.052-3.933-.605-6.267-1.953l-3.553-2.05c-.363-.212-.567-.593-.567-.984h-.003V73.6h.005c0-2.432 0-3.608 3.716-5.754l.066-.034 3.03-1.75c1.23-.71 2.246-1.095 3.3-1.135 1.076-.04 2.097.278 3.312.98h.004zm2.003 3.78L76.2 67.875h.002c-.83-.48-1.48-.7-2.096-.676-.638.024-1.34.307-2.25.833l-3.027 1.75c-.02.01-.04.023-.06.036-2.586 1.493-2.586 2.24-2.585 3.787h.004V77.57l2.982 1.723c1.966 1.135 3.52 1.69 5.075 1.65 1.576-.04 3.257-.69 5.46-1.963l2.438-1.406V73.93c0-1.297-.104-2.026-.444-2.52-.36-.527-1.088-.99-2.29-1.685l-.067-.038z"/><path fill="#A2A3A3" d="M73.027 74.59c0-.63.51-1.14 1.14-1.14.628 0 1.14.51 1.14 1.14v6.352c0 .63-.512 1.14-1.14 1.14-.63 0-1.14-.51-1.14-1.14V74.59z"/><path fill-rule="evenodd" clip-rule="evenodd" fill="#A2A3A3" d="M58.773 45.576c-.786.646-1.39 1.527-1.69 2.578-.788 2.756.808 5.628 3.563 6.414 2.755.79 5.626-.806 6.414-3.562.325-1.137.244-2.294-.157-3.316l-8.13-2.114z"/><path fill-rule="evenodd" clip-rule="evenodd" fill="#FFF" d="M61.957 46.404c-1.34.05-2.553.946-2.94 2.303-.483 1.688.493 3.446 2.18 3.93 1.69.48 3.45-.496 3.93-2.182.404-1.41-.21-2.87-1.407-3.593l-1.763-.458z"/><path fill-rule="evenodd" clip-rule="evenodd" fill="#A2A3A3" d="M62.637 47.603c-1.092-.313-2.23.32-2.543 1.412-.312 1.093.32 2.23 1.413 2.544 1.092.31 2.23-.32 2.542-1.414.312-1.092-.32-2.23-1.413-2.543z"/><path fill-rule="evenodd" clip-rule="evenodd" fill="#FFF" d="M64.162 48.63c-.597-.17-1.217.175-1.388.77-.17.598.175 1.218.77 1.39.597.17 1.218-.176 1.39-.77.168-.598-.177-1.22-.772-1.39z"/><path fill-rule="evenodd" clip-rule="evenodd" fill="#A2A3A3" d="M90.094 45.562c.793.646 1.403 1.533 1.706 2.592.787 2.755-.81 5.627-3.562 6.413-2.755.79-5.628-.806-6.416-3.562-.285-1.003-.257-2.023.03-2.95l8.242-2.493z"/><path fill-rule="evenodd" clip-rule="evenodd" fill="#FFF" d="M87.23 46.43c1.215.16 2.28 1.023 2.638 2.277.483 1.688-.494 3.446-2.182 3.93-1.688.48-3.447-.494-3.93-2.182-.35-1.222.065-2.48.96-3.266l2.513-.76z"/><path fill-rule="evenodd" clip-rule="evenodd" fill="#A2A3A3" d="M86.247 47.603c1.092-.313 2.23.32 2.542 1.412.312 1.093-.32 2.23-1.412 2.544-1.093.31-2.23-.32-2.543-1.413-.312-1.093.32-2.23 1.412-2.544z"/><path fill-rule="evenodd" clip-rule="evenodd" fill="#FFF" d="M84.723 48.63c.595-.17 1.217.174 1.388.77.17.598-.175 1.218-.77 1.39-.595.17-1.217-.176-1.387-.77-.172-.598.174-1.22.77-1.39z"/><path fill-rule="evenodd" clip-rule="evenodd" fill="#A2A3A3" d="M80.272 47.117l14.506-3.993c.18-.05.362-.073.54-.074v3.035L81.382 49.92c-2.67.736-3.78-2.067-1.11-2.803zm-11.665-.273L56.433 44.22l-2.185 2.278 13.39 3.187c2.694.64 3.672-2.258.97-2.84z"/><path fill="#A2A3A3" d="M84.495 32.16c.553-.297 1.242-.09 1.54.462.297.553.09 1.243-.463 1.542l-13.52 7.304c-.553.298-1.242.09-1.54-.462-.092-.17-.136-.356-.136-.54h-.002V37.23l-16.278 9.398c-.542.314-1.238.128-1.553-.415-.314-.54-.13-1.237.414-1.552L70.875 34.31c.183-.12.403-.193.638-.193.63 0 1.14.51 1.14 1.14v3.3l11.842-6.396z"/><path fill-rule="evenodd" clip-rule="evenodd" fill="#FFF" d="M118.005 103.037c1.143 0 2.077.935 2.077 2.076v9.052c0 1.144-.935 2.077-2.077 2.077s-2.076-.934-2.076-2.077v-9.052c0-1.14.934-2.076 2.075-2.076z"/><path fill="#A2A3A3" d="M118.005 101.897c.884 0 1.687.36 2.268.943h.005c.582.583.943 1.388.943 2.272v9.052c0 .886-.36 1.69-.942 2.273h-.005c-.58.58-1.384.943-2.268.943-.886 0-1.69-.362-2.272-.943v-.005c-.58-.583-.944-1.386-.944-2.27v-9.05c0-.884.362-1.686.943-2.27v-.004c.583-.58 1.387-.94 2.272-.94zm.663 2.553c-.17-.17-.404-.274-.663-.274-.257 0-.49.106-.66.276l-.004-.002c-.167.17-.272.405-.272.663v9.052c0 .26.105.494.273.664l.004-.003c.17.17.404.275.66.275.26 0 .495-.104.664-.273v-.003c.17-.17.275-.404.275-.662v-9.052c0-.256-.106-.49-.276-.66v-.003z"/><path fill-rule="evenodd" clip-rule="evenodd" fill="#FFF" d="M118.005 110.48c2.96 0 5.36 2.398 5.36 5.36 0 2.958-2.4 5.358-5.36 5.358s-5.36-2.4-5.36-5.36c0-2.96 2.4-5.36 5.36-5.36z"/><path fill="#A2A3A3" d="M118.005 109.34c1.795 0 3.42.728 4.595 1.904 1.177 1.177 1.904 2.8 1.904 4.596 0 1.794-.728 3.42-1.904 4.595-1.175 1.177-2.8 1.903-4.595 1.903-1.794 0-3.42-.727-4.595-1.903-1.176-1.176-1.904-2.8-1.904-4.595s.73-3.42 1.904-4.596 2.8-1.904 4.595-1.904zm2.985 3.514c-.763-.763-1.82-1.234-2.984-1.234s-2.22.472-2.983 1.234c-.764.764-1.237 1.82-1.237 2.985 0 1.164.474 2.22 1.237 2.982.763.764 1.818 1.236 2.983 1.236s2.222-.473 2.984-1.236c.763-.763 1.236-1.818 1.236-2.983 0-1.166-.474-2.222-1.236-2.986z"/><path fill="#A2A3A3" d="M31.036 112.444c0 .626-.508 1.135-1.135 1.135s-1.134-.51-1.134-1.136l.048-18.772c.007-3.318.643-6.252 2-8.8 1.367-2.564 3.448-4.71 6.34-6.43.54-.32 1.237-.14 1.556.4.32.54.14 1.237-.4 1.557-2.522 1.5-4.326 3.35-5.493 5.54-1.176 2.206-1.726 4.786-1.733 7.73l-.048 18.774z"/><path fill-rule="evenodd" clip-rule="evenodd" fill="#FFF" d="M29.9 103.69c-1.14 0-2.076.935-2.076 2.077v9.053c0 1.142.935 2.076 2.077 2.076 1.144 0 2.078-.935 2.078-2.076v-9.053c0-1.142-.935-2.077-2.077-2.077z"/><path fill="#A2A3A3" d="M29.9 104.83c-.258 0-.492.104-.663.274l.002.002c-.17.17-.277.403-.277.66v9.054c0 .256.106.49.276.66l-.003.002c.17.17.404.275.664.275.258 0 .49-.106.663-.277v.002c.17-.17.276-.405.276-.662v-9.053c0-.26-.106-.493-.276-.663v.002c-.173-.17-.406-.276-.663-.276zm-2.268-1.335c.583-.582 1.386-.944 2.27-.944.885 0 1.69.363 2.27.945v.005c.584.582.945 1.385.945 2.268v9.053c0 .882-.36 1.686-.944 2.268v.005c-.582.583-1.386.944-2.272.944-.88 0-1.685-.36-2.268-.944h-.004c-.582-.583-.944-1.387-.944-2.27v-9.054c0-.887.362-1.69.944-2.273h.004v-.002z"/><path fill-rule="evenodd" clip-rule="evenodd" fill="#FFF" d="M31.132 111.614c-2.96 0-5.36 2.4-5.36 5.36s2.4 5.358 5.36 5.358 5.36-2.4 5.36-5.36-2.4-5.358-5.36-5.358z"/><path fill="#A2A3A3" d="M31.132 112.754c-1.166 0-2.22.473-2.985 1.235-.763.763-1.235 1.818-1.235 2.983 0 1.166.472 2.22 1.235 2.984.764.765 1.82 1.235 2.985 1.235 1.166 0 2.22-.47 2.984-1.235.764-.764 1.236-1.818 1.236-2.984 0-1.165-.473-2.22-1.236-2.984-.762-.763-1.818-1.236-2.984-1.236zm-4.595-.375c1.176-1.178 2.8-1.905 4.595-1.905 1.793 0 3.42.728 4.595 1.904 1.176 1.175 1.904 2.8 1.904 4.594s-.727 3.42-1.903 4.596c-1.176 1.176-2.802 1.902-4.595 1.902-1.794 0-3.42-.727-4.595-1.902-1.176-1.177-1.903-2.8-1.903-4.596 0-1.793.727-3.42 1.903-4.595z"/><path fill-rule="evenodd" clip-rule="evenodd" fill="#FFF" d="M31.953 111.614h2.44c1.344 0 2.442 1.1 2.442 2.44v5.837c0 1.345-1.098 2.442-2.44 2.442h-2.442v-10.718z"/><path fill="#A2A3A3" d="M31.953 110.475h2.44c.987 0 1.882.402 2.53 1.052.65.648 1.052 1.544 1.052 2.53v5.835c0 .986-.403 1.882-1.05 2.53-.65.647-1.545 1.05-2.53 1.05h-3.582V110.474h1.14zm2.44 2.28h-1.3v8.438h1.3c.358 0 .684-.146.92-.382.236-.236.383-.56.383-.92v-5.835c0-.356-.146-.683-.383-.918-.236-.237-.562-.383-.92-.383z"/></svg>