<?xml version="1.0" encoding="utf-8"?>
<!-- Generator: Adobe Illustrator 19.0.0, SVG Export Plug-In . SVG Version: 6.00 Build 0)  -->
<svg version="1.1" id="Calque_1" xmlns="http://www.w3.org/2000/svg" xmlns:xlink="http://www.w3.org/1999/xlink" x="0px" y="0px"
	 viewBox="-200 273.3 98 7.3" style="enable-background:new -200 273.3 98 7.3;" xml:space="preserve">
<style type="text/css">
	.st0{fill:#BCBEC0;}
</style>
<g id="XMLID_6_">
	<rect x="-198.9" y="276.4" class="st0" width="1.9" height="0.9"/>
	<path class="st0" d="M-107.6,277.3h-3.7v-0.9h3.7V277.3z M-115.1,277.3h-3.7v-0.9h3.7V277.3z M-122.5,277.3h-3.7v-0.9h3.7V277.3z
		 M-130,277.3h-3.7v-0.9h3.7V277.3z M-137.4,277.3h-3.7v-0.9h3.7V277.3z M-144.9,277.3h-3.7v-0.9h3.7V277.3z M-152.3,277.3h-3.7
		v-0.9h3.7V277.3z M-159.8,277.3h-3.7v-0.9h3.7V277.3z M-167.2,277.3h-3.7v-0.9h3.7V277.3z M-174.7,277.3h-3.7v-0.9h3.7V277.3z
		 M-182.1,277.3h-3.7v-0.9h3.7V277.3z M-189.5,277.3h-3.7v-0.9h3.7V277.3z"/>
	<rect x="-103.9" y="276.4" class="st0" width="1.9" height="0.9"/>
</g>
</svg>
