<?xml version="1.0" encoding="utf-8"?>
<!-- Generator: Adobe Illustrator 19.0.0, SVG Export Plug-In . SVG Version: 6.00 Build 0)  -->
<svg version="1.1" xmlns="http://www.w3.org/2000/svg" xmlns:xlink="http://www.w3.org/1999/xlink" x="0px" y="0px"
	 viewBox="-296.5 387 20 20" style="enable-background:new -296.5 387 20 20;" xml:space="preserve">
<path fill="#FFFFFF" d="M-278.5,391h-16c-0.8,0-1.5,0.7-1.5,1.5v9c0,0.8,0.7,1.5,1.5,1.5h16c0.8,0,1.5-0.7,1.5-1.5v-9
	C-277,391.6-277.7,391-278.5,391z M-278.5,392C-278.5,392-278.4,392-278.5,392l-7.4,5c-0.3,0.2-0.8,0.2-1.1,0l-7.5-5h0.1H-278.5
	L-278.5,392z M-278.5,402h-16c-0.3,0-0.5-0.2-0.5-0.5v-8.6l7.4,4.9c0.3,0.2,0.7,0.3,1.1,0.3s0.8-0.1,1.1-0.3l7.4-4.9v8.6
	C-278,401.7-278.2,402-278.5,402z"/>
</svg>
