<?xml version="1.0" encoding="utf-8"?>
<!-- Generator: Adobe Illustrator 19.0.0, SVG Export Plug-In . SVG Version: 6.00 Build 0)  -->
<svg version="1.1" xmlns="http://www.w3.org/2000/svg" xmlns:xlink="http://www.w3.org/1999/xlink" x="0px" y="0px"
	 viewBox="0 0 50 50" style="enable-background:new 0 0 50 50;" xml:space="preserve">
<g>
	<path fill="#C8C8C8" d="M46.3,7H40V5.8c0-0.7-0.6-1.3-1.2-1.3c-0.7,0-1.2,0.6-1.2,1.3V7h-25V5.8
		c0-0.7-0.6-1.3-1.2-1.3c-0.7,0-1.2,0.6-1.2,1.3V7H3.8C1.7,7,0,8.7,0,10.8v35.4C0,48.3,1.7,50,3.8,50h42.5c2.1,0,3.7-1.7,3.7-3.8
		V10.8C50,8.7,48.3,7,46.3,7z M3.8,9.6H10v3.8c0,0.7,0.6,1.3,1.2,1.3c0.7,0,1.2-0.6,1.2-1.3V9.6h25v3.8c0,0.7,0.6,1.3,1.2,1.3
		c0.7,0,1.2-0.6,1.2-1.3V9.6H46c0.7,0,1.2,0.6,1.2,1.3v6.3h-45v-6.3C2.5,10.1,3.1,9.6,3.8,9.6z M46.3,47.5H3.8
		c-0.7,0-1.2-0.6-1.2-1.3V19.7h45v26.5C47.5,46.9,46.9,47.5,46.3,47.5z"/>
	<path fill="#C8C8C8" d="M21.3,41.2c-0.3,0-0.6-0.1-0.9-0.4l-5-5.1c-0.5-0.5-0.5-1.3,0-1.8s1.3-0.5,1.8,0l4.1,4.2
		l11.6-11.7c0.5-0.5,1.3-0.5,1.8,0s0.5,1.3,0,1.8L22.1,40.8C21.9,41,21.6,41.2,21.3,41.2L21.3,41.2z"/>
</g>
</svg>
