<?xml version="1.0" encoding="utf-8"?>
<!-- Generator: Adobe Illustrator 19.0.0, SVG Export Plug-In . SVG Version: 6.00 Build 0)  -->
<svg version="1.1" xmlns="http://www.w3.org/2000/svg" xmlns:xlink="http://www.w3.org/1999/xlink" x="0px" y="0px"
	 viewBox="-295 387 20 20" style="enable-background:new -295 387 20 20;" xml:space="preserve">
<path fill="#C8C8C8" d="M-277.4,402.5c-1.1-0.9-2.8-1.3-4.3-1.7c-0.3-0.1-0.6-0.5-0.7-1c-0.1-0.3-0.2-1,0.4-1.6c0.4-0.4,0.8-0.8,1-1.3
	c0.8-1,1.3-2,1.5-3.1c0.2-0.9,0.1-1.9-0.2-2.8c-0.3-1.1-1.1-2-2.3-2.7c-1-0.5-2.2-0.8-3.3-0.8c-0.7,0-1.4,0.2-1.9,0.5
	s-0.8,0.6-1,1.1c-0.8,0.1-1.4,0.6-1.8,1.3c-0.4,0.8-0.4,2-0.1,3.4c0.3,1.2,0.9,2.3,1.5,3c0.2,0.5,0.4,1,0.9,1.3
	c0.6,0.5,0.5,1.3,0.4,1.6c-0.1,0.6-0.5,0.9-0.7,1c-1.5,0.4-3.1,0.8-4.3,1.7c-1.1,0.9-1.6,2-1.6,3.6c0,0.3,0.2,0.5,0.5,0.5h17
	c0.3,0,0.5-0.2,0.5-0.5C-275.8,404.6-276.3,403.4-277.4,402.5L-277.4,402.5z M-289,390.9c0.2-0.5,0.6-0.8,1.2-0.8
	c0.2,0,0.4-0.2,0.5-0.4c0.2-0.8,1.2-1.1,2.1-1.2c1.8-0.1,4,0.8,4.6,2.7c0.3,1,0.3,1.9,0,2.9c-0.1-0.7-0.2-1.2-0.3-1.6
	s-0.4-0.9-0.8-0.9c-2.6,0-4.6-0.3-5.1-0.9c-0.1-0.1-0.4-0.2-0.5-0.1c-0.2,0.1-0.3,0.3-0.3,0.5c0,1.4-0.5,2.4-0.8,2.6
	c-0.1,0.1-0.2,0.2-0.2,0.4c0,0.1,0,0.3,0,0.4C-289.3,393.2-289.4,391.8-289,390.9L-289,390.9z M-292.8,405.6c0.1-1,0.5-1.8,1.2-2.3
	c0.8-0.6,1.9-1.1,3.9-1.5c0.7-0.2,1.2-0.8,1.4-1.7c0.2-1,0-2-0.7-2.6c-0.8-0.6-0.8-1.8-0.8-2.9c0-0.1,0-0.2,0-0.3
	c0.4-0.4,0.8-1.3,0.9-2.4c0.6,0.2,1.4,0.4,2.4,0.5c0.7,0.1,1.6,0.1,2.4,0.1c0.2,0.3,0.4,1.3,0.4,2.5c-0.1,0.7-0.3,1.7-1,2.4
	c-0.7,0.6-1,1.6-0.8,2.6c0.2,0.9,0.8,1.6,1.5,1.8c1.9,0.5,3.1,0.9,3.9,1.5c0.7,0.6,1.1,1.3,1.2,2.3H-292.8z"/>
</svg>
