<?xml version="1.0" encoding="utf-8"?>
<!-- Generator: Adobe Illustrator 19.0.0, SVG Export Plug-In . SVG Version: 6.00 Build 0)  -->
<svg version="1.1" id="Calque_1" xmlns="http://www.w3.org/2000/svg" xmlns:xlink="http://www.w3.org/1999/xlink" x="0px" y="0px"
	 viewBox="0 0 300 300" style="enable-background:new 0 0 300 300;" xml:space="preserve">
<style type="text/css">
	.st0{opacity:0.92;fill:#FAFAFA;enable-background:new    ;}
	.st1{fill:#666666;}
</style>
<path id="XMLID_49_" class="st0" d="M286.7,298.8H14.1c-6.7,0-12.1-5.5-12.1-12.1V14.1C2,7.5,7.5,2,14.1,2h272.5
	c6.7,0,12.1,5.5,12.1,12.1v272.5C298.8,293.3,293.3,298.8,286.7,298.8z"/>
<g id="XMLID_6245_">
	<path id="XMLID_1067_" class="st1" d="M191.1,123.9c-7.5,0-13.6-6-13.6-13.6c0-7.6,6-13.6,13.6-13.6c7.6,0,13.6,6,13.6,13.6
		C204.7,117.9,198.5,123.9,191.1,123.9z M191.1,105.8c-2.5,0-4.6,2-4.6,4.6s2,4.6,4.6,4.6s4.6-2,4.6-4.6S193.5,105.8,191.1,105.8z"
		/>
	<path id="XMLID_1064_" class="st1" d="M191.1,178.1c-1.3,0-2.5-0.6-3.4-1.6c-0.2-0.4-7.1-8.4-14.1-20.5
		c-9.4-16.4-14.1-31.8-14.1-45.8c0-17.5,14.2-31.7,31.7-31.7s31.7,14.2,31.7,31.7c0,14-4.8,29.3-14.1,45.8
		c-6.9,12-13.7,20.1-14.1,20.5C193.6,177.5,192.3,178.1,191.1,178.1z M191.1,87.7c-12.4,0-22.6,10.1-22.6,22.6
		c0,23,15.5,46.4,22.6,55.9c7.1-9.5,22.6-33,22.6-55.9C213.6,97.9,203.5,87.7,191.1,87.7z"/>
	<path id="XMLID_1039_" class="st1" d="M227.2,60.6H73.6c-7.5,0-13.6,6-13.6,13.6v153.6c0,7.5,6,13.6,13.6,13.6h153.6
		c7.5,0,13.6-6,13.6-13.6V74.3C240.7,66.7,234.7,60.6,227.2,60.6z M118.8,223.3c-2.5,0-4.6,2-4.6,4.6v4.6H96.1V69.8h18.1v4.6
		c0,2.5,2,4.6,4.6,4.6c2.5,0,4.6-2,4.6-4.6v-4.6h18.1v162.6h-18.1v-4.6C123.2,225.3,121.2,223.3,118.8,223.3z M87.1,205.2H69v-9
		h18.1V205.2z M150.3,196.2h81.3v9h-81.3V196.2z M231.7,74.3v112.9h-81.3V69.7h76.9C229.6,69.7,231.7,71.7,231.7,74.3z M73.6,69.7
		h13.6v117.5H69.1v-113C69,71.7,71.1,69.7,73.6,69.7z M69,227.8v-13.6h18.1v18.1H73.5C71.1,232.3,69,230.3,69,227.8z M227.2,232.3
		h-76.9v-18.1h81.3v13.6C231.7,230.3,229.6,232.3,227.2,232.3z"/>
	<path id="XMLID_1038_" class="st1" d="M118.8,105.8c2.5,0,4.6-2,4.6-4.6v-9c0-2.5-2-4.6-4.6-4.6c-2.5,0-4.6,2-4.6,4.6v9
		C114.2,103.8,116.2,105.8,118.8,105.8z"/>
	<path id="XMLID_1037_" class="st1" d="M118.8,132.9c2.5,0,4.6-2,4.6-4.6v-9c0-2.5-2-4.6-4.6-4.6c-2.5,0-4.6,2-4.6,4.6v9
		C114.2,130.9,116.2,132.9,118.8,132.9z"/>
	<path id="XMLID_1036_" class="st1" d="M118.8,160c2.5,0,4.6-2,4.6-4.6v-9c0-2.5-2-4.6-4.6-4.6c-2.5,0-4.6,2-4.6,4.6v9
		C114.2,158,116.2,160,118.8,160z"/>
	<path id="XMLID_1034_" class="st1" d="M118.8,187.1c2.5,0,4.6-2,4.6-4.6v-9c0-2.5-2-4.6-4.6-4.6c-2.5,0-4.6,2-4.6,4.6v9
		C114.2,185.1,116.2,187.1,118.8,187.1z"/>
	<path id="XMLID_1033_" class="st1" d="M123.2,200.7c0-2.5-2-4.6-4.6-4.6c-2.5,0-4.6,2-4.6,4.6v9c0,2.5,2,4.6,4.6,4.6
		c2.5,0,4.6-2,4.6-4.6V200.7z"/>
</g>
</svg>
