<?xml version="1.0" encoding="utf-8"?>
<!-- Generator: Adobe Illustrator 19.0.0, SVG Export Plug-In . SVG Version: 6.00 Build 0)  -->
<svg version="1.1" xmlns="http://www.w3.org/2000/svg" xmlns:xlink="http://www.w3.org/1999/xlink" x="0px" y="0px"
	 viewBox="0 0 96 96" style="enable-background:new 0 0 96 96;" xml:space="preserve">
<style type="text/css">
	.st0{clip-path:url(#SVGID_2_);}
	.st1{fill:none;stroke:#000000;stroke-width:0.25;stroke-miterlimit:10;}
	.st2{opacity:0.4;}
	.st3{clip-path:url(#SVGID_4_);fill:none;stroke:#000000;stroke-width:0.25;stroke-miterlimit:10;}
	.st4{clip-path:url(#SVGID_4_);}
	.st5{display:none;}
	.st6{fill:none;stroke:#77C04A;stroke-width:2;stroke-linecap:round;stroke-linejoin:round;stroke-miterlimit:10;}
	.st7{fill:#77C04A;stroke:#77C04A;stroke-width:2;stroke-linecap:round;stroke-linejoin:round;stroke-miterlimit:10;}
	.st8{fill:#999999;stroke:#999999;stroke-width:2;stroke-linecap:round;stroke-linejoin:round;stroke-miterlimit:10;}
	.st9{fill:none;stroke:#77C04A;stroke-width:4;stroke-linecap:round;stroke-linejoin:round;stroke-miterlimit:10;}
</style>
<symbol  id="material_x5F_system_x5F_icon_x5F_grid" viewBox="0 -48 48 48">
	<g>
		<defs>
			<polygon id="SVGID_1_" points="48,-48 0,-48 0,0 48,0 			"/>
		</defs>
		<clipPath id="SVGID_2_">
			<use xlink:href="#SVGID_1_"  style="overflow:visible;"/>
		</clipPath>
		<g class="st0">
			<g>
				<line class="st1" x1="2" y1="-48" x2="2" y2="0"/>
				<line class="st1" x1="4" y1="-48" x2="4" y2="0"/>
				<line class="st1" x1="6" y1="-48" x2="6" y2="0"/>
				<line class="st1" x1="8" y1="-48" x2="8" y2="0"/>
				<line class="st1" x1="10" y1="-48" x2="10" y2="0"/>
				<line class="st1" x1="12" y1="-48" x2="12" y2="0"/>
				<line class="st1" x1="14" y1="-48" x2="14" y2="0"/>
				<line class="st1" x1="16" y1="-48" x2="16" y2="0"/>
				<line class="st1" x1="18" y1="-48" x2="18" y2="0"/>
				<line class="st1" x1="20" y1="-48" x2="20" y2="0"/>
				<line class="st1" x1="22" y1="-48" x2="22" y2="0"/>
				<line class="st1" x1="24" y1="-48" x2="24" y2="0"/>
				<line class="st1" x1="26" y1="-48" x2="26" y2="0"/>
				<line class="st1" x1="28" y1="-48" x2="28" y2="0"/>
				<line class="st1" x1="30" y1="-48" x2="30" y2="0"/>
				<line class="st1" x1="32" y1="-48" x2="32" y2="0"/>
				<line class="st1" x1="34" y1="-48" x2="34" y2="0"/>
				<line class="st1" x1="36" y1="-48" x2="36" y2="0"/>
				<line class="st1" x1="38" y1="-48" x2="38" y2="0"/>
				<line class="st1" x1="40" y1="-48" x2="40" y2="0"/>
				<line class="st1" x1="42" y1="-48" x2="42" y2="0"/>
				<line class="st1" x1="44" y1="-48" x2="44" y2="0"/>
				<line class="st1" x1="46" y1="-48" x2="46" y2="0"/>
			</g>
			<g>
				<line class="st1" x1="0" y1="-2" x2="48" y2="-2"/>
				<line class="st1" x1="0" y1="-4" x2="48" y2="-4"/>
				<line class="st1" x1="0" y1="-6" x2="48" y2="-6"/>
				<line class="st1" x1="0" y1="-8" x2="48" y2="-8"/>
				<line class="st1" x1="0" y1="-10" x2="48" y2="-10"/>
				<line class="st1" x1="0" y1="-12" x2="48" y2="-12"/>
				<line class="st1" x1="0" y1="-14" x2="48" y2="-14"/>
				<line class="st1" x1="0" y1="-16" x2="48" y2="-16"/>
				<line class="st1" x1="0" y1="-18" x2="48" y2="-18"/>
				<line class="st1" x1="0" y1="-20" x2="48" y2="-20"/>
				<line class="st1" x1="0" y1="-22" x2="48" y2="-22"/>
				<line class="st1" x1="0" y1="-24" x2="48" y2="-24"/>
				<line class="st1" x1="0" y1="-26" x2="48" y2="-26"/>
				<line class="st1" x1="0" y1="-28" x2="48" y2="-28"/>
				<line class="st1" x1="0" y1="-30" x2="48" y2="-30"/>
				<line class="st1" x1="0" y1="-32" x2="48" y2="-32"/>
				<line class="st1" x1="0" y1="-34" x2="48" y2="-34"/>
				<line class="st1" x1="0" y1="-36" x2="48" y2="-36"/>
				<line class="st1" x1="0" y1="-38" x2="48" y2="-38"/>
				<line class="st1" x1="0" y1="-40" x2="48" y2="-40"/>
				<line class="st1" x1="0" y1="-42" x2="48" y2="-42"/>
				<line class="st1" x1="0" y1="-44" x2="48" y2="-44"/>
				<line class="st1" x1="0" y1="-46" x2="48" y2="-46"/>
			</g>
			<g>
				<path id="XMLID_18_" d="M47.8-0.3v-47.5H0.3v47.5H47.8 M48,0H0v-48h48V0L48,0z"/>
			</g>
		</g>
	</g>
</symbol>
<symbol  id="material_x5F_system_x5F_icon_x5F_keylines" viewBox="0 -48 48 48">
	<g class="st2">
		<defs>
			<polygon id="SVGID_3_" class="st2" points="0,-48 0,0 48,0 48,-48 			"/>
		</defs>
		<clipPath id="SVGID_4_">
			<use xlink:href="#SVGID_3_"  style="overflow:visible;"/>
		</clipPath>
		<line class="st3" x1="24" y1="0" x2="24" y2="-48"/>
		<line class="st3" x1="48" y1="-24" x2="0" y2="-24"/>
		<line class="st3" x1="48" y1="-16" x2="0" y2="-16"/>
		<line class="st3" x1="48" y1="-32" x2="0" y2="-32"/>
		<line class="st3" x1="32" y1="-48" x2="32" y2="0"/>
		<line class="st3" x1="16" y1="-48" x2="16" y2="0"/>
		<line class="st3" x1="47.7" y1="-0.3" x2="0.2" y2="-47.8"/>
		<line class="st3" x1="0.2" y1="-0.3" x2="47.7" y2="-47.8"/>
		<path class="st3" d="M24-14c-5.5,0-10-4.5-10-10c0-5.5,4.5-10,10-10c5.5,0,10,4.5,10,10C34-18.5,29.5-14,24-14z"/>
		<path class="st3" d="M24-4C12.9-4,4-12.9,4-24c0-11.1,8.9-20,20-20c11.1,0,20,8.9,20,20C44-12.9,35.1-4,24-4z"/>
		<path class="st3" d="M38-6H10c-2.2,0-4-1.8-4-4v-28c0-2.2,1.8-4,4-4h28c2.2,0,4,1.8,4,4v28C42-7.8,40.2-6,38-6z"/>
		<path class="st3" d="M40-8H8c-2.2,0-4-1.8-4-4v-24c0-2.2,1.8-4,4-4h32c2.2,0,4,1.8,4,4l0,24C44-9.8,42.2-8,40-8z"/>
		<path class="st3" d="M40-40v32c0,2.2-1.8,4-4,4H12C9.8-4,8-5.8,8-8v-32c0-2.2,1.8-4,4-4h24C38.2-44,40-42.2,40-40z"/>
		<g class="st4">
			<path id="XMLID_13_" d="M47.8-0.3v-47.5H0.3v47.5H47.8 M48,0H0v-48h48V0L48,0z"/>
		</g>
	</g>
</symbol>
<g id="Calque_1" class="st5">
	
		<use xlink:href="#material_x5F_system_x5F_icon_x5F_grid"  width="48" height="48" id="XMLID_92_" x="0" y="-48" transform="matrix(2 0 0 -2 4.577633e-004 2.141166e-004)" style="display:inline;overflow:visible;opacity:0.15;"/>
	
		<use xlink:href="#material_x5F_system_x5F_icon_x5F_keylines"  width="48" height="48" id="XMLID_91_" x="0" y="-48" transform="matrix(2 0 0 -2 4.577633e-004 2.141166e-004)" style="display:inline;overflow:visible;opacity:0.54;"/>
</g>
<g id="Calque_2">
	<path id="XMLID_10_" class="st6" d="M20,76.6v-65c0-3.3,2.7-6,6-6h44c3.3,0,6,2.7,6,6v56c0,3.3-2.7,6-6,6H26"/>
	<path id="XMLID_8_" class="st6" d="M76,73.6c0,3.3-2.7,6-6,6H26"/>
	<polygon id="XMLID_6_" class="st7" points="32,79.6 32,93.1 38,89.6 44,93.1 44,79.6 	"/>
	<circle id="XMLID_5_" class="st8" cx="48" cy="30.7" r="7.6"/>
	<path id="XMLID_4_" class="st8" d="M59.4,53.4c0,6.3-22.7,6.3-22.7,0S41.7,42,48,42S59.4,47.1,59.4,53.4z"/>
	<path id="XMLID_2_" class="st6" d="M70,73.6H26c-3.3,0-6,2.7-6,6l0,0c0,3.3,2.7,6,6,6"/>
	<path id="XMLID_51_" class="st9" d="M76,79.6L76,79.6c0,3.3-2.7,6-6,6H44.7"/>
	<path id="XMLID_3_" class="st9" d="M70,85.6c3.3,0,6-2.7,6-6v-68c0-3.3-2.7-6-6-6H26c-3.3,0-6,2.7-6,6v68c0,3.3,2.7,6,6,6h5.2"/>
</g>
</svg>
