<?xml version="1.0" encoding="utf-8"?>
<!-- Generator: Adobe Illustrator 19.0.0, SVG Export Plug-In . SVG Version: 6.00 Build 0)  -->
<svg version="1.1" id="Calque_1" xmlns="http://www.w3.org/2000/svg" xmlns:xlink="http://www.w3.org/1999/xlink" x="0px" y="0px"
	 viewBox="0 0 300 300" style="enable-background:new 0 0 300 300;" xml:space="preserve">
<style type="text/css">
	.st0{opacity:0.92;fill:#FAFAFA;enable-background:new    ;}
	.st1{fill:#666666;}
</style>
<path id="XMLID_2_" class="st0" d="M286.3,298.4H13.7c-6.7,0-12.1-5.5-12.1-12.1V13.7c0-6.7,5.5-12.1,12.1-12.1h272.5
	c6.7,0,12.1,5.5,12.1,12.1v272.5C298.4,292.9,292.9,298.4,286.3,298.4z"/>
<g id="XMLID_1258_">
	<path id="XMLID_4051_" class="st1" d="M143.1,194.6c-3.7,0-7.2-1.4-9.8-4.1l-23.8-23.8c-2.6-2.6-4.1-6-4.1-9.8s1.4-7.2,4.1-9.8
		l42.4-42.4c2.6-2.6,6.1-4.1,9.8-4.1c3.6,0,7.2,1.4,9.8,4.1l23.8,23.8c5.4,5.4,5.4,14.2,0,19.6l-42.4,42.4
		C150.3,193.2,146.8,194.6,143.1,194.6L143.1,194.6z M161.5,110c-1.2,0-2.4,0.5-3.3,1.3l-42.4,42.4c-0.8,0.8-1.3,2-1.3,3.3
		c0,1.2,0.5,2.4,1.3,3.3l23.8,23.8c0.8,0.8,2,1.3,3.3,1.3c1.2,0,2.4-0.5,3.3-1.3l42.4-42.4c1.8-1.8,1.8-4.7,0-6.5l-23.8-23.8
		C163.9,110.5,162.8,110,161.5,110z"/>
	<path id="XMLID_4009_" class="st1" d="M106.1,143.1c-1.2,0-2.4-0.5-3.3-1.3l-37-37c-1.8-1.8-1.8-4.7,0-6.5l37-37
		c1.8-1.8,4.7-1.8,6.5,0l37,37c1.8,1.8,1.8,4.7,0,6.5c-1.8,1.8-4.7,1.8-6.5,0l-33.7-33.7l-30.5,30.5l33.7,33.7
		c1.8,1.8,1.8,4.7,0,6.5C108.5,142.6,107.3,143.1,106.1,143.1L106.1,143.1z"/>
	<path id="XMLID_4007_" class="st1" d="M198.5,235.4c-1.2,0-2.4-0.5-3.3-1.3l-37-37c-1.8-1.8-1.8-4.7,0-6.5c1.8-1.8,4.7-1.8,6.5,0
		l33.7,33.7l30.5-30.5l-33.7-33.7c-1.8-1.8-1.8-4.7,0-6.5c1.8-1.8,4.7-1.8,6.5,0l37,37c1.8,1.8,1.8,4.7,0,6.5l-37,37
		C200.9,235,199.7,235.4,198.5,235.4L198.5,235.4z"/>
	<path id="XMLID_3889_" class="st1" d="M212.3,120h-13.8c-2.5,0-4.6-2-4.6-4.6c0-2.5,2-4.6,4.6-4.6h11.9l-25.8-25.8V97
		c0,2.5-2,4.6-4.6,4.6c-2.5,0-4.6-2-4.6-4.6V83.1c0-6.3,3.4-8.3,4.8-8.9c1.4-0.6,5.3-1.4,9.6,2.9l28.5,28.5c4.3,4.5,3.5,8.2,2.9,9.6
		C220.6,116.6,218.6,120,212.3,120z"/>
	<path id="XMLID_3878_" class="st1" d="M120,203.1c-1.2,0-2.4-0.5-3.3-1.3l-18.4-18.4c-1.8-1.8-1.8-4.7,0-6.5c1.8-1.8,4.7-1.8,6.5,0
		l18.4,18.4c1.8,1.8,1.8,4.7,0,6.5C122.4,202.7,121.2,203.1,120,203.1L120,203.1z"/>
	<path id="XMLID_3872_" class="st1" d="M110.8,221.6c-1.2,0-2.4-0.5-3.3-1.3l-27.7-27.7c-1.8-1.8-1.8-4.7,0-6.5
		c1.8-1.8,4.7-1.8,6.5,0l27.7,27.7c1.8,1.8,1.8,4.7,0,6.5C113.1,221.1,111.9,221.6,110.8,221.6L110.8,221.6z"/>
	<path id="XMLID_3485_" class="st1" d="M101.5,240c-1.2,0-2.4-0.5-3.3-1.3l-37-37c-1.8-1.8-1.8-4.7,0-6.5c1.8-1.8,4.7-1.8,6.5,0
		l37,37c1.8,1.8,1.8,4.7,0,6.5C103.9,239.5,102.7,240,101.5,240L101.5,240z"/>
</g>
</svg>
