<?xml version="1.0" encoding="utf-8"?>
<!-- Generator: Adobe Illustrator 19.0.0, SVG Export Plug-In . SVG Version: 6.00 Build 0)  -->
<svg version="1.1" id="Calque_1" xmlns="http://www.w3.org/2000/svg" xmlns:xlink="http://www.w3.org/1999/xlink" x="0px" y="0px"
	 viewBox="-528.2 957.5 22.8 10" style="enable-background:new -528.2 957.5 22.8 10;" xml:space="preserve">
<style type="text/css">
	.st0{fill:#FFFFFF;}
</style>
<g>
	<path class="st0" d="M-514.5,965.6l-5.8-5.8c-0.6-0.6-0.8-1.1-0.6-1.3c0.2-0.2,0.8,0.1,1.3,0.6l5.8,5.8c0.6,0.6,0.8,1.1,0.6,1.3
		C-513.3,966.5-513.9,966.2-514.5,965.6z"/>
	<path class="st0" d="M-521.3,966.9c-0.2-0.2,0.1-0.8,0.6-1.3l6.1-6.1c0.6-0.6,1.1-0.8,1.3-0.6c0.2,0.2-0.1,0.8-0.6,1.3l-6.1,6.1
		C-520.4,966.8-521,967.1-521.3,966.9z"/>
	<path class="st0" d="M-514,966.1c-0.1-0.1-0.3-0.3-0.4-0.4c-0.2-0.2-0.1-0.6,0.1-0.7c0.2-0.2,0.5-0.1,0.7,0.1
		c0.1,0.1,0.2,0.2,0.3,0.3c1.6,1.6,4.1,1.6,5.7,0c1.6-1.6,1.6-4.1,0-5.7c-1.6-1.6-4.1-1.6-5.7,0c-0.1,0.1-0.3,0.3-0.4,0.4
		c-0.2,0.2-0.4,0.3-0.6,0.1c-0.2-0.2-0.2-0.5-0.1-0.7c0.1-0.1,0.3-0.3,0.4-0.4c2-2,5.1-2,7.1,0c2,2,2,5.1,0,7.1
		C-508.9,968-512.1,968-514,966.1L-514,966.1z"/>
	<path class="st0" d="M-526.8,966.1c-2-2-2-5.1,0-7.1c2-2,5.1-2,7.1,0c0.1,0.1,0.3,0.3,0.4,0.4c0.2,0.2,0.1,0.5-0.1,0.7
		c-0.2,0.2-0.6,0.1-0.7-0.1c-0.1-0.1-0.2-0.2-0.3-0.3c-1.6-1.6-4.1-1.6-5.7,0c-1.6,1.6-1.6,4.1,0,5.7c1.6,1.6,4.1,1.6,5.7,0
		c0.1-0.1,0.4-0.4,0.4-0.4c0.3-0.3,0.4-0.2,0.6,0s0.2,0.5,0.1,0.7c-0.1,0.1-0.3,0.3-0.4,0.4C-521.6,968-524.8,968-526.8,966.1
		L-526.8,966.1z"/>
</g>
</svg>
