<?xml version="1.0" encoding="utf-8"?>
<!-- Generator: Adobe Illustrator 19.0.0, SVG Export Plug-In . SVG Version: 6.00 Build 0)  -->
<svg version="1.1" id="Layer_1" xmlns="http://www.w3.org/2000/svg" xmlns:xlink="http://www.w3.org/1999/xlink" x="0px" y="0px"
	 viewBox="-106 229.9 382 382" style="enable-background:new -106 229.9 382 382;" xml:space="preserve">
<style type="text/css">
	.st0{fill:#FFFFFF;}
</style>
<path class="st0" d="M241.4,229.9H-71.4c-19.1,0-34.6,15.5-34.6,34.6v312.9c0,19.1,15.5,34.6,34.6,34.6h312.9
	c19.1,0,34.6-15.5,34.6-34.6V264.4C276,245.4,260.5,229.9,241.4,229.9z M12.2,559.7c0,5.6-4.5,10.1-10.1,10.1h-42.8
	c-5.6,0-10.1-4.5-10.1-10.1V380.3c0-5.6,4.5-10.1,10.1-10.1H2.2c5.6,0,10.1,4.5,10.1,10.1V559.7z M-19.3,353.3
	c-22.5,0-40.7-18.2-40.7-40.7c0-22.5,18.2-40.7,40.7-40.7s40.7,18.2,40.7,40.7C21.4,335.1,3.2,353.3-19.3,353.3z M235.9,560.5
	c0,5.1-4.1,9.2-9.2,9.2h-45.9c-5.1,0-9.2-4.1-9.2-9.2v-84.2c0-12.6,3.7-55-32.8-55c-28.3,0-34.1,29.1-35.2,42.1v97.1
	c0,5.1-4.1,9.2-9.2,9.2H49.8c-5.1,0-9.2-4.1-9.2-9.2V379.5c0-5.1,4.1-9.2,9.2-9.2h44.4c5.1,0,9.2,4.1,9.2,9.2v15.7
	c10.5-15.8,26.1-27.9,59.3-27.9c73.6,0,73.1,68.7,73.1,106.5L235.9,560.5L235.9,560.5z"/>
</svg>
