<?xml version="1.0" encoding="utf-8"?>
<!-- Generator: Adobe Illustrator 19.0.0, SVG Export Plug-In . SVG Version: 6.00 Build 0)  -->
<svg version="1.1" id="Calque_1" xmlns="http://www.w3.org/2000/svg" xmlns:xlink="http://www.w3.org/1999/xlink" x="0px" y="0px"
	 viewBox="0 0 200 200" style="enable-background:new 0 0 200 200;" xml:space="preserve">
	<circle fill="#F15A24" cx="100" cy="99.8" r="100"/>
	<path fill="#FFFFFF" opacity="1" d="M116.4,99.9l32.3-32.3c2.7-2.7,2.7-7.1,0-9.9l-6.6-6.6c-2.7-2.7-7.1-2.7-9.9,0L99.9,83.5L67.8,51.4
		c-2.7-2.7-7.1-2.7-9.9,0L51.3,58c-2.7,2.7-2.7,7.1,0,9.9L83.4,100l-32,32c-2.7,2.7-2.7,7.1,0,9.9l6.6,6.6c2.7,2.7,7.1,2.7,9.9,0
		l32.1-32.1l32.1,32.1c2.7,2.7,7.1,2.7,9.9,0l6.6-6.6c2.7-2.7,2.7-7.1,0-9.9L116.4,99.9z"/>
</svg>
