<?xml version="1.0" encoding="utf-8"?>
<!-- Generator: Adobe Illustrator 19.0.0, SVG Export Plug-In . SVG Version: 6.00 Build 0)  -->
<svg version="1.1" id="Calque_1" xmlns="http://www.w3.org/2000/svg" xmlns:xlink="http://www.w3.org/1999/xlink" x="0px" y="0px"
	 viewBox="0 0 150 150" style="enable-background:new 0 0 150 150;" xml:space="preserve">
<style type="text/css">
	.st0{fill:#36DA3E;}
	.st1{fill:#FFFFFF;}
</style>
<g id="XMLID_578_">
	<circle id="XMLID_688_" class="st0" cx="74.9" cy="75.1" r="75.1"/>
	<g id="XMLID_579_">
		<path id="XMLID_683_" class="st1" d="M113.1,47.1H36.7c-1.4,0-2.5-1.1-2.5-2.5s1.1-2.5,2.5-2.5h76.4c1.4,0,2.5,1.1,2.5,2.5
			S114.5,47.1,113.1,47.1z"/>
		<path id="XMLID_682_" class="st1" d="M92.7,62.4h-56c-1.4,0-2.5-1.1-2.5-2.5s1.1-2.5,2.5-2.5h56c1.4,0,2.5,1.1,2.5,2.5
			S94.1,62.4,92.7,62.4z"/>
		<path id="XMLID_680_" class="st1" d="M113.1,77.7H36.7c-1.4,0-2.5-1.1-2.5-2.5c0-1.4,1.1-2.5,2.5-2.5h76.4c1.4,0,2.5,1.1,2.5,2.5
			C115.6,76.5,114.5,77.7,113.1,77.7z"/>
		<path id="XMLID_638_" class="st1" d="M92.7,92.9h-56c-1.4,0-2.5-1.1-2.5-2.5s1.1-2.5,2.5-2.5h56c1.4,0,2.5,1.1,2.5,2.5
			S94.1,92.9,92.7,92.9z"/>
		<path id="XMLID_580_" class="st1" d="M113.1,108.2H36.7c-1.4,0-2.5-1.1-2.5-2.5c0-1.4,1.1-2.5,2.5-2.5h76.4c1.4,0,2.5,1.1,2.5,2.5
			C115.6,107.1,114.5,108.2,113.1,108.2z"/>
	</g>
</g>
</svg>
