<?xml version="1.0" encoding="utf-8"?>
<svg version="1.1" id="Calque_1" xmlns="http://www.w3.org/2000/svg" xmlns:xlink="http://www.w3.org/1999/xlink" x="0px" y="0px"
	 viewBox="102 289.7 800 262.4" style="enable-background:new 102 289.7 800 262.4;" xml:space="preserve">
<style type="text/css">
	.st0{fill:#FFFFFF;}
	.st1{fill:#62da73;}
	.st2{fill:#62da73;}
</style>
<g>
	<path class="st0" d="M182.7,382.2c-1.4-8-4.2-16.4-22-16.4s-20.2,6.8-20.2,12.2c0,19.7,78.1,5.4,78.1,51.3
		c0,36.3-35.2,42.9-54.6,42.9c-28.4,0-59.1-9.8-60-43.1h33.8c0,10.6,6.6,18.3,27.2,18.3c16.9,0,20.9-8.2,20.9-12.9
		c0-20.9-77.4-5.2-77.4-51.8c0-18.3,11.5-41.7,50.4-41.7c24.4,0,53.5,6.1,56,41.3L182.7,382.2L182.7,382.2z"/>
	<path class="st0" d="M341.2,432.3c-8.7,30-33.5,39.9-54.9,39.9c-35.2,0-62.1-16.9-62.1-68.2
		c0-15,5.2-63.1,59.8-63.1c24.6,0,58.6,11.7,58.6,68.7v5.9H257c0.9,9.4,2.8,30.5,29.3,30.5c9.1,0,18.5-4.7,21.1-13.6L341.2,432.3
		L341.2,432.3z M308.8,394.1c-1.8-20.2-14.7-26.2-25.3-26.2c-15.5,0-23.7,9.8-25.6,26.3L308.8,394.1L308.8,394.1z"/>
	<path class="st0" d="M469.4,432.3c-8.7,30-33.5,39.9-54.9,39.9c-35.2,0-62.1-16.9-62.1-68.2
		c0-15,5.2-63.1,59.8-63.1c24.6,0,58.6,11.7,58.6,68.7v5.9h-85.6c0.9,9.4,2.8,30.5,29.3,30.5c9.1,0,18.5-4.7,21.1-13.6L469.4,432.3
		L469.4,432.3z M437.1,394.1c-1.9-20.2-14.8-26.3-25.3-26.3c-15.5,0-23.7,9.8-25.6,26.3H437.1z"/>
	<path class="st0" d="M513.7,468.9h-32.8V300.6h32.8v91l41.3-47.4h40.3l-44.1,48.3l45.2,76.4H557l-29.8-53.5
		l-13.6,14.1v39.4H513.7z"/>
	<rect x="604.9" y="344.2" class="st0" width="32.8" height="124.7"/>
	<path class="st0" d="M717.3,472.2c-33.5,0-63.8-20.6-63.8-65.6s30.2-65.7,63.8-65.7c33.5,0,63.8,20.6,63.8,65.7
		S750.8,472.2,717.3,472.2z M717.3,368.6c-25.3,0-30,22-30,38c0,15.9,4.7,38,30,38s30-22,30-38S742.6,368.6,717.3,368.6z"/>
	<path class="st0" d="M866.1,382.2c-1.4-8-4.2-16.4-22-16.4s-20.2,6.8-20.2,12.2c0,19.7,78.1,5.4,78.1,51.3
		c0,36.3-35.2,42.9-54.6,42.9c-28.4,0-59.1-9.8-60-43.1h33.8c0,10.6,6.6,18.3,27.2,18.3c16.9,0,20.9-8.2,20.9-12.9
		c0-20.9-77.4-5.2-77.4-51.8c0-18.3,11.5-41.7,50.4-41.7c24.4,0,53.5,6.1,56,41.3L866.1,382.2L866.1,382.2z"/>
	<circle class="st1" cx="621.4" cy="308.5" r="18.8"/>
</g>
<g>
	<g>
		<path class="st2" d="M187.2,549.2h-6.5l-13.5-33.6h8.1l8.7,23.5l8.7-23.5h7.9L187.2,549.2z"/>
		<path class="st2" d="M227.7,549.5c-10.3,0-17.7-7.7-17.7-17.2v-0.1c0-9.5,7.5-17.3,17.8-17.3s17.7,7.7,17.7,17.2
			v0.1C245.5,541.8,238,549.5,227.7,549.5z M237.8,532.3c0-5.7-4.2-10.5-10.1-10.5c-5.9,0-10,4.7-10,10.4v0.1
			c0,5.7,4.2,10.5,10.1,10.5S237.8,538.1,237.8,532.3L237.8,532.3z"/>
		<path class="st2" d="M273.5,522.3v26.6h-7.3v-26.6H256v-6.8h27.7v6.8H273.5z"/>
		<path class="st2" d="M317.4,549l-7.2-10.7h-5.8V549h-7.3v-33.4h15.3c7.9,0,12.6,4.2,12.6,11v0.1
			c0,5.4-2.9,8.8-7.2,10.4L326,549L317.4,549L317.4,549z M317.5,527c0-3.1-2.2-4.8-5.8-4.8h-7.3v9.6h7.4
			C315.5,531.8,317.5,529.9,317.5,527L317.5,527z"/>
		<path class="st2" d="M339.4,549v-33.4h25.2v6.5h-17.9v6.8h15.7v6.5h-15.7v7h18.1v6.5L339.4,549L339.4,549z"/>
		<path class="st2" d="M421.1,524.4c-2.2-1.7-4-2.7-6.8-2.7c-4.1,0-6.2,3.3-6.7,7.7c1.7-1.1,3.6-2.1,6.9-2.1
			c6.6,0,11.7,3.7,11.7,10.7c0,6.9-5.5,11.6-12.7,11.6c-4.3,0-7.3-1.2-9.6-3.6c-2.4-2.4-4-6-4-12.7c0-10.4,4.7-18.3,14.6-18.3
			c4.5,0,7.5,1.3,10.4,3.7L421.1,524.4z M413.1,533.4c-3.6,0-5.7,2-5.7,4.9s2.2,5,5.8,5c3.6,0,5.7-2,5.7-5
			C418.9,535.4,416.7,533.4,413.1,533.4z"/>
		<path class="st2" d="M441,549v-33.4h7.3V549H441z"/>
		<path class="st2" d="M485.4,549l-7.5-11.5l-7.5,11.5H462l11.6-17l-11.2-16.4h8.6l7,10.8l7.1-10.8h8.3l-11.1,16.3
			l11.6,17.1H485.4z"/>
		<path class="st2" d="M507.6,549v-33.4h7.3V549H507.6z"/>
		<path class="st2" d="M531.1,549v-33.4h25.2v6.5h-17.9v6.8h15.7v6.5h-15.7v7h18.1v6.5L531.1,549L531.1,549z
			 M542.2,512.9l-6.1-5.7l6.2-2.7l5.4,8.4H542.2L542.2,512.9z"/>
		<path class="st2" d="M597,549v-21.8l-9.4,14.3h-0.2l-9.3-14.1v21.7h-7.2v-33.4h7.9l8.8,14.1l8.8-14.1h7.9v33.4
			L597,549L597,549z"/>
		<path class="st2" d="M620.1,549v-33.4h25.2v6.5h-17.9v6.8h15.7v6.5h-15.7v7h18.1v6.5L620.1,549L620.1,549z"/>
		<path class="st2" d="M693.9,549.4c-5.1,0-10.2-1.8-14.2-5.3l4.3-5.2c3,2.5,6.2,4.1,10,4.1c3,0,4.8-1.2,4.8-3.2
			v-0.1c0-1.9-1.1-2.8-6.7-4.2c-6.7-1.7-11.1-3.6-11.1-10.2v-0.1c0-6.1,4.9-10.1,11.7-10.1c4.9,0,9,1.5,12.4,4.2l-3.8,5.5
			c-3-2.1-5.9-3.3-8.7-3.3s-4.3,1.3-4.3,2.9v0.1c0,2.2,1.4,2.9,7.2,4.4c6.8,1.8,10.6,4.2,10.6,10v0.1
			C706.1,545.7,701.1,549.4,693.9,549.4z"/>
		<path class="st2" d="M720.3,549v-33.4h25.2v6.5h-17.9v6.8h15.7v6.5h-15.7v7h18.1v6.5L720.3,549L720.3,549z"/>
		<path class="st2" d="M783.5,549l-16.2-21.2V549H760v-33.4h6.8l15.6,20.6v-20.6h7.3V549H783.5z"/>
		<path class="st2" d="M817.4,549.4c-5.1,0-10.2-1.8-14.2-5.3l4.3-5.2c3,2.5,6.2,4.1,10,4.1c3,0,4.8-1.2,4.8-3.2
			v-0.1c0-1.9-1.1-2.8-6.7-4.2c-6.7-1.7-11.1-3.6-11.1-10.2v-0.1c0-6.1,4.9-10.1,11.7-10.1c4.9,0,9,1.5,12.4,4.2l-3.8,5.5
			c-3-2.1-5.9-3.3-8.7-3.3s-4.3,1.3-4.3,2.9v0.1c0,2.2,1.4,2.9,7.2,4.4c6.8,1.8,10.6,4.2,10.6,10v0.1
			C829.7,545.7,824.6,549.4,817.4,549.4z"/>
	</g>
</g>
</svg>
