<?xml version="1.0" encoding="iso-8859-1"?>
<svg xmlns="http://www.w3.org/2000/svg" xmlns:xlink="http://www.w3.org/1999/xlink" version="1.1" id="Capa_1" x="0px" y="0px" viewBox="0 0 14.573 14.573" style="enable-background:new 0 0 14.573 14.573;" xml:space="preserve" width="512px" height="512px">
<g>
	<g>
		<path d="M7.286,14.573c-1.736,0-3.368-0.676-4.596-1.903c-1.227-1.228-1.904-2.86-1.904-4.597    s0.677-3.369,1.904-4.597c0.391-0.391,1.023-0.391,1.414,0s0.391,1.023,0,1.414c-0.85,0.851-1.318,1.981-1.318,3.183    s0.468,2.333,1.318,3.183s1.979,1.317,3.182,1.317s2.332-0.468,3.182-1.317c0.851-0.85,1.318-1.98,1.318-3.183    S11.318,5.74,10.469,4.89c-0.391-0.391-0.391-1.023,0-1.414s1.023-0.391,1.414,0c1.227,1.229,1.904,2.861,1.904,4.597    s-0.677,3.369-1.904,4.597C10.655,13.897,9.023,14.573,7.286,14.573z" fill="#ff4c39"/>
	</g>
	<g>
		<path d="M7.286,7c-0.553,0-1-0.448-1-1V1c0-0.552,0.447-1,1-1s1,0.448,1,1v5C8.286,6.552,7.84,7,7.286,7z" fill="#ff4c39"/>
	</g>
</g>
</svg>
