<?xml version="1.0" encoding="utf-8"?>
<!-- Generator: Adobe Illustrator 19.0.0, SVG Export Plug-In . SVG Version: 6.00 Build 0)  -->
<svg version="1.1" id="Calque_1" xmlns="http://www.w3.org/2000/svg" xmlns:xlink="http://www.w3.org/1999/xlink" x="0px" y="0px"
	 viewBox="0 0 205.5 120.5" style="enable-background:new 0 0 205.5 120.5;" xml:space="preserve">
<style type="text/css">
	.st0{opacity:0.8;clip-path:url(#XMLID_57_);}
	.st1{opacity:0.8;}
	.st2{fill:#AEDBE6;}
	.st3{opacity:0.32;clip-path:url(#XMLID_59_);fill:#26A9E0;}
	.st4{fill:#62DA73;}
	.st5{fill:#FFFFFF;}
</style>
<g id="XMLID_2219_">
	<defs>
		<rect id="XMLID_2220_" x="0.2" y="0" width="205.2" height="120.3"/>
	</defs>
	<clipPath id="XMLID_57_">
		<use xlink:href="#XMLID_2220_"  style="overflow:visible;"/>
	</clipPath>
	<g id="XMLID_2221_" class="st0">
		<defs>
			<polygon id="XMLID_2222_" class="st1" points="227.2,-92.8 -152.4,-92.5 -152.1,561 227.4,560.7 			"/>
		</defs>
		<clipPath id="XMLID_58_">
			<use xlink:href="#XMLID_2222_"  style="overflow:visible;"/>
		</clipPath>
		<g transform="matrix(1 0 -2.910383e-011 1 0 0)" style="clip-path:url(#XMLID_58_);">
			
				<image style="overflow:visible;" width="1425" height="837" id="XMLID_2223_" xlink:href="C91EF6B6.jpg"  transform="matrix(2.059701e-004 0.4586 -0.4535 2.633619e-004 228.6329 -93.0258)">
			</image>
		</g>
	</g>
</g>
<rect id="XMLID_2179_" x="0.2" class="st2" width="205.2" height="120.3"/>
<g id="XMLID_1_">
	<defs>
		<rect id="XMLID_2067_" y="0" width="205.5" height="120.3"/>
	</defs>
	<clipPath id="XMLID_59_">
		<use xlink:href="#XMLID_2067_"  style="overflow:visible;"/>
	</clipPath>
	<ellipse id="XMLID_2165_" class="st3" cx="38.2" cy="108.7" rx="92.9" ry="92.4"/>
	<ellipse id="XMLID_2152_" class="st3" cx="12.3" cy="24" rx="92.9" ry="92.4"/>
	<path id="XMLID_2151_" class="st3" d="M230.9,45.9c0,51-41.6,92.4-92.9,92.4S45.1,96.9,45.1,45.9c0-10.1,1.6-19.8,4.6-28.9
		C61.9-19.8,96.8-46.5,138-46.5C189.3-46.5,230.9-5.1,230.9,45.9z"/>
</g>
<g id="XMLID_2233_">
	<path id="XMLID_2180_" class="st4" d="M103.2,42.7c-9.3,41.7-38.7,59.3-39.8,58.6c-1.2-0.8-28.1-31.3-13.7-84.1
		C49.9,16.7,80.4,20,103.2,42.7z"/>
	<path id="XMLID_2213_" class="st4" d="M50.1,17.6c-12.6,46.5,7.1,75.3,13.5,83c0,0,0.1,0.1,0.1,0.1c2.6-0.6,29.7-17.7,38.7-57.7
		C81.4,22.3,53.5,17.6,50.1,17.6C50.1,17.6,50.1,17.6,50.1,17.6z"/>
</g>
<path id="XMLID_4047_" class="st5" d="M23.3,68.4c0.2,0.1,0.3,0.3,0.5,0.5L23.3,68.4z"/>
<g id="XMLID_4053_">
	<path id="XMLID_4052_" class="st5" d="M140,50.8c-0.1,0-0.1,0-0.2-0.1c-0.2-0.1-0.3-0.4-0.2-0.6l1.9-3.8c0.1-0.2,0.4-0.3,0.6-0.2
		c0.2,0.1,0.3,0.4,0.2,0.6l-1.9,3.8C140.3,50.7,140.2,50.8,140,50.8z"/>
	<path id="XMLID_4050_" class="st5" d="M135.2,48.9c-0.1,0-0.2,0-0.3-0.1c-0.2-0.1-0.3-0.4-0.1-0.7l1.9-2.9c0.1-0.2,0.4-0.3,0.7-0.1
		c0.2,0.1,0.3,0.4,0.1,0.7l-1.9,2.9C135.6,48.8,135.4,48.9,135.2,48.9L135.2,48.9z"/>
	<path id="XMLID_4058_" class="st5" d="M150.9,34.2c0-0.8-0.6-1.4-1.4-1.4c-0.8,0-1.4,0.6-1.4,1.4l-8.2,2.5
		c-0.3,0.1-0.4,0.3-0.3,0.6c0.1,0.2,0.3,0.3,0.5,0.3c0,0,0.1,0,0.1,0l8.2-2.5c0,0,0,0,0,0l-5,7.4c-0.1,0.2-0.1,0.5,0.1,0.7
		c0.1,0.1,0.2,0.1,0.3,0.1c0.2,0,0.3-0.1,0.4-0.2l4.3-6.4l-1.4,6.1c-0.1,0.3,0.1,0.5,0.4,0.6c0,0,0.1,0,0.1,0c0.2,0,0.4-0.2,0.5-0.4
		l1.6-7.3C150.4,35.5,151,34.9,150.9,34.2L150.9,34.2z M149.5,34.6c-0.3,0-0.5-0.2-0.5-0.5c0-0.3,0.2-0.5,0.5-0.5
		c0.3,0,0.5,0.2,0.5,0.5C150,34.4,149.8,34.6,149.5,34.6z"/>
	<path id="XMLID_4027_" class="st5" d="M145.4,38c-0.1,0-0.2,0-0.3-0.1c-0.2-0.2-0.3-0.3-0.5-0.5c-0.2-0.2-0.2-0.5,0-0.7
		c0.2-0.2,0.5-0.2,0.7,0c0.2,0.2,0.3,0.3,0.5,0.5c0.2,0.2,0.2,0.5,0,0.7C145.6,37.9,145.5,38,145.4,38L145.4,38z"/>
	<path id="XMLID_4026_" class="st5" d="M149.9,42.5c-0.1-0.2-0.4-0.3-0.6-0.2c-0.2,0.1-0.3,0.4-0.2,0.6c0.9,1.8,1.2,3.2,0.6,3.7
		c-0.5,0.5-1.7,0.4-3.2-0.3c-1.7-0.8-3.6-2.2-5.3-3.9c-1.7-1.7-3.1-3.6-3.9-5.3c-0.7-1.5-0.8-2.7-0.3-3.2c0.4-0.4,1.1-0.3,1.6-0.2
		c0.9,0.2,1.9,0.6,3,1.4c0.2,0.1,0.5,0.1,0.7-0.2c0.1-0.2,0.1-0.5-0.2-0.7c-1.2-0.8-2.4-1.3-3.3-1.5c-1.4-0.3-2.1,0.1-2.5,0.5
		c-0.7,0.7-1.1,1.5-1.3,2.5c-0.2,0.9-0.2,2,0,3.1c0.4,2.3,1.6,4.5,3.5,6.4c0.4,0.4,0.9,0.8,1.3,1.2c0.1,0.1,0.2,0.1,0.3,0.1
		c0.1,0,0.3-0.1,0.4-0.2c0.2-0.2,0.1-0.5-0.1-0.7c-0.4-0.3-0.8-0.7-1.2-1.1c-1.7-1.7-2.8-3.8-3.2-5.9c-0.2-1-0.2-1.9,0-2.7
		c0.1,0.5,0.3,1,0.5,1.5c0.8,1.8,2.3,3.8,4.1,5.6c1.8,1.8,3.8,3.3,5.6,4.1c0.5,0.2,1,0.4,1.5,0.5c-1.2,0.3-2.6,0.2-4.1-0.4
		c-0.2-0.1-0.5,0-0.6,0.3c-0.1,0.2,0,0.5,0.3,0.6c0.6,0.2,1.1,0.3,1.7,0.4l0.4,1.7c0.1,0.2,0.2,0.4,0.5,0.4c0,0,0.1,0,0.1,0
		c0.3-0.1,0.4-0.3,0.4-0.6l-0.3-1.4c0.1,0,0.3,0,0.4,0c0.3,0,0.6,0,0.9-0.1c1.3-0.2,2.4-0.7,3.2-1.5
		C151.3,46.5,151.1,44.7,149.9,42.5L149.9,42.5z"/>
</g>
<g id="XMLID_4054_">
	<path id="XMLID_4066_" class="st5" d="M23.4,24.2c-0.1,0-0.1,0-0.2-0.1C23,24,22.9,23.8,23,23.5l1.9-3.8c0.1-0.2,0.4-0.3,0.6-0.2
		c0.2,0.1,0.3,0.4,0.2,0.6l-1.9,3.8C23.8,24.1,23.6,24.2,23.4,24.2z"/>
	<path id="XMLID_4065_" class="st5" d="M18.7,22.3c-0.1,0-0.2,0-0.3-0.1c-0.2-0.1-0.3-0.4-0.1-0.7l1.9-2.9c0.1-0.2,0.4-0.3,0.7-0.1
		c0.2,0.1,0.3,0.4,0.1,0.7l-1.9,2.9C19,22.2,18.8,22.3,18.7,22.3L18.7,22.3z"/>
	<path id="XMLID_4059_" class="st5" d="M34.4,7.6c0-0.8-0.6-1.4-1.4-1.4c-0.8,0-1.4,0.6-1.4,1.4L23.3,10C23,10,22.9,10.3,23,10.5
		c0.1,0.2,0.3,0.3,0.5,0.3c0,0,0.1,0,0.1,0l8.2-2.5c0,0,0,0,0,0l-5,7.4c-0.1,0.2-0.1,0.5,0.1,0.7c0.1,0.1,0.2,0.1,0.3,0.1
		c0.2,0,0.3-0.1,0.4-0.2l4.3-6.4L30.6,16c-0.1,0.3,0.1,0.5,0.4,0.6c0,0,0.1,0,0.1,0c0.2,0,0.4-0.2,0.5-0.4L33.1,9
		C33.8,8.9,34.4,8.3,34.4,7.6L34.4,7.6z M32.9,8c-0.3,0-0.5-0.2-0.5-0.5c0-0.3,0.2-0.5,0.5-0.5s0.5,0.2,0.5,0.5
		C33.4,7.8,33.2,8,32.9,8z"/>
	<path id="XMLID_4056_" class="st5" d="M28.8,11.4c-0.1,0-0.2,0-0.3-0.1c-0.2-0.2-0.3-0.3-0.5-0.5c-0.2-0.2-0.2-0.5,0-0.7
		c0.2-0.2,0.5-0.2,0.7,0c0.2,0.2,0.3,0.3,0.5,0.5c0.2,0.2,0.2,0.5,0,0.7C29.1,11.3,28.9,11.4,28.8,11.4L28.8,11.4z"/>
	<path id="XMLID_4055_" class="st5" d="M33.3,15.9c-0.1-0.2-0.4-0.3-0.6-0.2c-0.2,0.1-0.3,0.4-0.2,0.6c0.9,1.8,1.2,3.2,0.6,3.7
		c-0.5,0.5-1.7,0.4-3.2-0.3c-1.7-0.8-3.6-2.2-5.3-3.9c-1.7-1.7-3.1-3.6-3.9-5.3c-0.7-1.5-0.8-2.7-0.3-3.2c0.4-0.4,1.1-0.3,1.6-0.2
		c0.9,0.2,1.9,0.6,3,1.4c0.2,0.1,0.5,0.1,0.7-0.2c0.1-0.2,0.1-0.5-0.2-0.7c-1.2-0.8-2.4-1.3-3.3-1.5c-1.4-0.3-2.1,0.1-2.5,0.5
		c-0.7,0.7-1.1,1.5-1.3,2.5c-0.2,0.9-0.2,2,0,3.1c0.4,2.3,1.6,4.5,3.5,6.4c0.4,0.4,0.9,0.8,1.3,1.2c0.1,0.1,0.2,0.1,0.3,0.1
		c0.1,0,0.3-0.1,0.4-0.2c0.2-0.2,0.1-0.5-0.1-0.7c-0.4-0.3-0.8-0.7-1.2-1.1c-1.7-1.7-2.8-3.8-3.2-5.9c-0.2-1-0.2-1.9,0-2.7
		c0.1,0.5,0.3,1,0.5,1.5c0.8,1.8,2.3,3.8,4.1,5.6c1.8,1.8,3.8,3.3,5.6,4.1c0.5,0.2,1,0.4,1.5,0.5c-1.2,0.3-2.6,0.2-4.1-0.4
		c-0.2-0.1-0.5,0-0.6,0.3c-0.1,0.2,0,0.5,0.3,0.6c0.6,0.2,1.1,0.3,1.7,0.4l0.4,1.7c0.1,0.2,0.2,0.4,0.5,0.4c0,0,0.1,0,0.1,0
		c0.3-0.1,0.4-0.3,0.4-0.6l-0.3-1.4c0.1,0,0.3,0,0.4,0c0.3,0,0.6,0,0.9-0.1c1.3-0.2,2.4-0.7,3.2-1.5C34.7,19.9,34.5,18.1,33.3,15.9
		L33.3,15.9z"/>
</g>
<g id="XMLID_4314_">
	<path id="XMLID_4384_" class="st5" d="M37.4,115.6c-0.1,0-0.1,0-0.2-0.1c-0.2-0.1-0.3-0.4-0.2-0.6l1.9-3.8c0.1-0.2,0.4-0.3,0.6-0.2
		c0.2,0.1,0.3,0.4,0.2,0.6l-1.9,3.8C37.8,115.5,37.6,115.6,37.4,115.6z"/>
	<path id="XMLID_4383_" class="st5" d="M32.7,113.7c-0.1,0-0.2,0-0.3-0.1c-0.2-0.1-0.3-0.4-0.1-0.7l1.9-2.9c0.1-0.2,0.4-0.3,0.7-0.1
		c0.2,0.1,0.3,0.4,0.1,0.7l-1.9,2.9C33,113.6,32.8,113.7,32.7,113.7L32.7,113.7z"/>
	<path id="XMLID_4375_" class="st5" d="M48.4,98.9c0-0.8-0.6-1.4-1.4-1.4c-0.8,0-1.4,0.6-1.4,1.4l-8.2,2.5c-0.3,0.1-0.4,0.3-0.3,0.6
		c0.1,0.2,0.3,0.3,0.5,0.3c0,0,0.1,0,0.1,0l8.2-2.5c0,0,0,0,0,0l-5,7.4c-0.1,0.2-0.1,0.5,0.1,0.7c0.1,0.1,0.2,0.1,0.3,0.1
		c0.2,0,0.3-0.1,0.4-0.2l4.3-6.4l-1.4,6.1c-0.1,0.3,0.1,0.5,0.4,0.6c0,0,0.1,0,0.1,0c0.2,0,0.4-0.2,0.5-0.4l1.6-7.3
		C47.8,100.3,48.4,99.6,48.4,98.9L48.4,98.9z M46.9,99.4c-0.3,0-0.5-0.2-0.5-0.5s0.2-0.5,0.5-0.5s0.5,0.2,0.5,0.5
		S47.2,99.4,46.9,99.4z"/>
	<path id="XMLID_4374_" class="st5" d="M42.8,102.7c-0.1,0-0.2,0-0.3-0.1c-0.2-0.2-0.3-0.3-0.5-0.5c-0.2-0.2-0.2-0.5,0-0.7
		c0.2-0.2,0.5-0.2,0.7,0c0.2,0.2,0.3,0.3,0.5,0.5c0.2,0.2,0.2,0.5,0,0.7C43.1,102.7,42.9,102.7,42.8,102.7L42.8,102.7z"/>
	<path id="XMLID_4360_" class="st5" d="M47.3,107.3c-0.1-0.2-0.4-0.3-0.6-0.2c-0.2,0.1-0.3,0.4-0.2,0.6c0.9,1.8,1.2,3.2,0.6,3.7
		c-0.5,0.5-1.7,0.4-3.2-0.3c-1.7-0.8-3.6-2.2-5.3-3.9c-1.7-1.7-3.1-3.6-3.9-5.3c-0.7-1.5-0.8-2.7-0.3-3.2c0.4-0.4,1.1-0.3,1.6-0.2
		c0.9,0.2,1.9,0.6,3,1.4c0.2,0.1,0.5,0.1,0.7-0.2c0.1-0.2,0.1-0.5-0.2-0.7c-1.2-0.8-2.4-1.3-3.3-1.5c-1.4-0.3-2.1,0.1-2.5,0.5
		c-0.7,0.7-1.1,1.5-1.3,2.5c-0.2,0.9-0.2,2,0,3.1c0.4,2.3,1.6,4.5,3.5,6.4c0.4,0.4,0.9,0.8,1.3,1.2c0.1,0.1,0.2,0.1,0.3,0.1
		c0.1,0,0.3-0.1,0.4-0.2c0.2-0.2,0.1-0.5-0.1-0.7c-0.4-0.3-0.8-0.7-1.2-1.1c-1.7-1.7-2.8-3.8-3.2-5.9c-0.2-1-0.2-1.9,0-2.7
		c0.1,0.5,0.3,1,0.5,1.5c0.8,1.8,2.3,3.8,4.1,5.6c1.8,1.8,3.8,3.3,5.6,4.1c0.5,0.2,1,0.4,1.5,0.5c-1.2,0.3-2.6,0.2-4.1-0.4
		c-0.2-0.1-0.5,0-0.6,0.3c-0.1,0.2,0,0.5,0.3,0.6c0.6,0.2,1.1,0.3,1.7,0.4l0.4,1.7c0.1,0.2,0.2,0.4,0.5,0.4c0,0,0.1,0,0.1,0
		c0.3-0.1,0.4-0.3,0.4-0.6l-0.3-1.4c0.1,0,0.3,0,0.4,0c0.3,0,0.6,0,0.9-0.1c1.3-0.2,2.4-0.7,3.2-1.5
		C48.7,111.2,48.5,109.5,47.3,107.3L47.3,107.3z"/>
</g>
</svg>
