<?xml version="1.0" encoding="utf-8"?>
<svg version="1.1" xmlns="http://www.w3.org/2000/svg" xmlns:xlink="http://www.w3.org/1999/xlink" x="0px" y="0px" viewBox="25 -25 150 150" style="enable-background:new 25 -25 150 150;" xml:space="preserve">
<path fill="#FAFAFA" d="M167.5,123.3H32.7c-3.3,0-6-2.7-6-6V-17.5c0-3.3,2.7-6,6-6h134.8c3.3,0,6,2.7,6,6v134.8C173.5,120.6,170.8,123.3,167.5,123.3z"/>
<path fill="#666666" d="M62.6,86.6c-0.7,0-1.4-0.3-1.9-0.8c-0.7-0.7-1-1.7-0.7-2.6l5.4-18.8c0.1-0.4,0.4-0.8,0.7-1.2l59.1-59.1c1-1,2.8-1,3.8,0l13.4,13.4c1,1,1,2.8,0,3.8L83.3,80.4c-0.3,0.3-0.7,0.6-1.2,0.7l-18.8,5.4C63.1,86.5,62.8,86.6,62.6,86.6z M70.4,66.5L66.5,80L80,76.1l56.7-56.7l-9.6-9.6C127.1,9.8,70.4,66.5,70.4,66.5z"/>
<path fill="#666666" d="M143.2,97.3H62.6c-1.5,0-2.7-1.2-2.7-2.7c0-1.5,1.2-2.7,2.7-2.7h80.6c1.5,0,2.7,1.2,2.7,2.7C145.9,96.1,144.7,97.3,143.2,97.3z"/>
</svg>