<?xml version="1.0" encoding="utf-8"?>
<!-- Generator: Adobe Illustrator 19.0.0, SVG Export Plug-In . SVG Version: 6.00 Build 0)  -->
<svg version="1.1" id="Calque_1" xmlns="http://www.w3.org/2000/svg" xmlns:xlink="http://www.w3.org/1999/xlink" x="0px" y="0px"
	 viewBox="-85 85.8 28.4 30.2" style="enable-background:new -85 85.8 28.4 30.2;" xml:space="preserve">
<style type="text/css">
	.st0{fill:#999999;}
	.st1{fill:none;}
</style>
<g id="XMLID_2234_">
	<path class="st0" d="M-595.6,1042.3c-1.2,0-2.2-1-2.2-2.2c0-1.2,1-2.2,2.2-2.2s2.2,1,2.2,2.2
		C-593.4,1041.3-594.4,1042.3-595.6,1042.3z M-595.6,1038.5c-0.9,0-1.6,0.7-1.6,1.6c0,0.9,0.7,1.6,1.6,1.6c0.9,0,1.6-0.7,1.6-1.6
		C-594,1039.2-594.7,1038.5-595.6,1038.5z"/>
	<path class="st0" d="M-595.6,1047.3c-2.9,0-3.4-0.6-3.5-0.8v-0.1l0.2-2.2c0.1-0.9,0.9-1.6,1.8-1.6h3.1c0.9,0,1.7,0.7,1.8,1.6
		l0.2,2.2v0.1C-592.2,1046.7-592.8,1047.3-595.6,1047.3z M-598.5,1046.3c0.2,0.1,0.8,0.5,2.9,0.5c2.1,0,2.7-0.3,2.9-0.5l-0.2-2
		c-0.1-0.6-0.6-1-1.2-1h-3.1c-0.6,0-1.1,0.5-1.2,1L-598.5,1046.3z"/>
</g>
<g id="XMLID_2229_">
	<path class="st0" d="M-601.9,1053.1c-1.2,0-2.2-1-2.2-2.2c0-1.2,1-2.2,2.2-2.2s2.2,1,2.2,2.2
		C-599.7,1052.1-600.7,1053.1-601.9,1053.1z M-601.9,1049.2c-0.9,0-1.6,0.7-1.6,1.6s0.7,1.6,1.6,1.6c0.9,0,1.6-0.7,1.6-1.6
		C-600.2,1050-601,1049.2-601.9,1049.2z"/>
	<path class="st0" d="M-601.9,1058.1c-2.9,0-3.4-0.6-3.5-0.8v-0.1l0.2-2.2c0.1-0.9,0.9-1.6,1.8-1.6h3.1c0.9,0,1.7,0.7,1.8,1.6
		l0.2,2.2v0.1C-598.5,1057.5-599,1058.1-601.9,1058.1z M-604.8,1057c0.2,0.1,0.8,0.5,2.9,0.5c2.1,0,2.7-0.3,2.9-0.5l-0.2-2
		c-0.1-0.6-0.6-1-1.2-1h-3.1c-0.6,0-1.1,0.5-1.2,1L-604.8,1057z"/>
</g>
<g id="XMLID_392_">
	<path class="st0" d="M-589.4,1053.1c-1.2,0-2.2-1-2.2-2.2c0-1.2,1-2.2,2.2-2.2c1.2,0,2.2,1,2.2,2.2
		C-587.1,1052.1-588.1,1053.1-589.4,1053.1z M-589.4,1049.2c-0.9,0-1.6,0.7-1.6,1.6s0.7,1.6,1.6,1.6c0.9,0,1.6-0.7,1.6-1.6
		C-587.7,1050-588.4,1049.2-589.4,1049.2z"/>
	<path class="st0" d="M-589.4,1058.1c-2.9,0-3.4-0.6-3.5-0.8v-0.1l0.2-2.2c0.1-0.9,0.9-1.6,1.8-1.6h3.1c0.9,0,1.7,0.7,1.8,1.6
		l0.2,2.2v0.1C-586,1057.5-586.5,1058.1-589.4,1058.1z M-592.3,1057c0.2,0.1,0.8,0.5,2.9,0.5c2.1,0,2.7-0.3,2.9-0.5l-0.2-2
		c-0.1-0.6-0.6-1-1.2-1h-3.1c-0.6,0-1.1,0.5-1.2,1L-592.3,1057z"/>
</g>
<rect x="-595.9" y="1047" class="st0" width="0.6" height="4.6"/>
<rect x="-597.7" y="1050.8" transform="matrix(-0.5736 -0.8192 0.8192 -0.5736 -1802.6516 1167.5262)" class="st0" width="0.6" height="4.4"/>
<rect x="-596" y="1052.6" transform="matrix(-0.8197 -0.5728 0.5728 -0.8197 -1683.6134 1575.8446)" class="st0" width="4.4" height="0.6"/>
<path class="st0" d="M-606.4,1058.6c-0.1,0-0.2,0-0.2-0.1c-2.1-2.5-3.2-5.7-3.2-8.9c0-7.6,6.4-13.8,14.1-13.8h0.1
	c3.8,0,7.3,1.5,10,4.1s4.1,6.1,4.1,9.8c0,3.1-1.1,6.2-3.2,8.6c-0.1,0.1-0.3,0.1-0.4,0s-0.1-0.3,0-0.4c2-2.4,3-5.2,3-8.3
	c0-3.5-1.4-6.9-3.9-9.4s-5.9-3.9-9.5-3.9c-3.6,0-7,1.3-9.6,3.8c-2.6,2.5-4,5.8-4,9.4c0,3.1,1.1,6.1,3.1,8.5c0.1,0.1,0.1,0.3,0,0.4
	C-606.3,1058.5-606.4,1058.6-606.4,1058.6z"/>
<line class="st1" x1="-595.6" y1="1047.2" x2="-595.6" y2="1051.9"/>
<path class="st0" d="M-70.8,116l-0.3-0.3c-0.4-0.5-10-11.1-10-20.3c0-5.3,4.6-9.5,10.3-9.5c5.7,0,10.3,4.3,10.3,9.5
	c0,9.1-9.5,19.9-10,20.3L-70.8,116z M-70.8,86.6c-5.2,0-9.5,3.9-9.5,8.7c0,8,7.8,17.6,9.5,19.5c1.6-1.9,9.5-11.5,9.5-19.5
	C-61.4,90.5-65.6,86.6-70.8,86.6z M-70.8,104.1c-4.4,0-8.1-3.6-8.1-8.1c0-4.4,3.6-8.1,8.1-8.1c4.4,0,8.1,3.6,8.1,8.1
	C-62.8,100.5-66.4,104.1-70.8,104.1z M-70.8,88.8c-4,0-7.3,3.3-7.3,7.3c0,4,3.3,7.3,7.3,7.3c4,0,7.3-3.3,7.3-7.3
	C-63.6,92-66.8,88.8-70.8,88.8z"/>
</svg>
