<?xml version="1.0" encoding="utf-8"?>
<!-- Generator: Adobe Illustrator 19.0.0, SVG Export Plug-In . SVG Version: 6.00 Build 0)  -->
<svg version="1.1" id="Calque_1" xmlns="http://www.w3.org/2000/svg" xmlns:xlink="http://www.w3.org/1999/xlink" x="0px" y="0px"
	 viewBox="0 0 63.7 63.7" style="enable-background:new 0 0 63.7 63.7;" xml:space="preserve">
<style type="text/css">
	.st0{fill:#36DA3E;}
	.st1{fill:#FFFFFF;}
</style>
<circle id="XMLID_41_" class="st0" cx="31.9" cy="31.9" r="31.9"/>
<path id="XMLID_2_" class="st1" d="M49.2,15.9C45,11.7,38.7,9.1,32.4,9.1c-7.3,0-14.1,3.1-18.3,8.9v-3.1c0-0.5-0.5-1-1-1
	c-0.5,0-1,0.5-1,1v6.8c0,0.5,0.5,1,1,1h0.5l0,0l6.8-2.1c0.5,0,1-1,0.5-1.6c0-0.5-1-1-1.6-0.5l-3.7,1c4.2-5.2,9.9-8.4,16.8-8.4
	c11.5,0,20.9,9.4,20.9,20.9s-9.4,20.9-20.9,20.9c-7.9,0-14.7-4.2-18.3-11c-0.5-0.5-1-0.5-1.6-0.5c-0.5,0.5-0.5,1-0.5,1.6
	c4.2,7.3,12,12,20.4,12c6.3,0,12-2.6,16.8-6.8c4.2-4.2,6.8-10.5,6.8-16.8C56,26.4,53.4,20.6,49.2,15.9L49.2,15.9z"/>
<path id="XMLID_1_" class="st1" d="M34.2,33.4h-0.5l-10.5-5.8c-0.5-0.5-0.5-1-0.5-1.6c0.5-0.5,1-0.5,1.6-0.5l9.9,5.2l12-7.9
	c0.5-0.5,1,0,1.6,0.5c0.5,0.5,0,1-0.5,1.6L34.2,33.4C34.7,33.4,34.7,33.4,34.2,33.4L34.2,33.4z"/>
</svg>
