<?xml version="1.0" encoding="utf-8"?>
<!-- Generator: Adobe Illustrator 19.0.0, SVG Export Plug-In . SVG Version: 6.00 Build 0)  -->
<svg version="1.1" id="Calque_1" xmlns="http://www.w3.org/2000/svg" xmlns:xlink="http://www.w3.org/1999/xlink" x="0px" y="0px"
	 viewBox="0 0 300 300" style="enable-background:new 0 0 300 300;" xml:space="preserve">
<style type="text/css">
	.st0{fill:#62DA73;}
	.st1{opacity:0.1;fill:#FFFFFF;enable-background:new    ;}
	.st2{opacity:0.33;fill:#FFFFFF;enable-background:new    ;}
	.st3{opacity:0.66;fill:#FFFFFF;enable-background:new    ;}
	.st4{fill:#FFFFFF;}
</style>
<circle id="XMLID_207_" class="st0" cx="150" cy="150" r="148"/>
<path id="XMLID_206_" class="st1" d="M92.3,150c0-6.9,3.1-13,8.1-17.1c-3-1.8-6.4-2.8-10.1-2.8c-11,0-20,8.9-20,20
	c0,11,8.9,20,20,20c3.7,0,7.1-1.1,10.1-2.8C95.5,163,92.3,156.9,92.3,150z"/>
<path id="XMLID_205_" class="st2" d="M122,150c0-6.6,2.6-12.5,6.8-17c-3.9-3.2-8.8-5.2-14.3-5.2c-12.2,0-22.2,9.9-22.2,22.2
	c0,12.2,9.9,22.2,22.2,22.2c5.4,0,10.4-2,14.3-5.2C124.6,162.5,122,156.6,122,150z"/>
<path id="XMLID_204_" class="st3" d="M159.2,150c0-6.2,2.1-12,5.6-16.6c-4.5-5-11-8.1-18.2-8.1c-13.6,0-24.6,11-24.6,24.6
	s11,24.6,24.6,24.6c7.2,0,13.7-3.1,18.2-8.1C161.3,161.9,159.2,156.2,159.2,150z"/>
<circle id="XMLID_203_" class="st4" cx="186.6" cy="150" r="27.4"/>
</svg>
