<?xml version="1.0" encoding="utf-8"?>
<svg version="1.1" xmlns="http://www.w3.org/2000/svg" xmlns:xlink="http://www.w3.org/1999/xlink" x="0px" y="0px" viewBox="25 -25 150 150" style="enable-background:new 25 -25 150 150;" xml:space="preserve">
<path fill="#FAFAFA" d="M167.5,123.3H32.7c-3.3,0-6-2.7-6-6V-17.5c0-3.3,2.7-6,6-6h134.8c3.3,0,6,2.7,6,6v134.8C173.5,120.6,170.8,123.3,167.5,123.3z"/>
<path fill="#666666" d="M140.8,65.9c-3-7.1-7.3-13.4-12.7-18.9s-11.8-9.7-18.9-12.7c-7.3-3.1-15.1-4.7-23.1-4.7h-17L90.6,8.3c1-1,1-2.6,0-3.6c-1-1-2.6-1-3.6,0L61.1,30.5c-1,1-1,2.6,0,3.6l25.8,25.8c0.5,0.5,1.2,0.8,1.8,0.8c0.7,0,1.3-0.3,1.8-0.8c1-1,1-2.6,0-3.6L69.2,34.9h17c29.9,0,54.2,24.3,54.2,54.2c0,1.4,1.2,2.6,2.6,2.6c1.4,0,2.6-1.2,2.6-2.6C145.5,81,143.9,73.2,140.8,65.9L140.8,65.9z"/>
</svg>
