<?xml version="1.0" encoding="utf-8"?>
<svg version="1.1" xmlns="http://www.w3.org/2000/svg" xmlns:xlink="http://www.w3.org/1999/xlink" x="0px" y="0px" viewBox="25 -25 150 150" style="enable-background:new 25 -25 150 150;" xml:space="preserve">
<path opacity="0.92" fill="#FAFAFA" d="M167.5,123.3H32.7c-3.3,0-6-2.7-6-6V-17.5c0-3.3,2.7-6,6-6h134.8c3.3,0,6,2.7,6,6v134.8C173.5,120.6,170.8,123.3,167.5,123.3z"/>
<path fill="#666666"  d="M133.7,96.9H67.9c-7.9,0-14.3-6.4-14.3-14.3V15.4C53.6,7.5,60,1,67.9,1h65.7c7.9,0,14.3,6.5,14.3,14.3v67.3C148,90.5,141.6,96.9,133.7,96.9z M67.9,5.4c-5.5,0-10,4.5-10,10v67.3c0,5.5,4.5,10,10,10h65.7c5.5,0,10-4.5,10-10V15.4c0-5.5-4.5-10-10-10C133.7,5.4,67.9,5.4,67.9,5.4z"/>
<circle fill="#FFFFFF" cx="144.4" cy="9.6" r="9"/>
<path fill="#666666" d="M144.4,20.8c-6.2,0-11.2-5-11.2-11.2s5-11.2,11.2-11.2s11.2,5.1,11.2,11.2S150.6,20.8,144.4,20.8z M144.4,2.8c-3.8,0-6.9,3.1-6.9,6.9s3.1,6.9,6.9,6.9s6.9-3.1,6.9-6.9S148.3,2.8,144.4,2.8z"/>
<circle fill="#FFFFFF" cx="144.4" cy="88.9" r="9"/>
<path fill="#666666" d="M144.4,100c-6.2,0-11.2-5-11.2-11.2c0-6.2,5-11.2,11.2-11.2s11.2,5.1,11.2,11.3C155.6,95,150.6,100,144.4,100z M144.4,82c-3.8,0-6.9,3.1-6.9,6.9c0,3.8,3.1,6.9,6.9,6.9s6.9-3.1,6.9-6.9C151.3,85,148.3,82,144.4,82z"/>
<circle fill="#FFFFFF" cx="57.9" cy="9.4" r="9"/>
<path fill="#666666" d="M57.9,20.6c-6.2,0-11.2-5-11.2-11.2s5-11.2,11.2-11.2S69,3.2,69,9.4S64,20.6,57.9,20.6z M57.9,2.6c-3.8,0-6.9,3.1-6.9,6.9s3.1,6.9,6.9,6.9c3.8,0,6.9-3.1,6.9-6.9S61.6,2.6,57.9,2.6z"/>
<circle fill="#FFFFFF" cx="57.9" cy="88.6" r="9"/>
<path fill="#666666" d="M57.9,99.7c-6.2,0-11.2-5-11.2-11.1c0-6.1,5-11.2,11.2-11.2S69,82.5,69,88.6C69,94.8,64,99.7,57.9,99.7z M57.9,81.7c-3.8,0-6.9,3.1-6.9,6.9c0,3.8,3.1,6.9,6.9,6.9c3.8,0,6.9-3.1,6.9-6.9C64.8,84.8,61.6,81.7,57.9,81.7z"/>
<path fill="#666666" d="M66.9,52.4c-0.6,0-1.1-0.2-1.5-0.7c-0.9-0.9-0.9-2.2,0-3.1l35-35c0.9-0.9,2.2-0.9,3.1,0c0.9,0.9,0.9,2.2,0,3.1l-35,35C67.9,52.2,67.4,52.4,66.9,52.4z"/>
<path fill="#666666" d="M71.9,80.3c-0.6,0-1.1-0.2-1.5-0.7c-0.9-0.9-0.9-2.2,0-3.1l57.7-57.7c0.9-0.9,2.2-0.9,3.1,0s0.9,2.2,0,3.1L73.5,79.6C73,80.1,72.5,80.3,71.9,80.3z"/>
<path fill="#666666" d="M99.8,85.4c-0.6,0-1.1-0.2-1.5-0.7c-0.9-0.9-0.9-2.2,0-3.1l35-34.9c0.9-0.9,2.2-0.9,3.1,0c0.9,0.9,0.9,2.2,0,3.1l-35,35C100.9,85.1,100.3,85.4,99.8,85.4z"/>
</svg>
