<?xml version="1.0" encoding="utf-8"?>
<!-- Generator: Adobe Illustrator 19.0.0, SVG Export Plug-In . SVG Version: 6.00 Build 0)  -->
<svg version="1.1" id="Calque_1" xmlns="http://www.w3.org/2000/svg" xmlns:xlink="http://www.w3.org/1999/xlink" x="0px" y="0px"
	 viewBox="0 0 63.7 63.7" style="enable-background:new 0 0 63.7 63.7;" xml:space="preserve">
<style type="text/css">
	.st0{fill:#36DA3E;}
	.st1{fill:#FFFFFF;}
	.st2{fill:#FFFFFF;stroke:#FFFFFF;stroke-miterlimit:10;}
</style>
<circle id="XMLID_41_" class="st0" cx="31.9" cy="31.9" r="31.9"/>
<path id="XMLID_64_" class="st1" d="M45.1,22.3c-0.4,0-1.1-0.4-1.1-1.1c0-2.6-2.2-4.7-4.7-4.7c-0.4,0-1.1-0.4-1.1-1.1
	c0-0.7,0.4-1.1,1.1-1.1c3.6,0,6.6,2.9,6.6,6.6C45.8,22,45.4,22.3,45.1,22.3z"/>
<path id="XMLID_63_" class="st1" d="M48.7,22.3c-0.4,0-1.1-0.4-1.1-1.1c0-4.7-3.6-8.4-8.4-8.4c-0.4,0-1.1-0.4-1.1-1.1
	c0-0.4,0.4-1.1,1.1-1.1c5.5,0,10.2,4.4,10.2,10.2C49.4,22,49.1,22.3,48.7,22.3z"/>
<path id="XMLID_62_" class="st1" d="M24.9,49.7c-3.6,0-6.6-2.9-6.6-6.6c0-0.4,0.4-1.1,1.1-1.1c0.4,0,1.1,0.4,1.1,1.1
	c0,2.6,2.2,4.7,4.7,4.7c0.4,0,1.1,0.4,1.1,1.1C26,49,25.6,49.7,24.9,49.7z"/>
<path id="XMLID_61_" class="st1" d="M24.9,53.4c-5.5,0-10.2-4.4-10.2-10.2c0-0.4,0.4-1.1,1.1-1.1c0.7,0,1.1,0.4,1.1,1.1
	c0,4.7,3.6,8.4,8.4,8.4c0.4,0,1.1,0.4,1.1,1.1C26,53,25.6,53.4,24.9,53.4z"/>
<g id="XMLID_1_">
	<path id="XMLID_58_" class="st2" d="M36.3,43.4h-8.5c-1.5,0-2.8-1.2-2.8-2.8V24c0-1.5,1.2-2.8,2.8-2.8h8.5c1.5,0,2.8,1.2,2.8,2.8
		v16.7C39.1,42.2,37.8,43.4,36.3,43.4z M27.8,22.6c-0.8,0-1.4,0.6-1.4,1.4v16.7c0,0.8,0.6,1.4,1.4,1.4h8.5c0.8,0,1.4-0.6,1.4-1.4V24
		c0-0.8-0.6-1.4-1.4-1.4H27.8z"/>
	<path id="XMLID_2_" class="st2" d="M33.9,39.9h-3.8c-0.2,0-0.5-0.2-0.5-0.5c0-0.2,0.2-0.5,0.5-0.5h3.8c0.2,0,0.5,0.2,0.5,0.5
		C34.4,39.7,34.2,39.9,33.9,39.9z"/>
</g>
</svg>
