<?xml version="1.0" encoding="utf-8"?>
<!-- Generator: Adobe Illustrator 19.0.0, SVG Export Plug-In . SVG Version: 6.00 Build 0)  -->
<svg version="1.1" id="Calque_1" xmlns="http://www.w3.org/2000/svg" xmlns:xlink="http://www.w3.org/1999/xlink" x="0px" y="0px"
	 viewBox="0 0 63.7 63.7" style="enable-background:new 0 0 63.7 63.7;" xml:space="preserve">
<style type="text/css">
	.st0{fill:#62da73;}
	.st1{fill:#FFFFFF;}
</style>
<circle id="XMLID_41_" class="st0" cx="31.9" cy="31.9" r="31.9"/>
<path id="XMLID_2_" class="st1" d="M32.3,16.4c-6.1,0-10.9,4.6-10.9,10.2c0,10.2,10.9,22.3,10.9,22.3s10.9-12.2,10.9-22.3
	C43.2,21,38.3,16.4,32.3,16.4z M32.3,35.9c-4.7,0-8.5-3.8-8.5-8.5s3.8-8.5,8.5-8.5s8.5,3.8,8.5,8.5S36.9,35.9,32.3,35.9z"/>
<path id="XMLID_1_" class="st1" d="M63.7,32c-0.4,0.6-10.9,14.1-31.1,16.8c0,0-0.1,0-0.1,0c-0.4,0-0.4-0.4-0.5-0.8
	c-0.1-0.5-0.1-0.9,0.4-1c19.5-2.6,31.1-17.6,31.2-17.7l0.1,1.4L63.7,32z"/>
</svg>
