<?xml version="1.0" encoding="utf-8"?>
<!-- Generator: Adobe Illustrator 19.0.0, SVG Export Plug-In . SVG Version: 6.00 Build 0)  -->
<svg version="1.1" id="Calque_1" xmlns="http://www.w3.org/2000/svg" xmlns:xlink="http://www.w3.org/1999/xlink" x="0px" y="0px"
	 viewBox="0 0 300 300" style="enable-background:new 0 0 300 300;" xml:space="preserve">
<style type="text/css">
	.st0{fill:#62DA73;}
	.st1{fill:#FFFFFF;}
</style>
<circle id="XMLID_485_" class="st0" cx="150" cy="150" r="148"/>
<circle id="XMLID_484_" class="st1" cx="109.5" cy="61.2" r="11.1"/>
<circle id="XMLID_483_" class="st1" cx="50.3" cy="149.5" r="11.1"/>
<circle id="XMLID_482_" class="st1" cx="124.3" cy="253.6" r="11.1"/>
<circle id="XMLID_481_" class="st1" cx="242.7" cy="209.2" r="11.1"/>
<circle id="XMLID_480_" class="st1" cx="242.7" cy="90.8" r="11.1"/>
<circle id="XMLID_479_" class="st1" cx="150" cy="150" r="27.4"/>
<g id="XMLID_499_">
	<path id="XMLID_508_" class="st1" d="M72.2,120.9c-0.7,0-1.5-0.2-2.2-0.7c-1.8-1.2-2.3-3.6-1.1-5.5l15.4-23.2
		c1.2-1.8,3.6-2.3,5.5-1.1c1.8,1.2,2.3,3.6,1.1,5.5l-15.4,23.2C74.8,120.2,73.5,120.9,72.2,120.9z"/>
	<path id="XMLID_506_" class="st1" d="M209.2,87.1c-0.3,0-0.6,0-0.9-0.1l-22-5c-2.1-0.5-3.5-2.6-3-4.7c0.5-2.1,2.6-3.5,4.7-3l22,5
		c2.1,0.5,3.5,2.6,3,4.7C212.6,85.9,211,87.1,209.2,87.1z M165.1,77.1c-0.3,0-0.6,0-0.9-0.1l-22-5c-2.1-0.5-3.5-2.6-3-4.7
		c0.5-2.1,2.6-3.5,4.7-3l22,5c2.1,0.5,3.5,2.6,3,4.7C168.5,75.9,166.9,77.1,165.1,77.1z"/>
	<path id="XMLID_504_" class="st1" d="M242.7,182.4c-2.2,0-3.9-1.8-3.9-3.9v-19c0-2.2,1.8-3.9,3.9-3.9c2.2,0,3.9,1.8,3.9,3.9v19
		C246.7,180.6,244.9,182.4,242.7,182.4z M242.7,144.5c-2.2,0-3.9-1.8-3.9-3.9v-19c0-2.2,1.8-3.9,3.9-3.9c2.2,0,3.9,1.8,3.9,3.9v19
		C246.7,142.7,244.9,144.5,242.7,144.5z"/>
	<path id="XMLID_502_" class="st1" d="M154.6,246.2c-1.6,0-3.1-1-3.7-2.6c-0.8-2,0.3-4.3,2.3-5.1l19.3-7.2c2-0.8,4.3,0.3,5.1,2.3
		c0.8,2-0.3,4.3-2.3,5.1l-19.3,7.2C155.6,246.1,155.1,246.2,154.6,246.2z M193.2,231.7c-1.6,0-3.1-1-3.7-2.6c-0.8-2,0.3-4.3,2.3-5.1
		l19.3-7.2c2-0.8,4.3,0.3,5.1,2.3c0.8,2-0.3,4.3-2.3,5.1l-19.3,7.2C194.1,231.6,193.6,231.7,193.2,231.7z"/>
	<path id="XMLID_511_" class="st1" d="M105.4,231.1c-1.2,0-2.4-0.6-3.2-1.6l-12.1-16.9c-1.3-1.8-0.9-4.2,0.9-5.5
		c1.8-1.3,4.2-0.9,5.5,0.9l12.1,16.9c1.3,1.8,0.9,4.2-0.9,5.5C107,230.8,106.2,231.1,105.4,231.1z M81.3,197.3
		c-1.2,0-2.4-0.6-3.2-1.6l-12.1-16.9c-1.3-1.8-0.9-4.2,0.9-5.5s4.2-0.9,5.5,0.9l12.1,16.9c1.3,1.8,0.9,4.2-0.9,5.5
		C82.9,197.1,82.1,197.3,81.3,197.3z"/>
</g>
</svg>
