<?xml version="1.0" encoding="utf-8"?>
<svg version="1.1" xmlns="http://www.w3.org/2000/svg" xmlns:xlink="http://www.w3.org/1999/xlink" x="0px" y="0px" viewBox="25 -25 150 150" style="enable-background:new 25 -25 150 150;" xml:space="preserve">
<path opacity="0.92" fill="#FAFAFA" d="M167.5,123.3H32.7c-3.3,0-6-2.7-6-6V-17.5c0-3.3,2.7-6,6-6h134.8c3.3,0,6,2.7,6,6v134.8C173.5,120.6,170.8,123.3,167.5,123.3z"/>
<path fill="#666666" d="M99.5,100.4C72.3,100.4,68,77,67.9,76.7c-0.1-2.6-0.1-55,17.8-72.9c4-4,8.6-6.1,13.8-6.1s9.8,2.1,13.8,6.1c17.7,17.8,17.3,70.1,17.3,72.4C130.5,76.7,126.7,100.4,99.5,100.4z M99.5,1.9c-4,0-7.6,1.6-10.8,4.8C72.1,23.4,72.1,75.8,72.1,76.3c0.1,0.5,3.8,19.9,27.4,19.9c23.6,0,26.7-19.6,26.9-20.4c0-0.2,0.4-52.5-16.1-69.1C107.1,3.5,103.5,1.9,99.5,1.9z"/>
<path fill="#666666" d="M113.4,81c0,11.9-28.5,11.9-28.5,0c0-2.2,0.5-4.4,1.2-6.5c3.5-9.6,9-18.3,13-18.3s9.5,8.6,13,18.3C113,76.6,113.4,78.8,113.4,81z"/>
</svg>
