<?xml version="1.0" encoding="utf-8"?>
<!-- Generator: Adobe Illustrator 19.0.0, SVG Export Plug-In . SVG Version: 6.00 Build 0)  -->
<svg version="1.1" id="Layer_1" xmlns="http://www.w3.org/2000/svg" xmlns:xlink="http://www.w3.org/1999/xlink" x="0px" y="0px"
	 viewBox="-43 166.9 508 508" style="enable-background:new -43 166.9 508 508;" xml:space="preserve">
<style type="text/css">
	.st0{fill:#324A5E;}
	.st1{fill:#718C9E;}
	.st2{fill:#E6E9EE;}
	.st3{fill:#F1543F;}
	.st4{fill:#FF7058;}
</style>
<path class="st0" d="M456.2,633.8c-5.1-44-23.4-74.2-24.6-76.5L410,571c0,0.6,15.4,25.7,20.6,62.8H456.2z"/>
<path class="st1" d="M-34.2,211.8l-1.7,14.3c-0.6,3.4,2.3,6.3,5.7,6.3L70.3,237c10.8,0.6,21.7,3.4,31.4,8l71.4,35.4l15.4-29.7
	l-81.1-33.1c-8-3.4-17.1-5.1-25.7-5.7l-109.6-5.7C-30.8,206.1-33.6,208.4-34.2,211.8z"/>
<g>
	<polygon class="st2" points="12,208.4 12,234.1 19.5,234.7 19.5,209 	"/>
	<polygon class="st2" points="36.6,209.5 36.6,235.2 42.9,235.8 42.9,210.1 	"/>
	<polygon class="st2" points="53.7,210.7 53.7,236.4 61.1,236.4 61.1,210.7 	"/>
</g>
<path class="st3" d="M239.3,261.5l-49.7-14.8c-1.7-0.6-4,0-5.1,1.7l-24,30.8c-1.7,2.3-1.1,5.7,1.7,6.9l29.1,14.3L239.3,261.5z"/>
<path class="st1" d="M298.1,531L285,419.7c-0.6-4-3.4-8-7.4-9.1l-1.1-0.6l-44.5-14.8c-0.6,0-1.7-0.6-2.3-0.6
	c-8.6-1.7-16.6,4-18.3,12.6c-1.7,8.6,4,16.6,12.6,18.3l38.8,7.4l21.7,101.1c0.6,3.4,4,6.3,8,5.7C295.8,538.4,298.7,535,298.1,531z"
	/>
<path class="st0" d="M378,511l-90.8,42.8c-13.7,6.3-29.7,0-35.4-13.7L193.6,394l62.8-4l-16.6,21.7c-8.6,11.4-10.3,26.8-3.4,40
	l34.8,66.8c2.9,5.1,9.1,6.9,13.7,4l80.5-48.5L378,511z"/>
<g>
	<path class="st4" d="M262.7,258.1l74.2,69.7c3.4,3.4,5.1,8.6,3.4,13.1l-10.8,30.8l-27.4,16l-102.8,16c-5.7,0.6-10.8-1.7-13.1-6.9
		l-17.1-36c-1.1-2.3-1.7-4.6-1.1-6.9l6.3-49.1c0.6-4,2.9-7.4,6.3-9.1l67.9-38.8C253,253.5,258.7,254.7,262.7,258.1z"/>
	<polygon class="st4" points="328.9,359.1 417.4,525.9 388.3,543 296.9,384.3 	"/>
</g>
<path class="st1" d="M394,576.7l-13.1-22.3c-2.9-4.6-1.1-10.3,3.4-13.1l32-18.8c4.6-2.9,10.3-1.1,13.1,3.4l13.1,22.3
	c2.9,4.6,1.1,10.3-3.4,13.1l-32,18.8C402.6,583,396.3,581.3,394,576.7z"/>
</svg>
