<?xml version="1.0" encoding="utf-8"?>
<!-- Generator: Adobe Illustrator 19.0.0, SVG Export Plug-In . SVG Version: 6.00 Build 0)  -->
<svg version="1.1" xmlns="http://www.w3.org/2000/svg" xmlns:xlink="http://www.w3.org/1999/xlink" x="0px" y="0px"
	 viewBox="-205 297 200 200" style="enable-background:new -205 297 200 200;" xml:space="preserve">
  <path fill="none" stroke-miterlimit="10" stroke="#555555" stroke-width="6" d="M-25,378.4h-8.6c-2.5,0-5.2-2.2-5.9-4.7c-0.7-2.5-1.7-4.7-2.9-6.9c-1.2-2.5-0.7-5.9,1-7.4
	  l6.1-6.1c4.4-4.4,4.4-11.3,0-15.7l-10.1-10.1c-2.2-2.2-4.9-3.2-7.9-3.2c-2.9,0-5.7,1.2-7.9,3.2l-6.1,6.1c-1,1-2.7,1.5-4.4,1.5
	  c-1.2,0-2.2-0.2-2.9-0.7c-2.2-1-4.7-2-6.9-2.9c-2.5-1-4.7-3.7-4.7-5.9V317c0-6.1-4.9-11.1-11.1-11.1h-14.3
	  c-6.1,0-11.1,4.9-11.1,11.1v8.6c0,2.5-2.2,5.2-4.7,5.9c-2.2,0.7-4.7,1.7-6.9,2.9c-1,0.5-2,0.7-2.9,0.7c-1.7,0-3.4-0.5-4.4-1.5
	  l-6.1-6.1c-2.2-2.2-4.9-3.2-7.9-3.2s-5.7,1.2-7.9,3.2l-10.1,10.1c-2.2,2.2-3.2,4.9-3.2,7.9c0,2.9,1.2,5.7,3.2,7.9l6.1,6.1
	  c1.7,1.7,2.2,5.2,1,7.4c-1,2.2-2,4.7-2.9,6.9c-1,2.5-3.7,4.7-5.9,4.7h-9.1c-6.1,0-11.1,4.9-11.1,11.1v14.3c0,6.1,4.9,11.1,11.1,11.1
	  h8.6c2.5,0,5.2,2.2,5.9,4.7c0.7,2.2,1.7,4.7,2.9,6.9c1.2,2.5,0.7,5.9-1,7.4l-6.1,6.1c-4.4,4.4-4.4,11.3,0,15.7l10.1,10.1
	  c2.2,2.2,4.9,3.2,7.9,3.2s5.7-1.2,7.9-3.2l6.1-6.1c1-1,2.7-1.5,4.4-1.5c1,0,2.2,0.2,2.9,0.7c2.2,1,4.7,2,6.9,2.9
	  c2.5,1,4.7,3.7,4.7,5.9v8.6c0,6.1,4.9,11.1,11.1,11.1h14.3c6.1,0,11.1-4.9,11.1-11.1v-8.6c0-2.5,2.2-5.2,4.7-5.9s4.7-1.7,6.9-2.9
	  c1-0.5,2-0.7,2.9-0.7c1.7,0,3.4,0.5,4.4,1.5l6.1,6.1c2.2,2.2,4.9,3.2,7.9,3.2c2.9,0,5.7-1.2,7.9-3.2l10.1-10.1
	  c4.4-4.4,4.4-11.3,0-15.7l-6.1-6.1c-1.7-1.7-2.2-5.2-1-7.4c1-2.2,2-4.7,2.9-6.9c1-2.5,3.7-4.7,5.9-4.7h8.6c6.1,0,11.1-4.9,11.1-11.1
	  v-14.3C-13.9,383.3-18.9,378.4-25,378.4L-25,378.4z M-71.9,396.6c0,17.9-14.5,32.4-32.4,32.4s-32.4-14.5-32.4-32.4
	  s14.5-32.4,32.4-32.4C-86.7,363.9-71.9,378.6-71.9,396.6L-71.9,396.6z"/>
</svg>
