<?xml version="1.0" encoding="utf-8"?>
<!-- Generator: Adobe Illustrator 19.0.0, SVG Export Plug-In . SVG Version: 6.00 Build 0)  -->
<svg version="1.1" id="Calque_1" xmlns="http://www.w3.org/2000/svg" xmlns:xlink="http://www.w3.org/1999/xlink" x="0px" y="0px"
	 viewBox="0 0 24.8 30" style="enable-background:new 0 0 24.8 30;" xml:space="preserve">
<style type="text/css">
	.st0{fill:#62DA73;}
	.st1{fill:#EF4136;stroke:#EF4136;stroke-width:0.5;stroke-miterlimit:10;}
	.st2{fill:#EF4136;}
</style>
<path id="XMLID_5610_" class="st0" d="M9.2,0C4.1,0,0,4.2,0,9.4C0,18.7,9.2,30,9.2,30s9.2-11.3,9.2-20.6C18.4,4.2,14.3,0,9.2,0z
	 M9.2,17.5c-4.2,0-7.7-3.5-7.7-7.8c0-4.3,3.4-7.8,7.7-7.8c4.2,0,7.7,3.5,7.7,7.8C16.9,14,13.4,17.5,9.2,17.5z"/>
<g id="XMLID_1_">
	<path id="XMLID_3_" class="st1" d="M20.7,7.1l-0.3,0.2l-0.5-0.9c-0.7-1.5-2.6-2.1-4.1-1.4S13.7,7.5,14.4,9l0.4,0.8l0.1,0.1
		l-0.3,0.2c-0.5,0.2-0.7,0.9-0.5,1.4l2.4,4.8c0.2,0.5,0.9,0.7,1.4,0.5l6.1-3c0.5-0.2,0.7-0.9,0.5-1.4L22,7.5
		C21.8,7,21.2,6.8,20.7,7.1z M15.1,8.7c-0.6-1.2-0.1-2.6,1.1-3.2c1.2-0.6,2.6-0.1,3.2,1.1l0.5,0.9l-4.2,2.1l-0.1-0.2L15.1,8.7z
		 M23.8,12.7c0.1,0.2,0,0.4-0.2,0.5l-6.1,3c-0.2,0.1-0.4,0-0.5-0.2l-2.4-4.8c-0.1-0.2,0-0.4,0.2-0.5l6.1-3c0.2-0.1,0.4,0,0.5,0.2
		L23.8,12.7z"/>
	<path id="XMLID_2_" class="st2" d="M23.6,12.7c0.1,0.1,0,0.3-0.1,0.3l-5.9,2.9c-0.1,0.1-0.3,0-0.3-0.1L15,11.1
		c-0.1-0.1,0-0.3,0.1-0.3l5.9-2.9c0.1-0.1,0.3,0,0.3,0.1L23.6,12.7z"/>
</g>
<path id="XMLID_5615_" class="st0" d="M18.2,7.7C17.5,3.3,13.7,0,9.2,0l0,1.8c3.7,0,6.8,2.7,7.5,6.2"/>
</svg>
