<?xml version="1.0" encoding="iso-8859-1"?>
<!-- Generator: Adobe Illustrator 19.0.0, SVG Export Plug-In . SVG Version: 6.00 Build 0)  -->
<svg version="1.1" id="Layer_1" xmlns="http://www.w3.org/2000/svg" xmlns:xlink="http://www.w3.org/1999/xlink" x="0px" y="0px"
	 viewBox="0 0 512 512" style="enable-background:new 0 0 512 512;" xml:space="preserve">
<path style="fill:#DAE2F2;" d="M352,96H160c-8.284,0-15-6.716-15-15V47c0-25.916,21.084-47,47-47h128c25.916,0,47,21.084,47,47v34
	C367,89.284,360.284,96,352,96z"/>
<path style="fill:#B8BFCC;" d="M256,96h96c8.284,0,15-6.716,15-15V47c0-25.916-21.084-47-47-47h-64V96z"/>
<path style="fill:#5C5F66;" d="M384,512H128c-25.916,0-47-21.084-47-47V113c0-25.916,21.084-47,47-47h256c25.916,0,47,21.084,47,47
	v352C431,490.916,409.916,512,384,512z"/>
<path style="fill:#53565C;" d="M431,465V113c0-25.916-21.084-47-47-47H256v446h128C409.916,512,431,490.916,431,465z"/>
<path style="fill:#FDC537;" d="M239.999,448.001c-1.502,0-3.021-0.226-4.508-0.695C229.246,445.338,225,439.547,225,433V321
	c0-0.551-0.449-1-1-1h-64c-5.593,0-10.722-3.112-13.305-8.073s-2.191-10.947,1.016-15.529l112-160
	c3.754-5.364,10.553-7.672,16.798-5.704C282.754,132.662,287,138.453,287,145v112c0,0.551,0.449,1,1,1h64
	c5.593,0,10.722,3.112,13.305,8.073s2.191,10.947-1.016,15.529l-112,160C249.428,445.688,244.801,448.001,239.999,448.001z"/>
<path style="fill:#FCB33B;" d="M256,436.3l108.289-154.698c3.208-4.582,3.599-10.568,1.016-15.529S357.593,258,352,258h-64
	c-0.551,0-1-0.449-1-1V145c0-6.547-4.246-12.338-10.49-14.306c-6.246-1.968-13.044,0.34-16.798,5.704L256,141.7V436.3z"/>
<g>
</g>
<g>
</g>
<g>
</g>
<g>
</g>
<g>
</g>
<g>
</g>
<g>
</g>
<g>
</g>
<g>
</g>
<g>
</g>
<g>
</g>
<g>
</g>
<g>
</g>
<g>
</g>
<g>
</g>
</svg>
