<?xml version="1.0" encoding="utf-8"?>
<!-- Generator: Adobe Illustrator 19.0.0, SVG Export Plug-In . SVG Version: 6.00 Build 0)  -->
<svg version="1.1" xmlns="http://www.w3.org/2000/svg" xmlns:xlink="http://www.w3.org/1999/xlink" x="0px" y="0px"
	 viewBox="0 0 200 200" enable-background="new 0 0 200 200" xml:space="preserve">
<path fill="#CCCCCC" d="M184.004,152.11c-3.338-3.558-7.388-6.658-12.112-9.313
	c-2.828-5.646-8.392-13.07-19.227-18.99c-4.433-2.426-9.45-4.442-15.005-6.029c11.338-6.431,18.999-18.598,18.999-32.525
	c0-15.122-9.03-28.179-21.981-34.044c-2.773-6.148-7.133-11.406-12.706-15.291c-1.897-1.323-3.903-2.454-5.974-3.398
	c-2.773-6.138-7.133-11.397-12.706-15.282c-6.289-4.379-13.667-6.695-21.352-6.695c-20.605,0-37.36,16.755-37.36,37.36
	c0,7.689,2.317,15.068,6.695,21.352c3.885,5.573,9.144,9.928,15.282,12.701c0.944,2.084,2.075,4.082,3.398,5.978
	c1.756,2.513,3.794,4.771,6.051,6.758c-13.987,0.443-26.122,2.458-36.132,6.011c-9.426,3.357-17.038,8.081-22.643,14.056
	c-9.905,10.562-10.019,21.415-10.019,21.872c0,7.725,6.284,14.01,14.01,14.01h5.304c-0.616,2.718-0.634,4.496-0.634,4.67
	c0,7.725,6.284,14.01,14.01,14.01h5.304c-0.616,2.718-0.634,4.497-0.634,4.67c0,7.725,6.285,14.01,14.01,14.01H180
	c7.726,0,14.01-6.284,14.01-14.01c0-0.456-0.119-11.31-10.024-21.872L184.004,152.11z M147.319,85.253
	c0,15.451-12.569,28.02-28.02,28.02c-15.446,0-28.02-12.569-28.02-28.02c0-15.446,12.573-28.02,28.02-28.02
	C134.751,57.234,147.319,69.807,147.319,85.253z M53.92,47.894c0-15.446,12.573-28.02,28.02-28.02c8.09,0,15.684,3.566,20.919,9.413
	c-0.743-0.046-1.481-0.073-2.239-0.073c-20.605,0-37.36,16.755-37.36,37.36c0,0.748,0.027,1.496,0.073,2.243
	C57.486,63.577,53.92,55.984,53.92,47.894z M72.6,66.574c0-15.446,12.573-28.02,28.02-28.02c8.081,0,15.67,3.566,20.906,9.403
	c-0.729-0.045-1.478-0.064-2.226-0.064c-20.605,0-37.36,16.755-37.36,37.36c0,0.748,0.027,1.496,0.064,2.235
	C76.158,82.248,72.6,74.654,72.6,66.574z M21.231,141.293c-2.568,0-4.652-2.08-4.67-4.643c0.009-0.511,0.347-8.209,7.985-16.025
	c7.443-7.606,23.441-16.691,57.394-16.691c1.71,0,3.398,0.027,5.062,0.073c2.057,3.53,4.67,6.695,7.725,9.359
	c-14.001,0.437-26.145,2.462-36.164,6.02c-9.427,3.357-17.038,8.081-22.643,14.046c-2.49,2.664-4.36,5.345-5.769,7.862H21.231z
	 M39.91,159.973c-2.568,0-4.652-2.08-4.67-4.643c0.018-0.52,0.356-8.218,7.985-16.026c7.443-7.606,23.441-16.691,57.394-16.691
	c28.349,0,44.392,6.239,53.467,13.235c-9.96-2.582-21.616-3.895-34.787-3.895c-16.514,0-30.665,2.061-42.057,6.111
	c-9.427,3.357-17.038,8.081-22.643,14.046c-2.49,2.664-4.36,5.345-5.769,7.862H39.91z M180.009,178.653H58.59
	c-2.568,0-4.651-2.08-4.67-4.643c0.009-0.511,0.347-8.209,7.986-16.026c7.443-7.607,23.44-16.691,57.394-16.691
	c33.949,0,49.947,9.085,57.389,16.691c7.644,7.817,7.972,15.515,7.99,16.026C184.66,176.573,182.581,178.653,180.009,178.653z"/>
</svg>
