<?xml version="1.0" encoding="utf-8"?>
<svg version="1.1" xmlns="http://www.w3.org/2000/svg" xmlns:xlink="http://www.w3.org/1999/xlink" width="640" height="640" viewBox="0 0 640 640">
<path fill="#62da73" d="M635.313 276.686c-6.248-6.248-16.379-6.248-22.627 0l-36.77 36.77c-1.644-65.929-28.092-127.669-74.897-174.475-48.351-48.353-112.639-74.981-181.019-74.981s-132.667 26.628-181.020 74.98-74.98 112.64-74.98 181.020 26.628 132.668 74.98 181.020 112.64 74.98 181.020 74.98c95.175 0 181.95-52.312 226.464-136.522 4.13-7.812 1.144-17.493-6.668-21.623-7.814-4.127-17.494-1.145-21.623 6.668-38.955 73.696-114.891 119.477-198.173 119.477-123.514 0-224-100.486-224-224s100.486-224 224-224c121.259 0 220.313 96.854 223.89 217.262l-36.576-36.576c-6.248-6.248-16.379-6.248-22.627 0s-6.249 16.379 0 22.628l64 64c3.124 3.124 7.218 4.686 11.313 4.686s8.189-1.562 11.313-4.687l64-64c6.249-6.248 6.249-16.378 0-22.627z"></path>
</svg>
