<?xml version="1.0" encoding="utf-8"?>
<!-- Generator: Adobe Illustrator 19.0.0, SVG Export Plug-In . SVG Version: 6.00 Build 0)  -->
<svg version="1.1" id="Calque_1" xmlns="http://www.w3.org/2000/svg" xmlns:xlink="http://www.w3.org/1999/xlink" x="0px" y="0px"
	 viewBox="0 0 500 326.3" style="enable-background:new 0 0 500 326.3;" xml:space="preserve">
<style type="text/css">
	.st0{fill:#979797;}
	.st1{fill:#BCBEC0;}
	.st2{fill:#A7A9AC;}
</style>
<g id="XMLID_1_">
	<g id="XMLID_114_">
		<g id="XMLID_273_">
			<path id="XMLID_287_" class="st0" d="M199.6,0.7h15.5v2.5h-12.5v7.1h11.7v2.5h-11.7v7.8h12.6v2.5h-15.6V0.7z"/>
			<path id="XMLID_285_" class="st0" d="M222.1,6.9h3.2v2.4h-3.2v10.1c0,1.2,0.3,1.4,2,1.4h1.2v2.4h-2c-2.8,0-3.9-0.6-3.9-3.6V9.2
				h-2.8V6.9h2.8V2h2.7V6.9z"/>
			<path id="XMLID_282_" class="st0" d="M242.6,23c-0.5,0.3-1.1,0.4-1.9,0.4c-1.4,0-2.3-0.8-2.3-2.5c-1.5,1.7-3.5,2.5-5.7,2.5
				c-3,0-5.4-1.3-5.4-4.6c0-3.7,2.7-4.5,5.5-5c3-0.6,5.5-0.4,5.5-2.4c0-2.3-1.9-2.7-3.6-2.7c-2.3,0-3.9,0.7-4.1,3.1H228
				c0.2-4,3.3-5.4,6.9-5.4c2.9,0,6.1,0.7,6.1,4.5v8.4c0,1.3,0,1.8,0.8,1.8c0.2,0,0.5,0,0.8-0.2V23z M238.3,14.7
				c-1,0.8-3,0.8-4.8,1.1c-1.8,0.3-3.3,0.9-3.3,2.9c0,1.8,1.5,2.4,3.1,2.4c3.5,0,5-2.2,5-3.7V14.7z"/>
			<path id="XMLID_279_" class="st0" d="M245.2,6.9h2.7v2.2h0.1c0.9-1.8,3-2.6,5.2-2.6c5,0,7.5,4,7.5,8.5c0,4.6-2.5,8.5-7.4,8.5
				c-1.7,0-4.1-0.6-5.2-2.5h-0.1v8.4h-2.7V6.9z M252.7,8.8c-3.6,0-5,3.1-5,6.1c0,3.2,1.4,6.2,5.1,6.2c3.6,0,4.9-3.1,4.9-6.3
				C257.8,11.8,256.2,8.8,252.7,8.8z"/>
			<path id="XMLID_276_" class="st0" d="M277.6,18c-0.7,3.6-3.3,5.5-6.9,5.5c-5.2,0-7.6-3.6-7.8-8.5c0-4.9,3.2-8.5,7.6-8.5
				c5.7,0,7.5,5.4,7.4,9.3h-12.2c-0.1,2.8,1.5,5.3,5.1,5.3c2.2,0,3.7-1.1,4.2-3.2H277.6z M275,13.4c-0.1-2.5-2-4.6-4.7-4.6
				c-2.8,0-4.5,2.1-4.6,4.6H275z"/>
			<path id="XMLID_274_" class="st0" d="M298.5,23.1h-2.7v-16h-5.8V5c3,0,5.8-0.8,6.4-4.2h2V23.1z"/>
		</g>
	</g>
	<g id="XMLID_98_">
		<g id="XMLID_256_">
			<path id="XMLID_270_" class="st0" d="M199.6,114.1h15.5v2.5h-12.5v7.1h11.7v2.5h-11.7v7.8h12.6v2.5h-15.6V114.1z"/>
			<path id="XMLID_268_" class="st0" d="M222.1,120.3h3.2v2.4h-3.2v10.1c0,1.2,0.3,1.4,2,1.4h1.2v2.4h-2c-2.8,0-3.9-0.6-3.9-3.6
				v-10.3h-2.8v-2.4h2.8v-4.9h2.7V120.3z"/>
			<path id="XMLID_265_" class="st0" d="M242.6,136.5c-0.5,0.3-1.1,0.4-1.9,0.4c-1.4,0-2.3-0.8-2.3-2.5c-1.5,1.7-3.5,2.5-5.7,2.5
				c-3,0-5.4-1.3-5.4-4.6c0-3.7,2.7-4.5,5.5-5c3-0.6,5.5-0.4,5.5-2.4c0-2.3-1.9-2.7-3.6-2.7c-2.3,0-3.9,0.7-4.1,3.1H228
				c0.2-4,3.3-5.4,6.9-5.4c2.9,0,6.1,0.7,6.1,4.5v8.4c0,1.3,0,1.8,0.8,1.8c0.2,0,0.5,0,0.8-0.2V136.5z M238.3,128.2
				c-1,0.8-3,0.8-4.8,1.1c-1.8,0.3-3.3,0.9-3.3,2.9c0,1.8,1.5,2.4,3.1,2.4c3.5,0,5-2.2,5-3.7V128.2z"/>
			<path id="XMLID_262_" class="st0" d="M245.2,120.3h2.7v2.2h0.1c0.9-1.8,3-2.6,5.2-2.6c5,0,7.5,4,7.5,8.5c0,4.6-2.5,8.5-7.4,8.5
				c-1.7,0-4.1-0.6-5.2-2.5h-0.1v8.4h-2.7V120.3z M252.7,122.3c-3.6,0-5,3.1-5,6.1c0,3.2,1.4,6.2,5.1,6.2c3.6,0,4.9-3.1,4.9-6.3
				C257.8,125.3,256.2,122.3,252.7,122.3z"/>
			<path id="XMLID_259_" class="st0" d="M277.6,131.4c-0.7,3.6-3.3,5.5-6.9,5.5c-5.2,0-7.6-3.6-7.8-8.5c0-4.9,3.2-8.5,7.6-8.5
				c5.7,0,7.5,5.4,7.4,9.3h-12.2c-0.1,2.8,1.5,5.3,5.1,5.3c2.2,0,3.7-1.1,4.2-3.2H277.6z M275,126.9c-0.1-2.5-2-4.6-4.7-4.6
				c-2.8,0-4.5,2.1-4.6,4.6H275z"/>
			<path id="XMLID_257_" class="st0" d="M288.7,122.2c-0.2-4.5,2.5-7.9,7.2-7.9c3.9,0,7,2.3,7,6.4c0,3.9-2.6,5.9-5.4,7.6
				c-2.8,1.7-5.7,3.1-6.3,5.9h11.4v2.4h-14.5c0.4-5.3,3.1-7.2,6.3-9.1c3.8-2.3,5.7-3.7,5.7-6.8c0-2.4-1.9-4-4.3-4
				c-3.1,0-4.4,2.9-4.3,5.5H288.7z"/>
		</g>
	</g>
	<g id="XMLID_82_">
		<g id="XMLID_239_">
			<path id="XMLID_253_" class="st0" d="M199.6,227.6h15.5v2.5h-12.5v7.1h11.7v2.5h-11.7v7.8h12.6v2.5h-15.6V227.6z"/>
			<path id="XMLID_251_" class="st0" d="M222.1,233.8h3.2v2.4h-3.2v10.1c0,1.2,0.3,1.4,2,1.4h1.2v2.4h-2c-2.8,0-3.9-0.6-3.9-3.5
				v-10.3h-2.8v-2.4h2.8v-4.9h2.7V233.8z"/>
			<path id="XMLID_248_" class="st0" d="M242.6,250c-0.5,0.3-1.1,0.4-1.9,0.4c-1.4,0-2.3-0.8-2.3-2.5c-1.5,1.7-3.5,2.5-5.7,2.5
				c-3,0-5.4-1.3-5.4-4.6c0-3.7,2.7-4.5,5.5-5c3-0.6,5.5-0.4,5.5-2.4c0-2.3-1.9-2.7-3.6-2.7c-2.3,0-3.9,0.7-4.1,3.1H228
				c0.2-4,3.3-5.4,6.9-5.4c2.9,0,6.1,0.7,6.1,4.5v8.4c0,1.3,0,1.8,0.8,1.8c0.2,0,0.5,0,0.8-0.2V250z M238.3,241.7
				c-1,0.8-3,0.8-4.8,1.1c-1.8,0.3-3.3,0.9-3.3,2.9c0,1.8,1.5,2.4,3.1,2.4c3.5,0,5-2.2,5-3.7V241.7z"/>
			<path id="XMLID_245_" class="st0" d="M245.2,233.8h2.7v2.2h0.1c0.9-1.8,3-2.6,5.2-2.6c5,0,7.5,4,7.5,8.5s-2.5,8.5-7.4,8.5
				c-1.7,0-4.1-0.6-5.2-2.5h-0.1v8.4h-2.7V233.8z M252.8,235.8c-3.6,0-5,3.1-5,6.1c0,3.2,1.4,6.2,5.1,6.2c3.6,0,4.9-3.1,4.9-6.3
				C257.8,238.8,256.2,235.8,252.8,235.8z"/>
			<path id="XMLID_242_" class="st0" d="M277.6,244.9c-0.7,3.6-3.3,5.5-6.9,5.5c-5.2,0-7.6-3.6-7.8-8.5c0-4.9,3.2-8.5,7.6-8.5
				c5.7,0,7.5,5.4,7.4,9.3h-12.2c-0.1,2.8,1.5,5.3,5.1,5.3c2.2,0,3.7-1.1,4.2-3.2H277.6z M275,240.4c-0.1-2.5-2-4.6-4.7-4.6
				c-2.8,0-4.5,2.1-4.6,4.6H275z"/>
			<path id="XMLID_240_" class="st0" d="M294.2,237.3c0.4,0,0.8,0,1.2,0c2.3,0,4.2-1.2,4.2-3.6c0-2.3-1.7-3.6-4-3.6
				c-2.9,0-4.2,2.2-4.2,4.8h-2.7c0.2-4.2,2.4-7.2,6.9-7.2c3.9,0,6.8,1.9,6.8,6c0,1.9-1.4,3.6-3.1,4.4v0.1c2.7,0.6,4,2.7,4,5.4
				c0,4.5-3.5,6.8-7.7,6.8c-4.5,0-7.5-2.7-7.4-7.3h2.7c0.1,2.9,1.7,4.9,4.7,4.9c2.6,0,4.8-1.6,4.8-4.3c0-2.8-2.1-4.3-4.7-4.3
				c-0.5,0-1.1,0-1.6,0.1V237.3z"/>
		</g>
	</g>
	<g id="XMLID_6_">
		<rect id="XMLID_12_" x="92.5" y="68.6" class="st1" width="6.2" height="3.1"/>
		<path id="XMLID_11_" class="st1" d="M391.1,71.7h-12.2v-3.1h12.2V71.7z M366.7,71.7h-12.2v-3.1h12.2V71.7z M342.3,71.7h-12.2v-3.1
			h12.2V71.7z M318,71.7h-12.2v-3.1H318V71.7z M293.6,71.7h-12.2v-3.1h12.2V71.7z M269.2,71.7h-12.2v-3.1h12.2V71.7z M244.9,71.7
			h-12.2v-3.1h12.2V71.7z M220.5,71.7h-12.2v-3.1h12.2V71.7z M196.2,71.7H184v-3.1h12.2V71.7z M171.8,71.7h-12.2v-3.1h12.2V71.7z
			 M147.4,71.7h-12.2v-3.1h12.2V71.7z M123.1,71.7h-12.2v-3.1h12.2V71.7z"/>
		<rect id="XMLID_14_" x="403.2" y="68.6" class="st1" width="6.2" height="3.1"/>
	</g>
	<g id="XMLID_3_">
		<rect id="XMLID_32_" x="92.5" y="182.1" class="st1" width="6.2" height="3.1"/>
		<path id="XMLID_31_" class="st1" d="M391.1,185.2h-12.2v-3.1h12.2V185.2z M366.7,185.2h-12.2v-3.1h12.2V185.2z M342.3,185.2h-12.2
			v-3.1h12.2V185.2z M318,185.2h-12.2v-3.1H318V185.2z M293.6,185.2h-12.2v-3.1h12.2V185.2z M269.2,185.2h-12.2v-3.1h12.2V185.2z
			 M244.9,185.2h-12.2v-3.1h12.2V185.2z M220.5,185.2h-12.2v-3.1h12.2V185.2z M196.2,185.2H184v-3.1h12.2V185.2z M171.8,185.2h-12.2
			v-3.1h12.2V185.2z M147.4,185.2h-12.2v-3.1h12.2V185.2z M123.1,185.2h-12.2v-3.1h12.2V185.2z"/>
		<rect id="XMLID_34_" x="403.2" y="182.1" class="st1" width="6.2" height="3.1"/>
	</g>
	<g id="XMLID_2_">
		<rect id="XMLID_5_" x="92.5" y="295.6" class="st1" width="6.2" height="3.1"/>
		<path id="XMLID_4_" class="st1" d="M391.1,298.7h-12.2v-3.1h12.2V298.7z M366.7,298.7h-12.2v-3.1h12.2V298.7z M342.3,298.7h-12.2
			v-3.1h12.2V298.7z M318,298.7h-12.2v-3.1H318V298.7z M293.6,298.7h-12.2v-3.1h12.2V298.7z M269.2,298.7h-12.2v-3.1h12.2V298.7z
			 M244.9,298.7h-12.2v-3.1h12.2V298.7z M220.5,298.7h-12.2v-3.1h12.2V298.7z M196.2,298.7H184v-3.1h12.2V298.7z M171.8,298.7h-12.2
			v-3.1h12.2V298.7z M147.4,298.7h-12.2v-3.1h12.2V298.7z M123.1,298.7h-12.2v-3.1h12.2V298.7z"/>
		<rect id="XMLID_7_" x="403.2" y="295.6" class="st1" width="6.2" height="3.1"/>
	</g>
	<g id="XMLID_2247_">
		<path id="XMLID_2275_" class="st2" d="M465.1,216.5c-19.8,0-23-17.1-23-17.3c0-1.9,0-40.1,12.9-53.2c2.9-2.9,6.3-4.4,10-4.4
			s7.1,1.5,10,4.4c12.9,13,12.6,51.1,12.6,52.7C487.7,199.2,484.9,216.5,465.1,216.5z M465.1,144.7c-3,0-5.5,1.1-7.9,3.5
			c-12.1,12.1-12.1,50.4-12.1,50.7c0.1,0.4,2.8,14.5,20,14.5c17.2,0,19.5-14.3,19.6-14.8c0-0.2,0.3-38.3-11.7-50.4
			C470.6,145.9,468.1,144.7,465.1,144.7z"/>
		<path id="XMLID_2270_" class="st2" d="M475.3,202.4c0,8.7-20.8,8.7-20.8,0c0-1.6,0.3-3.2,0.9-4.7c2.5-7,6.6-13.3,9.5-13.3
			s7,6.3,9.5,13.3C475,199.2,475.3,200.8,475.3,202.4z"/>
	</g>
	<g id="XMLID_2279_">
		<path id="XMLID_2283_" class="st2" d="M35.8,326.3c-19.8,0-23-17.1-23-17.3c0-1.9,0-40.1,12.9-53.2c2.9-2.9,6.3-4.4,10-4.4
			c3.8,0,7.1,1.5,10,4.4c12.9,13,12.6,51.1,12.6,52.7C58.4,309,55.7,326.3,35.8,326.3z M35.8,254.5c-3,0-5.5,1.1-7.9,3.5
			c-12.1,12.1-12.1,50.4-12.1,50.7c0.1,0.4,2.8,14.5,20,14.5c17.2,0,19.5-14.3,19.6-14.8c0-0.2,0.3-38.3-11.7-50.4
			C41.4,255.6,38.8,254.5,35.8,254.5z"/>
		<path id="XMLID_2282_" class="st2" d="M46,312.1c0,8.7-20.8,8.7-20.8,0c0-1.6,0.3-3.2,0.9-4.7c2.5-7,6.6-13.3,9.5-13.3
			s7,6.3,9.5,13.3C45.7,308.9,46,310.5,46,312.1z"/>
	</g>
	<g id="XMLID_4025_">
		<path id="XMLID_2610_" class="st2" d="M37.5,91.1h-3.7c-1,0-1.9-0.8-1.9-1.9c0-1,0.8-1.9,1.9-1.9h3.7c1,0,1.9,0.8,1.9,1.9
			C39.4,90.2,38.5,91.1,37.5,91.1z"/>
		<path id="XMLID_2619_" class="st2" d="M52.4,98.5H18.9c-3.1,0-5.6-2.5-5.6-5.6V29.5c0-3.1,2.5-5.6,5.6-5.6h33.6
			c3.1,0,5.6,2.5,5.6,5.6v63.4C58,96,55.5,98.5,52.4,98.5z M18.9,27.7c-1,0-1.9,0.8-1.9,1.9v63.4c0,1,0.8,1.9,1.9,1.9h33.6
			c1,0,1.9-0.8,1.9-1.9V29.5c0-1-0.8-1.9-1.9-1.9H18.9z"/>
		<path id="XMLID_2616_" class="st2" d="M48.7,83.6H22.6c-1,0-1.9-0.8-1.9-1.9V33.2c0-1,0.8-1.9,1.9-1.9h26.1c1,0,1.9,0.8,1.9,1.9
			v48.5C50.6,82.8,49.7,83.6,48.7,83.6z M24.5,79.9h22.4V35.1H24.5V79.9z"/>
	</g>
	<g id="XMLID_1954_">
		<path id="XMLID_1834_" class="st2" d="M474.8,69.3c-0.7-0.7-1.8-0.7-2.5,0l-4,4V58.4c0-1-0.8-1.7-1.7-1.7c-1,0-1.7,0.8-1.7,1.7
			v14.9l-4-4c-0.7-0.7-1.8-0.7-2.5,0c-0.7,0.7-0.7,1.8,0,2.5l7,7c0.3,0.3,0.8,0.5,1.2,0.5c0.4,0,0.9-0.2,1.2-0.5l7-7
			C475.5,71.1,475.5,70,474.8,69.3L474.8,69.3z"/>
		<path id="XMLID_1832_" class="st2" d="M485.8,77.5h-8.7c-1,0-1.7-0.8-1.7-1.7c0-1,0.8-1.7,1.7-1.7h8.7c5.7,0,10.4-4.7,10.4-10.4
			c0-5.7-4.7-10.4-10.4-10.4c-1.2,0-2.4,0.2-3.6,0.6c-0.8,0.3-1.6,0-2.1-0.7c-0.4-0.7-0.4-1.6,0.2-2.2c1.2-1.3,1.9-3,1.9-4.8
			c0-3.8-3.1-7-7-7c-2.2,0-4.3,1-5.6,2.8c-0.8,1.1-1.3,2.4-1.4,3.7c0,0.7-0.6,1.4-1.3,1.6c-0.7,0.2-1.5-0.1-1.9-0.7
			c-0.4-0.5-0.8-1.1-1.2-1.6c-3.3-3.7-8-5.8-13-5.8c-9.6,0-17.4,7.8-17.4,17.4c0,9.6,7.8,17.4,17.4,17.4h5.2c1,0,1.7,0.8,1.7,1.7
			c0,1-0.8,1.7-1.7,1.7H451c-11.5,0-20.9-9.4-20.9-20.9c0-11.5,9.4-20.9,20.9-20.9c5.6,0,10.9,2.2,14.8,6.2c0.3-0.7,0.7-1.3,1.1-1.9
			c2-2.7,5.1-4.2,8.4-4.2c5.8,0,10.4,4.7,10.4,10.4c0,1.2-0.2,2.4-0.6,3.5c0.2,0,0.4,0,0.6,0c7.7,0,13.9,6.2,13.9,13.9
			C499.7,71.3,493.5,77.5,485.8,77.5z"/>
	</g>
	<g id="XMLID_1492_">
		<path id="XMLID_1491_" class="st2" d="M29.1,191.5c0.7,0.7,1.8,0.7,2.5,0l4-4v15.1c0,1,0.8,1.8,1.8,1.8c1,0,1.8-0.8,1.8-1.8v-15.1
			l4,4c0.7,0.7,1.8,0.7,2.5,0c0.7-0.7,0.7-1.8,0-2.5l-7.1-7.1c-0.3-0.3-0.8-0.5-1.2-0.5c-0.5,0-0.9,0.2-1.2,0.5l-7.1,7.1
			C28.4,189.7,28.4,190.8,29.1,191.5L29.1,191.5z"/>
		<path id="XMLID_1489_" class="st2" d="M56.8,202.6H48c-1,0-1.8-0.8-1.8-1.8S47,199,48,199h8.8c5.8,0,10.6-4.7,10.6-10.6
			c0-5.8-4.7-10.6-10.6-10.6c-1.2,0-2.5,0.2-3.6,0.6c-0.8,0.3-1.6,0-2.1-0.7c-0.5-0.7-0.4-1.6,0.2-2.2c1.3-1.3,2-3.1,2-4.9
			c0-3.9-3.2-7.1-7.1-7.1c-2.3,0-4.3,1-5.7,2.9c-0.8,1.1-1.3,2.4-1.4,3.7c0,0.7-0.6,1.4-1.3,1.6c-0.7,0.2-1.5-0.1-1.9-0.7
			c-0.4-0.5-0.8-1.1-1.3-1.6c-3.3-3.8-8.2-5.9-13.2-5.9c-9.7,0-17.6,7.9-17.6,17.6c0,9.7,7.9,17.6,17.6,17.6h5.3
			c1,0,1.8,0.8,1.8,1.8c0,1-0.8,1.8-1.8,1.8h-5.3c-11.7,0-21.2-9.5-21.2-21.2c0-11.7,9.5-21.2,21.2-21.2c5.7,0,11.1,2.3,15,6.3
			c0.3-0.7,0.7-1.3,1.1-2c2-2.7,5.2-4.3,8.5-4.3c5.8,0,10.6,4.7,10.6,10.6c0,1.2-0.2,2.4-0.6,3.6c0.2,0,0.4,0,0.6,0
			c7.8,0,14.1,6.3,14.1,14.1C70.9,196.3,64.6,202.6,56.8,202.6z"/>
	</g>
	<g id="XMLID_1258_">
		<path id="XMLID_4051_" class="st2" d="M462.2,306.2c-1.4,0-2.8-0.6-3.8-1.6l-9.3-9.3c-1-1-1.6-2.4-1.6-3.8s0.6-2.8,1.6-3.8
			l16.5-16.5c1-1,2.4-1.6,3.8-1.6s2.8,0.6,3.8,1.6l9.3,9.3c2.1,2.1,2.1,5.5,0,7.6L466,304.6C465,305.7,463.7,306.2,462.2,306.2
			L462.2,306.2z M469.4,273.2c-0.5,0-0.9,0.2-1.3,0.5l-16.5,16.5c-0.3,0.3-0.5,0.8-0.5,1.3s0.2,0.9,0.5,1.3l9.3,9.3
			c0.3,0.3,0.8,0.5,1.3,0.5c0.5,0,0.9-0.2,1.3-0.5l16.5-16.5c0.7-0.7,0.7-1.8,0-2.5l-9.3-9.3C470.4,273.4,469.9,273.2,469.4,273.2z"
			/>
		<path id="XMLID_4009_" class="st2" d="M447.8,286.1c-0.5,0-0.9-0.2-1.3-0.5l-14.4-14.4c-0.7-0.7-0.7-1.8,0-2.5l14.4-14.4
			c0.7-0.7,1.8-0.7,2.5,0l14.4,14.4c0.7,0.7,0.7,1.8,0,2.5c-0.7,0.7-1.8,0.7-2.5,0l-13.1-13.1L436,269.9l13.1,13.1
			c0.7,0.7,0.7,1.8,0,2.5C448.8,286,448.3,286.1,447.8,286.1L447.8,286.1z"/>
		<path id="XMLID_4007_" class="st2" d="M483.8,322.1c-0.5,0-0.9-0.2-1.3-0.5l-14.4-14.4c-0.7-0.7-0.7-1.8,0-2.5
			c0.7-0.7,1.8-0.7,2.5,0l13.1,13.1l11.8-11.8l-13.1-13.1c-0.7-0.7-0.7-1.8,0-2.5c0.7-0.7,1.8-0.7,2.5,0l14.4,14.4
			c0.7,0.7,0.7,1.8,0,2.5l-14.4,14.4C484.7,321.9,484.3,322.1,483.8,322.1L483.8,322.1z"/>
		<path id="XMLID_3889_" class="st2" d="M489.2,277.1h-5.4c-1,0-1.8-0.8-1.8-1.8s0.8-1.8,1.8-1.8h4.7l-10-10v4.7
			c0,1-0.8,1.8-1.8,1.8c-1,0-1.8-0.8-1.8-1.8v-5.4c0-2.4,1.3-3.2,1.9-3.5c0.6-0.2,2-0.6,3.8,1.1l11.1,11.1c1.7,1.7,1.4,3.2,1.1,3.8
			C492.4,275.8,491.6,277.1,489.2,277.1z"/>
		<path id="XMLID_3878_" class="st2" d="M453.2,309.5c-0.5,0-0.9-0.2-1.3-0.5l-7.2-7.2c-0.7-0.7-0.7-1.8,0-2.5
			c0.7-0.7,1.8-0.7,2.5,0l7.2,7.2c0.7,0.7,0.7,1.8,0,2.5C454.2,309.3,453.7,309.5,453.2,309.5L453.2,309.5z"/>
		<path id="XMLID_3872_" class="st2" d="M449.6,316.7c-0.5,0-0.9-0.2-1.3-0.5l-10.8-10.8c-0.7-0.7-0.7-1.8,0-2.5
			c0.7-0.7,1.8-0.7,2.5,0l10.8,10.8c0.7,0.7,0.7,1.8,0,2.5C450.6,316.5,450.1,316.7,449.6,316.7L449.6,316.7z"/>
		<path id="XMLID_3485_" class="st2" d="M446,323.9c-0.5,0-0.9-0.2-1.3-0.5L430.4,309c-0.7-0.7-0.7-1.8,0-2.5c0.7-0.7,1.8-0.7,2.5,0
			l14.4,14.4c0.7,0.7,0.7,1.8,0,2.5C447,323.7,446.5,323.9,446,323.9L446,323.9z"/>
	</g>
</g>
</svg>
