<?xml version="1.0" encoding="utf-8"?>
<!-- Generator: Adobe Illustrator 19.0.0, SVG Export Plug-In . SVG Version: 6.00 Build 0)  -->
<svg version="1.1" xmlns="http://www.w3.org/2000/svg" xmlns:xlink="http://www.w3.org/1999/xlink" x="0px" y="0px"
	 viewBox="-291 381.8 28.4 30.2" style="enable-background:new -291 381.8 28.4 30.2;" xml:space="preserve">
<path fill="#62da73" d="M-266,405.1c0-0.4-0.3-0.7-0.7-0.7l-2.3,0c1.9-2.1,3.1-4.7,3.1-7.5c0-3-1.3-5.8-3.3-7.8c-2.9-2.9-7.1-4-11-2.7
	c-0.4,0.1-0.6,0.6-0.4,0.8c0.1,0.4,0.6,0.6,0.8,0.4c3.5-1.1,7.1-0.1,9.6,2.4c3.9,3.9,3.8,9.7,0.2,13.4l0-2.3c0-0.4-0.3-0.7-0.7-0.7
	c-0.4,0-0.7,0.3-0.7,0.7l0,3.8c0,0.1,0.1,0.4,0.2,0.5c0.1,0.1,0.4,0.2,0.5,0.2l3.8,0C-266.3,405.8-266,405.5-266,405.1L-266,405.1z"
	/>
<path fill="#62da73" d="M-273.1,406.5c-0.1-0.4-0.5-0.6-0.8-0.4c-3.5,1.1-7.1,0.1-9.6-2.4c-3.7-3.7-3.8-9.7-0.2-13.4l0,2.3
	c0,0.1,0.1,0.4,0.2,0.5s0.4,0.2,0.5,0.2c0.4,0,0.7-0.3,0.7-0.7l0-3.8c0-0.4-0.3-0.7-0.7-0.7l-3.8,0c-0.4,0-0.7,0.3-0.7,0.7
	c0,0.4,0.3,0.7,0.7,0.7l2.3,0c-1.9,2.1-3,4.7-3,7.6c0,3,1.1,5.7,3.3,7.8c2.9,2.9,7.1,4,11,2.7C-273.2,407.2-273,406.9-273.1,406.5
	L-273.1,406.5z"/>
</svg>
