<?xml version="1.0" encoding="utf-8"?>
<!-- Generator: Adobe Illustrator 19.0.0, SVG Export Plug-In . SVG Version: 6.00 Build 0)  -->
<svg version="1.1" id="Calque_1" xmlns="http://www.w3.org/2000/svg" xmlns:xlink="http://www.w3.org/1999/xlink" x="0px" y="0px"
	 viewBox="-205 297 200 200" style="enable-background:new -205 297 200 200;" xml:space="preserve">
<style type="text/css">
	.st0{fill:#666766;}
	.st1{fill:#E7E7E7;}
</style>
<path class="st0" d="M-76.9,443.2c-4,9.6-13.4,16.3-24.5,16.3c-14.6,0-26.5-11.9-26.5-26.5s11.9-26.5,26.5-26.5
	c9.9,0,18.5,5.4,23,13.4H-59c-5.6-18.1-22.5-31.3-42.4-31.3c-24.5,0-44.4,19.9-44.4,44.4s19.9,44.4,44.4,44.4
	c21,0,38.6-14.6,43.2-34.2H-76.9z"/>
<path id="XMLID_3623_" class="st0" d="M-40.6,398.8c-7.1-11.9-16.1-21.9-23.4-29.9c-5.3-5.9-10.8-12-12.8-16.2
	c3.3-1.9,5.5-4.1,7.6-6.3c1.9-1.9,1.9-5.1,0-7c-1.7-1.7-4.3-1.9-6.2-0.6c2.2-6.6,6.6-14.9,15.6-21.6c1.9-1.4,2.5-4,1.5-6.2
	c-0.3-0.5-6.5-12.8-19.3-12.8c-8,0-10.5,5.1-11.9,7.8c-1.1,2.2-1.1,2.3-3,2.3c-3.7,0-8-2.2-12.5-4.5c-5.4-2.7-10.9-5.5-17-5.5h-0.2
	c-11.6,0.1-22.1,10.3-23.2,11.4c-1,1-1.5,2.4-1.4,3.9c0.1,1.4,0.8,2.8,2,3.6c7.3,5.5,12.5,12.6,15.5,21.2c0,0.1,0.1,0.3,0.1,0.4
	c-1.9-1.3-4.5-1-6.2,0.6c-1.9,1.9-1.9,5.1,0,7c2.1,2.1,4.3,4.3,7.6,6.3c-1.9,4.2-7.4,10.3-12.8,16.2c-7.3,8-16.3,18-23.4,29.9
	c-8.5,14.2-12.6,28.4-12.6,43.2c0,20.3,7.5,35,22.2,43.9c12.1,7.2,28.6,10.6,52.1,10.6s40-3.4,52.1-10.6C-35.5,477-28,462.3-28,442
	C-28,427.2-32.1,413-40.6,398.8L-40.6,398.8z M-134.2,313.2c3.4-2.5,8-5,12.2-5.1l0,0c3.7,0,8,2.2,12.5,4.5c5.4,2.7,10.9,5.5,17,5.5
	c8,0,10.5-5.1,11.9-7.8c1.1-2.2,1.1-2.2,3-2.2c3.6,0,6.4,2.2,8.2,4.1c-13.7,12.2-17,27.2-17.8,34c-3.6,1-8.4,1.6-15.2,1.6
	s-11.6-0.6-15.2-1.6C-118.3,339.7-121.4,325.2-134.2,313.2L-134.2,313.2z M-102.3,486.6c-45.1,0-64.4-13.3-64.4-44.6
	c0-29.6,19.3-50.9,33.4-66.5c6.8-7.5,12.2-13.5,14.7-19.3c4.2,1,9.5,1.6,16.3,1.6s12.1-0.6,16.3-1.6c2.4,5.7,7.9,11.7,14.7,19.3
	c14.1,15.6,33.4,36.8,33.4,66.5C-37.9,473.3-57.2,486.6-102.3,486.6L-102.3,486.6z"/>
<path class="st1" d="M-76.9,443.2c-4,9.6-13.4,16.3-24.5,16.3c-14.6,0-26.5-11.9-26.5-26.5s11.9-26.5,26.5-26.5
	c9.9,0,18.5,5.4,23,13.4h9.7c-5.2-13-17.9-22.2-32.8-22.2c-19.5,0-35.3,15.8-35.3,35.3s15.8,35.3,35.3,35.3
	c15.9,0,29.4-10.6,33.8-25.1H-76.9z"/>
</svg>
