<?xml version="1.0" encoding="utf-8"?>
<!-- Generator: Adobe Illustrator 19.0.0, SVG Export Plug-In . SVG Version: 6.00 Build 0)  -->
<svg version="1.1" id="Calque_1" xmlns="http://www.w3.org/2000/svg" xmlns:xlink="http://www.w3.org/1999/xlink" x="0px" y="0px"
	 viewBox="-585 410.9 20 20" style="enable-background:new -585 410.9 20 20;" xml:space="preserve">
<style type="text/css">
	.st0{fill:#5EC5C4;}
	.st1{fill:#FFFFFF;}
</style>
<g>
	<circle id="XMLID_997_" class="st0" cx="-575" cy="420.9" r="10"/>
	<path id="XMLID_968_" class="st1" d="M-572.6,422c-0.8,0-1.5,0.4-1.9,1l-2.8-1.4c0.1-0.2,0.1-0.5,0.1-0.7s0-0.5-0.1-0.7l2.8-1.4
		c0.4,0.6,1.1,1,1.9,1c1.2,0,2.3-1,2.3-2.3c0-1.2-1-2.3-2.3-2.3c-1.2,0-2.3,1-2.3,2.3c0,0.3,0,0.5,0.1,0.7l-2.8,1.4
		c-0.4-0.6-1.1-1-1.9-1c-1.2,0-2.3,1-2.3,2.3s1,2.3,2.3,2.3c0.8,0,1.5-0.4,1.9-1l2.8,1.4c-0.1,0.2-0.1,0.5-0.1,0.7
		c0,1.2,1,2.3,2.3,2.3c1.2,0,2.3-1,2.3-2.3C-570.3,423-571.3,422-572.6,422z M-572.6,415.8c0.9,0,1.7,0.8,1.7,1.7s-0.8,1.7-1.7,1.7
		s-1.7-0.8-1.7-1.7S-573.5,415.8-572.6,415.8z M-579.3,422.6c-0.9,0-1.7-0.8-1.7-1.7s0.8-1.7,1.7-1.7s1.7,0.8,1.7,1.7
		S-578.4,422.6-579.3,422.6z M-572.6,426c-0.9,0-1.7-0.8-1.7-1.7s0.8-1.7,1.7-1.7s1.7,0.8,1.7,1.7S-571.6,426-572.6,426z"/>
</g>
</svg>
