<?xml version="1.0" encoding="utf-8"?>
<!-- Generator: Adobe Illustrator 19.0.0, SVG Export Plug-In . SVG Version: 6.00 Build 0)  -->
<svg version="1.1" id="Calque_1" xmlns="http://www.w3.org/2000/svg" xmlns:xlink="http://www.w3.org/1999/xlink" x="0px" y="0px"
	 viewBox="0 0 150 150" style="enable-background:new 0 0 150 150;" xml:space="preserve">
<style type="text/css">
	.st0{fill:#FF4C39;}
	.st1{fill:#FFFFFF;}
</style>
<circle id="XMLID_4871_" class="st0" cx="74.9" cy="75.4" r="74.8"/>
<path id="XMLID_4870_" class="st1" d="M106.8,37.2L74.8,71.5L40.5,39.4c-1.1-1.1-2.8-1-3.9,0.1c-1.1,1.1-1,2.8,0.1,3.9L71,75.5
	l-32.1,34.3c-1.1,1.1-1,2.8,0.1,3.9s2.8,1,3.9-0.1L75,79.3l34.3,32.1c1.1,1.1,2.8,1,3.9-0.1s1-2.8-0.1-3.9L78.8,75.2l32.1-34.3
	c1.1-1.1,1-2.8-0.1-3.9C109.6,36,107.9,36.1,106.8,37.2z"/>
</svg>
