<?xml version="1.0" encoding="utf-8"?>
<!-- Generator: Adobe Illustrator 19.0.0, SVG Export Plug-In . SVG Version: 6.00 Build 0)  -->
<svg version="1.1" id="Calque_1" xmlns="http://www.w3.org/2000/svg" xmlns:xlink="http://www.w3.org/1999/xlink" x="0px" y="0px"
	 viewBox="-524 886 150 150" style="enable-background:new -524 886 150 150;" xml:space="preserve">
<style type="text/css">
	.st0{fill:#A7A9AC;}
</style>
<g id="XMLID_1258_">
	<path id="XMLID_4051_" class="st0" d="M-455,998.3c-3.1,0-6-1.2-8.1-3.4l-19.8-19.8c-2.2-2.2-3.4-5-3.4-8.1s1.2-6,3.4-8.1
		l35.2-35.2c2.2-2.2,5.1-3.4,8.1-3.4s6,1.2,8.1,3.4l19.8,19.8c4.5,4.5,4.5,11.8,0,16.3l-35.2,35.2C-449,997.1-451.9,998.3-455,998.3
		L-455,998.3z M-439.7,928c-1,0-2,0.4-2.7,1.1l-35.2,35.2c-0.7,0.7-1.1,1.7-1.1,2.7c0,1,0.4,2,1.1,2.7l19.8,19.8
		c0.7,0.7,1.7,1.1,2.7,1.1s2-0.4,2.7-1.1l35.2-35.2c1.5-1.5,1.5-3.9,0-5.4l-19.8-19.8C-437.7,928.4-438.6,928-439.7,928z"/>
	<path id="XMLID_4009_" class="st0" d="M-485.7,955.5c-1,0-2-0.4-2.7-1.1l-30.7-30.7c-1.5-1.5-1.5-3.9,0-5.4l30.7-30.7
		c1.5-1.5,3.9-1.5,5.4,0l30.7,30.7c1.5,1.5,1.5,3.9,0,5.4c-1.5,1.5-3.9,1.5-5.4,0l-28-28l-25.3,25.3l28,28c1.5,1.5,1.5,3.9,0,5.4
		C-483.7,955.1-484.7,955.5-485.7,955.5L-485.7,955.5z"/>
	<path id="XMLID_4007_" class="st0" d="M-409,1032.2c-1,0-2-0.4-2.7-1.1l-30.7-30.7c-1.5-1.5-1.5-3.9,0-5.4c1.5-1.5,3.9-1.5,5.4,0
		l28,28l25.3-25.3l-28-28c-1.5-1.5-1.5-3.9,0-5.4c1.5-1.5,3.9-1.5,5.4,0l30.7,30.7c1.5,1.5,1.5,3.9,0,5.4l-30.7,30.7
		C-407,1031.8-408,1032.2-409,1032.2L-409,1032.2z"/>
	<path id="XMLID_3889_" class="st0" d="M-397.5,936.3H-409c-2.1,0-3.8-1.7-3.8-3.8s1.7-3.8,3.8-3.8h9.9l-21.4-21.4v9.9
		c0,2.1-1.7,3.8-3.8,3.8c-2.1,0-3.8-1.7-3.8-3.8v-11.5c0-5.2,2.8-6.9,4-7.4c1.2-0.5,4.4-1.2,8,2.4l23.7,23.7c3.6,3.7,2.9,6.8,2.4,8
		C-390.6,933.5-392.3,936.3-397.5,936.3z"/>
	<path id="XMLID_3878_" class="st0" d="M-474.2,1005.3c-1,0-2-0.4-2.7-1.1l-15.3-15.3c-1.5-1.5-1.5-3.9,0-5.4c1.5-1.5,3.9-1.5,5.4,0
		l15.3,15.3c1.5,1.5,1.5,3.9,0,5.4C-472.2,1005-473.2,1005.3-474.2,1005.3L-474.2,1005.3z"/>
	<path id="XMLID_3872_" class="st0" d="M-481.8,1020.7c-1,0-2-0.4-2.7-1.1l-23-23c-1.5-1.5-1.5-3.9,0-5.4c1.5-1.5,3.9-1.5,5.4,0
		l23,23c1.5,1.5,1.5,3.9,0,5.4C-479.9,1020.3-480.9,1020.7-481.8,1020.7L-481.8,1020.7z"/>
	<path id="XMLID_3485_" class="st0" d="M-489.5,1036c-1,0-2-0.4-2.7-1.1l-30.7-30.7c-1.5-1.5-1.5-3.9,0-5.4c1.5-1.5,3.9-1.5,5.4,0
		l30.7,30.7c1.5,1.5,1.5,3.9,0,5.4C-487.5,1035.6-488.5,1036-489.5,1036L-489.5,1036z"/>
</g>
</svg>
