<?xml version="1.0" encoding="utf-8"?>
<!-- Generator: Adobe Illustrator 19.0.0, SVG Export Plug-In . SVG Version: 6.00 Build 0)  -->
<svg version="1.1" id="Calque_1" xmlns="http://www.w3.org/2000/svg" xmlns:xlink="http://www.w3.org/1999/xlink" x="0px" y="0px"
	 viewBox="0 0 105 110.5" style="enable-background:new 0 0 105 110.5;" xml:space="preserve">
<style type="text/css">
	.st0{fill:#F1F2F2;}
</style>
<path id="XMLID_158_" class="st0" d="M104.3,105.9L71.4,70c7.4-7.7,11.5-17.9,11.5-28.6c0-11.1-4.3-21.5-12.1-29.3
	C62.9,4.3,52.5,0,41.4,0C30.4,0,20,4.3,12.1,12.1C4.3,20,0,30.4,0,41.4s4.3,21.5,12.1,29.3c7.8,7.8,18.2,12.1,29.3,12.1
	c9.5,0,18.6-3.2,25.9-9.1l32.8,35.8c0.5,0.6,1.3,0.9,2,0.9c0.7,0,1.3-0.2,1.9-0.7C105.2,108.7,105.3,107,104.3,105.9L104.3,105.9z
	 M5.5,41.4c0-19.8,16.1-35.9,35.9-35.9c19.8,0,35.9,16.1,35.9,35.9S61.2,77.4,41.4,77.4C21.6,77.4,5.5,61.2,5.5,41.4z"/>
</svg>
