<?xml version="1.0" encoding="utf-8"?>
<!-- Generator: Adobe Illustrator 19.0.0, SVG Export Plug-In . SVG Version: 6.00 Build 0)  -->
<svg version="1.1" xmlns="http://www.w3.org/2000/svg" xmlns:xlink="http://www.w3.org/1999/xlink" x="0px" y="0px" viewBox="0 0 200 200" enable-background="new 0 0 200 200" xml:space="preserve">
<path fill="#555555" d="M1.012,99.89c0-26.572,10.227-51.555,28.805-70.345c18.572-18.794,43.259-29.14,69.52-29.14s50.955,10.346,69.523,29.14c18.575,18.79,28.802,43.773,28.802,70.345s-10.227,51.548-28.802,70.338c-18.572,18.8-43.262,29.146-69.523,29.146s-50.948-10.346-69.52-29.146C11.238,151.438,1.012,126.459,1.012,99.89z M187.83,99.89c0-49.375-39.695-89.536-88.493-89.536S10.844,50.515,10.844,99.89s39.695,89.536,88.493,89.536S187.83,149.261,187.83,99.89z"/>
<path fill="#555555" d="M39.675,100.733c0-33.189,26.687-60.197,59.495-60.197c32.805,0,59.495,27.008,59.495,60.197c0,33.195-26.694,60.197-59.495,60.197C66.362,160.93,39.675,133.925,39.675,100.733zM148.75,100.733c0-27.66-22.244-50.164-49.579-50.164s-49.579,22.504-49.579,50.164s22.244,50.164,49.579,50.164S148.75,128.389,148.75,100.733z"/>
</svg>

