<?xml version="1.0" encoding="utf-8"?>
<!-- Generator: Adobe Illustrator 19.0.0, SVG Export Plug-In . SVG Version: 6.00 Build 0)  -->
<svg version="1.1" id="Calque_1" xmlns="http://www.w3.org/2000/svg" xmlns:xlink="http://www.w3.org/1999/xlink" x="0px" y="0px"
	 viewBox="0 0 200 200" style="enable-background:new 0 0 200 200;" xml:space="preserve">
<style type="text/css">
	.st0{fill:#3BB34A;}
	.st1{fill:#EF4137;}
	.st2{fill:#F69321;}
</style>
<g id="XMLID_7271_">
	<path id="XMLID_7274_" class="st0" d="M100.5,192.7c-23.6,0-46.4-8.2-64.3-23.1c-2.9-2.4-5.6-5-8.2-7.7c-3.5-3.7-3.3-9.5,0.6-12.9
		c3.9-3.4,9.9-3.1,13.4,0.6c2.1,2.2,4.3,4.3,6.7,6.2c14.4,12,32.8,18.6,51.8,18.6c22.9,0,44.6-9.5,59.6-26.1c3.4-3.8,9.5-4.3,13.5-1
		c4,3.3,4.5,9,1.1,12.8c-0.1,0.1-0.4,0.4-0.5,0.5C155.9,180.9,128.9,192.7,100.5,192.7z M16.8,135.4c-3.9,0-7.6-2.4-9-6.2
		c-3.5-9.9-5.3-20.2-5.3-30.7c0-22.7,8.5-44.6,24.1-61.7C40.6,21.4,58.9,11,79.6,6.6c5.1-1.1,10.2,2.1,11.3,7
		c1.1,4.9-2.1,9.8-7.3,10.9C67,28,52.2,36.4,40.9,48.8C28.4,62.6,21.5,80.3,21.5,98.5c0,8.5,1.5,16.8,4.3,24.8
		c1.7,4.8-0.9,10-5.9,11.6C18.9,135.3,17.9,135.4,16.8,135.4z M184.9,133.4c-1,0-1.9-0.1-2.9-0.4c-5-1.5-7.8-6.7-6.2-11.5
		c2.4-7.4,3.7-15.1,3.7-22.9c0-22-9.9-42.8-27.2-57.2c-10.5-8.8-23.3-14.8-36.9-17.3c-5.2-1-8.5-5.7-7.6-10.7s6-8.2,11.1-7.3
		c16.9,3.1,32.7,10.5,45.8,21.4c21.4,17.9,33.7,43.8,33.7,71c0,9.7-1.5,19.3-4.6,28.5C192.7,130.9,188.9,133.4,184.9,133.4z"/>
	<path id="XMLID_7273_" class="st1" d="M184.9,133.4c-1,0-1.9-0.1-2.9-0.4c-5-1.5-7.8-6.7-6.2-11.5c2.4-7.4,3.7-15.1,3.7-22.9
		c0-22-9.9-42.8-27.2-57.2c-10.5-8.8-23.3-14.8-36.9-17.3c-5.2-1-8.5-5.7-7.6-10.7s6-8.2,11.1-7.3c16.9,3.1,32.7,10.5,45.8,21.4
		c21.4,17.9,33.7,43.8,33.7,71c0,9.7-1.5,19.3-4.6,28.5C192.7,130.9,188.9,133.4,184.9,133.4z"/>
	<path id="XMLID_7272_" class="st2" d="M100.5,192.7c-23.6,0-46.4-8.2-64.3-23.1c-2.9-2.4-5.6-5-8.2-7.7c-3.5-3.7-3.3-9.5,0.6-12.9
		c3.9-3.4,9.9-3.1,13.4,0.6c2.1,2.2,4.3,4.3,6.7,6.2c14.4,12,32.8,18.6,51.8,18.6c22.9,0,44.6-9.5,59.6-26.1c3.4-3.8,9.5-4.3,13.5-1
		c4,3.3,4.5,9,1.1,12.8c-0.1,0.1-0.4,0.4-0.5,0.5C155.9,180.9,128.9,192.7,100.5,192.7z"/>
</g>
</svg>
