<?xml version="1.0" encoding="iso-8859-1"?>
<svg xmlns="http://www.w3.org/2000/svg" xmlns:xlink="http://www.w3.org/1999/xlink" version="1.1" viewBox="0 0 44 44" enable-background="new 0 0 44 44" width="512px" height="512px">
  <path d="m22,0c-12.2,0-22,9.8-22,22s9.8,22 22,22 22-9.8 22-22-9.8-22-22-22zm-8,31c0,0.6-0.4,1-1,1h-2c-0.6,0-1-0.4-1-1v-2c0-0.6 0.4-1 1-1h2c0.6,0 1,0.4 1,1v2zm0-8c0,0.6-0.4,1-1,1h-2c-0.6,0-1-0.4-1-1v-2c0-0.6 0.4-1 1-1h2c0.6,0 1,0.4 1,1v2zm0-8c0,0.6-0.4,1-1,1h-2c-0.6,0-1-0.4-1-1v-2c0-0.6 0.4-1 1-1h2c0.6,0 1,0.4 1,1v2zm20,16c0,0.6-0.4,1-1,1h-14c-0.6,0-1-0.4-1-1v-2c0-0.6 0.4-1 1-1h14c0.6,0 1,0.4 1,1v2zm0-8c0,0.6-0.4,1-1,1h-14c-0.6,0-1-0.4-1-1v-2c0-0.6 0.4-1 1-1h14c0.6,0 1,0.4 1,1v2zm0-8c0,0.6-0.4,1-1,1h-14c-0.6,0-1-0.4-1-1v-2c0-0.6 0.4-1 1-1h14c0.6,0 1,0.4 1,1v2z" fill="#62da73"/>
</svg>
