<?xml version="1.0" encoding="utf-8"?>
<!-- Generator: Adobe Illustrator 19.0.0, SVG Export Plug-In . SVG Version: 6.00 Build 0)  -->
<svg version="1.1" id="Capa_1" xmlns="http://www.w3.org/2000/svg" xmlns:xlink="http://www.w3.org/1999/xlink" x="0px" y="0px"
	 viewBox="-670.2 -4.3 850.4 850.4" style="enable-background:new -670.2 -4.3 850.4 850.4;" xml:space="preserve">
<style type="text/css">
	.st0{fill:#C7CAC7;}
	.st1{fill:#62DA73;}
</style>
<path class="st0" d="M129,370.2C53.1,355.6,18.3,266.8,64,204.5l32.1-43.8L26.7,91.3l-43.1,29.2c-64,43.4-151.4,5.2-163.1-71.2
	l-8.3-53.7h-98.1l-12.7,66.1c-14.3,74.2-99.8,109.7-162.4,67.3l-55.7-37.8l-69.4,69.4l32.1,43.8c45.7,62.3,10.9,151.1-65,165.7
	l-51.2,9.8v98.1l53.7,8.3c76.4,11.8,114.5,99.1,71.2,163.1l-29.2,43.1l69.4,69.4l43.8-32.1c62.3-45.7,151.1-10.9,165.7,65l9.8,51.2
	h98.1l5.8-37.8c12-78.1,102.6-115.6,166.3-68.9L15.2,762l69.4-69.4l-29.2-43.1c-43.4-64-5.2-151.4,71.2-163.1l53.7-8.3V380
	L129,370.2z M-236.8,502.7c-40.6,0-73.6-33-73.6-73.6s33-73.6,73.6-73.6s73.6,33,73.6,73.6S-196.2,502.7-236.8,502.7z"/>
<path class="st1" d="M-236.8,273.7c-85.8,0-155.4,69.6-155.4,155.4s69.6,155.4,155.4,155.4s155.4-69.6,155.4-155.4
	S-151,273.7-236.8,273.7z M-236.8,502.7c-40.6,0-73.6-33-73.6-73.6s33-73.6,73.6-73.6s73.6,33,73.6,73.6S-196.2,502.7-236.8,502.7z"
	/>
</svg>
