<?xml version="1.0" encoding="utf-8"?>
<!-- Generator: Adobe Illustrator 19.0.0, SVG Export Plug-In . SVG Version: 6.00 Build 0)  -->
<svg version="1.1" id="Layer_1" xmlns="http://www.w3.org/2000/svg" xmlns:xlink="http://www.w3.org/1999/xlink" x="0px" y="0px"
	 viewBox="-41 164.9 512 512" style="enable-background:new -41 164.9 512 512;" xml:space="preserve">
<style type="text/css">
	.st0{fill:#177FC6;}
</style>
<g>
	<g>
		<g>
			<path class="st0" d="M369.5,335.6c47.1,0,85.4-38.3,85.4-85.4c0-47.1-38.3-85.4-85.4-85.4c-47.1,0-85.4,38.3-85.4,85.4
				C284.1,297.3,322.4,335.6,369.5,335.6z"/>
			<path class="st0" d="M369.5,506.2c-47.1,0-85.4,38.3-85.4,85.4c0,47.1,38.3,85.4,85.4,85.4s85.4-38.3,85.4-85.4
				C454.8,544.5,416.6,506.2,369.5,506.2z"/>
			<path class="st0" d="M263.4,322.1c-2.4-3.6-4.7-7.3-6.8-11.2c-3.9-7.1-13-9.5-19.9-5.3l-65.6,39.8c-69-76.1-195.9-27-195.9,75.5
				c0,102.4,126.9,151.7,195.9,75.5l65.6,39.8c6.9,4.2,16,1.8,19.9-5.3c2.1-3.8,4.3-7.6,6.8-11.2c4.6-6.7,2.5-15.9-4.5-20.1
				l-65.6-39.7c9.3-25,9.3-52.8,0-77.8l65.6-39.7C265.9,338,268,328.8,263.4,322.1z"/>
		</g>
	</g>
</g>
</svg>
