<?xml version="1.0" encoding="utf-8"?>
<!-- Generator: Adobe Illustrator 19.0.0, SVG Export Plug-In . SVG Version: 6.00 Build 0)  -->
<svg version="1.1" xmlns="http://www.w3.org/2000/svg" xmlns:xlink="http://www.w3.org/1999/xlink" x="0px" y="0px"
	 viewBox="0 0 58.9 59.8" style="enable-background:new 0 0 58.9 59.8;" xml:space="preserve">
<circle fill="#88B3B3B3" stroke="#36da3e" stroke-miterlimit="10" cx="29.5" cy="30" r="28.4"/>
<g>
	<path fill="#36da3e" stroke-miterlimit="10" d="M29.1,49.5c-0.3,0-0.6-0.1-0.8-0.4c-0.1-0.1-2.8-3.6-5.5-8.6c-1.6-3-2.9-5.9-3.8-8.7
		c-1.2-3.5-1.7-6.8-1.7-9.8c0-6.5,5.3-11.8,11.8-11.8c6.5,0,11.8,5.3,11.8,11.8c0,3-0.6,6.3-1.7,9.8c-0.9,2.8-2.2,5.7-3.8,8.7
		c-2.7,5.1-5.4,8.5-5.5,8.6C29.7,49.4,29.4,49.5,29.1,49.5L29.1,49.5z M29.1,12.2c-5.4,0-9.8,4.4-9.8,9.8c0,6.4,2.9,13.1,5.3,17.6
		c1.8,3.3,3.6,5.9,4.5,7.3c1-1.4,2.8-4,4.6-7.3C36.1,35.1,39,28.4,39,22C39,16.6,34.5,12.2,29.1,12.2z"/>
	<path fill="#36da3e" stroke-miterlimit="10" d="M29.1,27.9c-3.3,0-5.9-2.6-5.9-5.9s2.6-5.9,5.9-5.9c3.3,0,5.9,2.6,5.9,5.9
		S32.4,27.9,29.1,27.9z M29.1,18.1c-2.2,0-3.9,1.8-3.9,3.9s1.8,3.9,3.9,3.9c2.2,0,3.9-1.8,3.9-3.9S31.3,18.1,29.1,18.1z"/>
</g>
</svg>
