<?xml version="1.0" encoding="utf-8"?>
<!-- Generator: Adobe Illustrator 19.0.0, SVG Export Plug-In . SVG Version: 6.00 Build 0)  -->
<svg version="1.1" id="Calque_1" xmlns="http://www.w3.org/2000/svg" xmlns:xlink="http://www.w3.org/1999/xlink" x="0px" y="0px"
	 viewBox="-283.3 375.1 36 42.9" style="enable-background:new -283.3 375.1 36 42.9;" xml:space="preserve">
<path fill="#888888" d="M-278.1,418h-4.7c-0.3,0-0.5-0.2-0.5-0.5v-8c0-0.3,0.2-0.5,0.5-0.5h4.7c0.3,0,0.5,0.2,0.5,0.5v8
	C-277.6,417.8-277.8,418-278.1,418z"/>
<path fill="#888888" d="M-270.5,418h-4.7c-0.3,0-0.5-0.2-0.5-0.5v-17.1c0-0.3,0.2-0.5,0.5-0.5h4.7c0.3,0,0.5,0.2,0.5,0.5v17.1
	C-270,417.8-270.3,418-270.5,418z"/>
<path fill="#888888" d="M-263,418h-4.7c-0.3,0-0.5-0.2-0.5-0.5v-26c0-0.3,0.2-0.5,0.5-0.5h4.7c0.3,0,0.5,0.2,0.5,0.5v26
	C-262.5,417.8-262.7,418-263,418z"/>
<path fill="#888888" d="M-255.4,418h-4.7c-0.3,0-0.5-0.2-0.5-0.5v-35c0-0.3,0.2-0.5,0.5-0.5h4.7c0.3,0,0.5,0.2,0.5,0.5v35
	C-254.9,417.8-255.1,418-255.4,418z"/>
<path fill="#888888" d="M-247.8,418h-4.7c-0.3,0-0.5-0.2-0.5-0.5v-41.9c0-0.3,0.2-0.5,0.5-0.5h4.7c0.3,0,0.5,0.2,0.5,0.5v41.9
	C-247.3,417.8-247.5,418-247.8,418z"/>
</svg>
