<?xml version="1.0" encoding="utf-8"?>
<!-- Generator: Adobe Illustrator 19.0.0, SVG Export Plug-In . SVG Version: 6.00 Build 0)  -->
<svg version="1.1" xmlns="http://www.w3.org/2000/svg" xmlns:xlink="http://www.w3.org/1999/xlink" x="0px" y="0px"
	 viewBox="0 0 200 200" enable-background="new 0 0 200 200" xml:space="preserve">
<g id="XMLID_1828_">
	<path fill="#B3B3B3" d="M6.445,181.879c-2.328,0-4.362-1.498-4.983-3.658c-0.621-2.159,0.328-4.455,2.328-5.603
		c17.485-10.097,24.735-24.786,27.305-31.653C12.09,126.938,1.275,107.552,1.275,87.25c0-10.248,2.666-20.18,7.942-29.523
		c5.024-8.905,12.198-16.887,21.312-23.72c18.479-13.843,42.973-21.474,68.98-21.474c26.012,0,50.501,7.631,68.98,21.474
		c9.118,6.823,16.288,14.805,21.317,23.72c5.272,9.333,7.937,19.265,7.937,29.523c0,10.253-2.666,20.175-7.937,29.523
		c-5.029,8.9-12.199,16.887-21.317,23.725c-18.479,13.833-42.968,21.469-68.98,21.469c-10.684,0-21.166-1.284-31.188-3.833
		c-4.433,2.85-12.729,7.899-22.635,12.646c-15.384,7.373-28.583,11.109-39.231,11.109L6.445,181.879z M99.509,22.504
		c-48.466,0-87.894,29.046-87.894,64.746c0,18.074,10.391,35.486,28.497,47.733c1.782,1.206,2.585,3.346,2.03,5.37
		c-1.212,4.348-5.327,16.264-16.339,27.771c13.461-4.543,27.962-12.422,38.66-19.513c1.273-0.847,2.868-1.1,4.357-0.691
		c9.801,2.694,20.131,4.076,30.688,4.076c48.471,0,87.894-29.046,87.894-64.746S147.98,22.504,99.509,22.504z"/>
	<path fill="#B3B3B3" d="M140.871,62.348H58.147c-2.853,0-5.17-2.232-5.17-4.98s2.317-4.98,5.17-4.98h82.723
		c2.848,0,5.17,2.232,5.17,4.98S143.718,62.348,140.871,62.348z"/>
	<path fill="#B3B3B3" d="M140.871,82.27H58.147c-2.853,0-5.17-2.232-5.17-4.98s2.317-4.98,5.17-4.98h82.723
		c2.848,0,5.17,2.232,5.17,4.98S143.718,82.27,140.871,82.27z"/>
	<path fill="#B3B3B3" d="M140.871,102.192H58.147c-2.853,0-5.17-2.237-5.17-4.98c0-2.748,2.317-4.98,5.17-4.98
		h82.723c2.848,0,5.17,2.232,5.17,4.98C146.041,99.954,143.718,102.192,140.871,102.192z"/>
	<path fill="#B3B3B3" d="M120.19,122.113H58.147c-2.853,0-5.17-2.237-5.17-4.98s2.317-4.98,5.17-4.98h62.043
		c2.848,0,5.17,2.237,5.17,4.98S123.037,122.113,120.19,122.113z"/>
</g>
</svg>
