<?xml version="1.0" encoding="utf-8"?>
<!-- Generator: Adobe Illustrator 19.0.0, SVG Export Plug-In . SVG Version: 6.00 Build 0)  -->
<svg version="1.1" xmlns="http://www.w3.org/2000/svg" xmlns:xlink="http://www.w3.org/1999/xlink" x="0px" y="0px"
	 viewBox="1.016 1.984 16.873 18.016" enable-background="new 1.016 1.984 16.873 18.016" xml:space="preserve">
<path fill="#36da3e" d="M16.622,4.65h-2.11V4.228c0-0.233-0.19-0.422-0.422-0.422c-0.232,0-0.422,0.189-0.422,0.422V4.65H5.226
	V4.228c0-0.233-0.189-0.422-0.422-0.422c-0.233,0-0.422,0.189-0.422,0.422V4.65h-2.11c-0.698,0-1.266,0.568-1.266,1.266v11.818
	C1.006,18.432,1.574,19,2.272,19h14.35c0.698,0,1.266-0.568,1.266-1.266V5.916C17.888,5.218,17.32,4.65,16.622,4.65z M2.272,5.494
	h2.11V6.76c0,0.233,0.189,0.422,0.422,0.422c0.233,0,0.422-0.189,0.422-0.422V5.494h8.441V6.76c0,0.233,0.19,0.422,0.422,0.422
	c0.232,0,0.422-0.189,0.422-0.422V5.494h2.11c0.232,0,0.422,0.189,0.422,0.422v2.11H1.85v-2.11C1.85,5.683,2.039,5.494,2.272,5.494z
	 M16.622,18.156H2.272c-0.233,0-0.422-0.19-0.422-0.422V8.871h15.194v8.863C17.044,17.966,16.855,18.156,16.622,18.156z"/>
<path fill="#36da3e" d="M14.09,12.247H4.804c-0.233,0-0.422-0.19-0.422-0.422c0-0.233,0.189-0.422,0.422-0.422h9.285
	c0.232,0,0.422,0.189,0.422,0.422C14.512,12.057,14.322,12.247,14.09,12.247z"/>
<path fill="#36da3e" d="M14.09,13.935H4.804c-0.233,0-0.422-0.19-0.422-0.422c0-0.232,0.189-0.422,0.422-0.422h9.285
	c0.232,0,0.422,0.19,0.422,0.422C14.512,13.746,14.322,13.935,14.09,13.935z"/>
<path fill="#36da3e" d="M9.025,15.624H4.804c-0.233,0-0.422-0.19-0.422-0.422c0-0.232,0.189-0.422,0.422-0.422h4.221
	c0.233,0,0.422,0.19,0.422,0.422C9.447,15.434,9.258,15.624,9.025,15.624z"/>
</svg>