<?xml version="1.0" encoding="utf-8"?>
<!-- Generator: Adobe Illustrator 19.0.0, SVG Export Plug-In . SVG Version: 6.00 Build 0)  -->
<svg version="1.1" xmlns="http://www.w3.org/2000/svg" xmlns:xlink="http://www.w3.org/1999/xlink" x="0px" y="0px"
	 viewBox="0 0 100 100" style="enable-background:new 0 0 100 100;" xml:space="preserve">
<path fill="#36DA3E" d="M51.7,100c-13.8,0-26.8-5.4-36.6-15.1C5.4,75.1,0,62.1,0,48.3c0-13.8,5.4-26.8,15.1-36.6
	c5.1-5.1,11-9,17.7-11.6c1-0.4,2.1-0.1,2.8,0.7c0.7,0.8,0.8,2,0.3,2.9c-4.7,8.3-6.7,18-5.5,27.5C31.7,41.1,36,50,43,57
	c8.4,8.4,19.5,13,31.3,13c7.7,0,15.3-2,22-5.8c0.9-0.5,2.1-0.4,2.9,0.3c0.8,0.7,1.1,1.8,0.7,2.8c-2.6,6.7-6.5,12.6-11.6,17.7
	C78.5,94.6,65.5,100,51.7,100z M28.4,7.8c-3.5,2-6.8,4.5-9.8,7.5C9.8,24.1,5,35.8,5,48.3s4.9,24.2,13.7,33
	c8.8,8.8,20.5,13.7,33,13.7c12.5,0,24.2-4.9,33-13.7c2.9-2.9,5.4-6.2,7.5-9.8c-5.7,2.2-11.7,3.4-17.9,3.4
	c-13.1,0-25.5-5.1-34.8-14.4c-7.8-7.8-12.6-17.7-14-28.6C24.4,23.7,25.5,15.4,28.4,7.8L28.4,7.8z"/>
</svg>
