<?xml version="1.0" encoding="utf-8"?>
<!-- Generator: Adobe Illustrator 19.0.0, SVG Export Plug-In . SVG Version: 6.00 Build 0)  -->
<svg version="1.1" xmlns="http://www.w3.org/2000/svg" xmlns:xlink="http://www.w3.org/1999/xlink" x="0px" y="0px"
	 viewBox="0 0 100 100" style="enable-background:new 0 0 100 100;" xml:space="preserve">
<path fill="#36DA3E" d="M50,21c-1.5,0-2.6-1.2-2.6-2.6V2.6C47.4,1.2,48.6,0,50,0s2.6,1.2,2.6,2.6v15.8
	C52.6,19.9,51.5,21,50,21z"/>
<path fill="#36DA3E" d="M18.4,52.6H2.7C1.2,52.6,0,51.4,0,50c0-1.5,1.2-2.6,2.6-2.6h15.8c1.5,0,2.6,1.2,2.6,2.6
	C21.1,51.4,19.9,52.6,18.4,52.6z"/>
<path fill="#36DA3E" d="M97.4,52.6H81.6c-1.4,0-2.6-1.2-2.6-2.6c0-1.5,1.2-2.6,2.6-2.6h15.8c1.4,0,2.6,1.2,2.6,2.6
	C100,51.4,98.8,52.6,97.4,52.6z"/>
<path fill="#36DA3E" d="M50,100c-1.5,0-2.6-1.2-2.6-2.6V81.6c0-1.4,1.2-2.6,2.6-2.6s2.6,1.2,2.6,2.6v15.8
	C52.6,98.8,51.5,100,50,100z"/>
<path fill="#36DA3E" d="M50,31.6c4.9,0,9.5,1.9,13,5.4c3.5,3.5,5.4,8.1,5.4,13c0,4.9-1.9,9.5-5.4,13
	c-3.5,3.5-8.1,5.4-13,5.4s-9.5-1.9-13-5.4c-3.5-3.5-5.4-8.1-5.4-13c0-4.9,1.9-9.5,5.4-13C40.5,33.5,45.1,31.6,50,31.6z M50,26.3
	c-13.1,0-23.7,10.6-23.7,23.6c0,13.1,10.6,23.6,23.7,23.6c13.1,0,23.7-10.6,23.7-23.6C73.7,36.9,63.1,26.3,50,26.3L50,26.3z"/>
<path fill="#36DA3E" d="M29,29c-0.7,0-1.3-0.3-1.9-0.8L16,17c-1-1-1-2.7,0-3.7c1-1,2.7-1,3.7,0l11.2,11.2
	c1,1,1,2.7,0,3.7C30.3,28.7,29.7,29,29,29L29,29z"/>
<path fill="#36DA3E" d="M17.8,87.4c-0.7,0-1.3-0.3-1.9-0.8c-1-1-1-2.7,0-3.7l11.2-11.2c1-1,2.7-1,3.7,0
	c1,1,1,2.7,0,3.7L19.7,86.7C19.2,87.2,18.5,87.4,17.8,87.4L17.8,87.4z"/>
<path fill="#36DA3E" d="M71,29c-0.7,0-1.4-0.3-1.9-0.8c-1-1-1-2.7,0-3.7l11.2-11.2c1-1,2.7-1,3.7,0c1,1,1,2.7,0,3.7
	L72.9,28.2C72.4,28.7,71.7,29,71,29L71,29z"/>
<path fill="#36DA3E" d="M82.2,87.4c-0.7,0-1.3-0.3-1.9-0.8L69.2,75.5c-1-1-1-2.7,0-3.7c1-1,2.7-1,3.7,0L84,82.9
	c1,1,1,2.7,0,3.7C83.5,87.2,82.9,87.4,82.2,87.4L82.2,87.4z"/>
</svg>
