<?xml version="1.0" encoding="utf-8"?>
<!-- Generator: Adobe Illustrator 19.0.0, SVG Export Plug-In . SVG Version: 6.00 Build 0)  -->
<svg version="1.1" id="Calque_1" xmlns="http://www.w3.org/2000/svg" xmlns:xlink="http://www.w3.org/1999/xlink" x="0px" y="0px"
	 viewBox="0 0 500 500" style="enable-background:new 0 0 500 500;" xml:space="preserve">
<style type="text/css">
	.st1{fill:#62DA73;}
</style>
<g id="XMLID_1_">
	<path id="XMLID_401_" class="st1" d="M400.4,251.2h-35.5c0-59.5-48.4-107.9-107.9-107.9c-20.6,0-40.6,5.8-57.9,16.8l-19.1-30
		c23-14.6,49.6-22.4,76.9-22.4C336.1,107.8,400.4,172.2,400.4,251.2z"/>
	<polygon id="XMLID_2730_" class="st1" points="151.7,87.5 233.8,209.8 116.2,209.8 	"/>
	<path id="XMLID_402_" class="st1" d="M253.3,397.1c-79.1,0-143.4-64.3-143.4-143.4h35.5c0,59.5,48.4,107.9,107.9,107.9
		c20.6,0,40.6-5.8,57.9-16.8l19.1,30C307.2,389.4,280.6,397.1,253.3,397.1z"/>
	<polygon id="XMLID_399_" class="st1" points="358.6,417.5 276.5,295.2 394.1,295.2 	"/>
</g>
</svg>
