<?xml version="1.0" encoding="utf-8"?>
<!-- Generator: Adobe Illustrator 19.0.0, SVG Export Plug-In . SVG Version: 6.00 Build 0)  -->
<svg version="1.1" id="Calque_1" xmlns="http://www.w3.org/2000/svg" xmlns:xlink="http://www.w3.org/1999/xlink" x="0px" y="0px"
	 viewBox="-47 170.9 500 500" style="enable-background:new -47 170.9 500 500;" xml:space="preserve">
<style type="text/css">
	.st0{fill:#F1F2F2;}
	.st1{fill:#62DA73;}
</style>
<circle class="st0" cx="203" cy="420.9" r="250"/>
<g id="XMLID_1_">
	<path id="XMLID_401_" class="st1" d="M353.4,422.1h-35.5c0-59.5-48.4-107.9-107.9-107.9c-20.6,0-40.6,5.8-57.9,16.8L133,301
		c23-14.6,49.6-22.4,76.9-22.4C289.1,278.7,353.4,343.1,353.4,422.1z"/>
	<polygon id="XMLID_2730_" class="st1" points="104.7,258.4 186.8,380.7 69.2,380.7 	"/>
	<path id="XMLID_402_" class="st1" d="M206.3,568c-79.1,0-143.4-64.3-143.4-143.4h35.5c0,59.5,48.4,107.9,107.9,107.9
		c20.6,0,40.6-5.8,57.9-16.8l19.1,30C260.2,560.3,233.6,568,206.3,568z"/>
	<polygon id="XMLID_399_" class="st1" points="311.6,588.4 229.5,466.1 347.1,466.1 	"/>
</g>
</svg>
